<svg xmlns="http://www.w3.org/2000/svg" width="81.146" height="81.04" viewBox="0 0 81.146 81.04">
  <g id="agile" transform="translate(-1 -1)">
    <path id="Path_1716" data-name="Path 1716" d="M50.871,29a3.871,3.871,0,1,0,3.871,3.871A3.876,3.876,0,0,0,50.871,29Zm0,5.161a1.29,1.29,0,1,1,1.29-1.29A1.292,1.292,0,0,1,50.871,34.161Z" transform="translate(13.356 8.13)" fill="#b7cc31"/>
    <path id="Path_1717" data-name="Path 1717" d="M52.032,25a9.032,9.032,0,1,0,9.032,9.032A9.043,9.043,0,0,0,52.032,25Zm0,15.484a6.452,6.452,0,1,1,6.452-6.452A6.459,6.459,0,0,1,52.032,40.484Z" transform="translate(12.194 6.968)" fill="#b7cc31"/>
    <path id="Path_1718" data-name="Path 1718" d="M82.146,73.259,68.1,64.479V68.1H49.347a26.917,26.917,0,0,0,5.536-12.719l.223.223,2.288-2.3a1.732,1.732,0,0,1,2.963,1.213v3.258H68.1V54.456a1.63,1.63,0,0,1,1-1.507,1.823,1.823,0,0,1,2,.4L73.347,55.6l5.481-5.481-2.256-2.245a1.825,1.825,0,0,1-.4-2,1.633,1.633,0,0,1,1.508-1H81V37.13H77.747a1.731,1.731,0,0,1-1.219-2.959l2.3-2.285-1-1.013a24.5,24.5,0,1,0-48.166-8.783l-2.917,2.187A27.089,27.089,0,0,0,28.1,78.421h40V82.04Zm-4.4-33.549h.674v2.581h-.738a4.208,4.208,0,0,0-3.889,2.59h0a4.4,4.4,0,0,0,.959,4.823l.422.421-1.822,1.822-.421-.423a4.4,4.4,0,0,0-4.823-.957,4.2,4.2,0,0,0-2.591,3.889v.738H62.937v-.677a4.312,4.312,0,0,0-7.372-3.032l-.463.465L53.28,50.127l.468-.466a4.313,4.313,0,0,0-3.041-7.37h-.674V39.71h.738a4.205,4.205,0,0,0,3.889-2.591A4.4,4.4,0,0,0,53.7,32.3l-.422-.421L55.1,30.052l.419.422a4.4,4.4,0,0,0,4.825.959,4.2,4.2,0,0,0,2.59-3.887v-.739h2.581v.652a4.331,4.331,0,0,0,2.668,4.007,4.182,4.182,0,0,0,4.654-.906L73.324,30l1.856,1.874-.472.471a4.311,4.311,0,0,0,3.04,7.369ZM37.139,25.789c0-.092-.009-.181-.009-.272a16.775,16.775,0,1,1,33.118,3.666,1.718,1.718,0,0,1-1.066-.1A1.759,1.759,0,0,1,68.1,27.459V24.226H60.356v3.32a1.629,1.629,0,0,1-1,1.506,1.825,1.825,0,0,1-2-.4L55.105,26.4l-5.48,5.481,2.256,2.244a1.824,1.824,0,0,1,.4,2,1.62,1.62,0,0,1-1.142.951,27.189,27.189,0,0,0-14-11.288ZM53.9,3.581A21.894,21.894,0,0,1,75.61,28.638l-2.374-2.4c.009-.24.023-.481.023-.723a19.345,19.345,0,0,0-38.685-.5c-.84-.208-1.692-.382-2.555-.507A21.942,21.942,0,0,1,53.9,3.581ZM30.55,26.928a24.556,24.556,0,0,1,17.527,10.2h-.625v7.742h3.254a1.731,1.731,0,0,1,1.219,2.959l-2.3,2.29,2.91,2.91A24.379,24.379,0,0,1,45.94,68.1H37.712a19.339,19.339,0,0,0-6.85-35.932l-1.474-.212V34.8l-6.752-4.221,6.752-5.065v1.3Zm9.084,25.686A11.628,11.628,0,0,1,29.388,62.86v-2.5H26.807v2.5A11.628,11.628,0,0,1,16.56,52.614h2.5V50.033h-2.5A11.628,11.628,0,0,1,26.807,39.786v2.5h2.581v-2.5A11.628,11.628,0,0,1,39.634,50.033h-2.5v2.581ZM28.1,37.13a14.242,14.242,0,1,0,3.871.55V35a16.775,16.775,0,1,1-7.294-.1l3.582,2.239c-.053,0-.1-.008-.159-.008Zm0,38.71a24.522,24.522,0,0,1-5.574-48.4l-4.447,3.336,3.631,2.27A19.36,19.36,0,0,0,28.1,70.679H70.679V69.137l6.6,4.123-6.6,4.123V75.84Z" fill="#b7cc31"/>
    <path id="Path_1719" data-name="Path 1719" d="M23.367,39.542l-4.249-4.249-1.825,1.825,6.074,6.074L26.86,39.7l-1.825-1.825Z" transform="translate(4.731 9.957)" fill="#b7cc31"/>
    <path id="Path_1720" data-name="Path 1720" d="M35,13h2.581v2.581H35Z" transform="translate(9.872 3.484)" fill="#b7cc31"/>
    <path id="Path_1721" data-name="Path 1721" d="M39,13h2.581v2.581H39Z" transform="translate(11.033 3.484)" fill="#b7cc31"/>
    <path id="Path_1722" data-name="Path 1722" d="M43,13h2.581v2.581H43Z" transform="translate(12.194 3.484)" fill="#b7cc31"/>
    <path id="Path_1723" data-name="Path 1723" d="M47,13h2.581v2.581H47Z" transform="translate(13.356 3.484)" fill="#b7cc31"/>
  </g>
</svg>
