<svg xmlns="http://www.w3.org/2000/svg" width="195.003" height="195.433" viewBox="0 0 195.003 195.433">
  <g id="Group_1281" data-name="Group 1281" transform="translate(-169.498 -14573.08)">
    <path id="Path_2567" data-name="Path 2567" d="M92.541,37.875h-.259a21.445,21.445,0,0,0,.259-3.233A19.358,19.358,0,0,0,61.733,19,25.862,25.862,0,1,0,13.63,37.94a12.931,12.931,0,0,0,1.325,25.8H92.541a12.931,12.931,0,0,0,0-25.862Zm0,19.4H14.955a6.466,6.466,0,0,1,0-12.931h4.073a3.3,3.3,0,0,0,2.877-1.746,3.233,3.233,0,0,0-.226-3.33A19.386,19.386,0,1,1,56.787,25.687a3.257,3.257,0,0,0,5.851,1.487,12.9,12.9,0,0,1,23.437,7.468,12.5,12.5,0,0,1-1.1,5.172,3.333,3.333,0,0,0,.259,3.071,3.275,3.275,0,0,0,2.716,1.455h4.591a6.466,6.466,0,0,1,0,12.931Z" transform="translate(168.011 14571.732)" fill="#b7cc31" stroke="#fff" stroke-width="1"/>
    <path id="Path_2568" data-name="Path 2568" d="M7,23h6.466v6.466H7Z" transform="translate(179.198 14618.935)" fill="#b7cc31" stroke="#fff" stroke-width="1"/>
    <path id="Path_2569" data-name="Path 2569" d="M36,15h6.466v6.466H36Z" transform="translate(243.948 14601.073)" fill="#b7cc31" stroke="#fff" stroke-width="1"/>
    <path id="Path_2570" data-name="Path 2570" d="M78.793,31.164h6.466V18.233A3.233,3.233,0,0,0,82.026,15H40v6.466H78.793Z" transform="translate(252.879 14601.073)" fill="#b7cc31" stroke="#fff" stroke-width="1"/>
    <path id="Path_2571" data-name="Path 2571" d="M13.466,27H7V59.328a3.233,3.233,0,0,0,3.233,3.233H23.164V56.095h-9.7Z" transform="translate(179.198 14627.866)" fill="#b7cc31" stroke="#fff" stroke-width="1"/>
    <path id="Path_2572" data-name="Path 2572" d="M159.474,22H23.7A9.727,9.727,0,0,0,14,31.7V115.75a9.727,9.727,0,0,0,9.7,9.7H74.549L72.9,131.914H69.765a3.207,3.207,0,0,0-2.813,1.649l-7.274,12.931a3.152,3.152,0,0,0,.032,3.2,3.191,3.191,0,0,0,2.78,1.616h58.19a3.191,3.191,0,0,0,2.78-1.616,3.152,3.152,0,0,0,.032-3.2l-7.274-12.931a3.207,3.207,0,0,0-2.813-1.649h-3.136l-1.649-6.465h50.851a9.727,9.727,0,0,0,9.7-9.7V31.7a9.727,9.727,0,0,0-9.7-9.7ZM111.532,138.379l3.621,6.465H68.019l3.621-6.465Zm-31.94-6.466,1.649-6.465h20.69l1.649,6.465Zm83.114-16.164a3.233,3.233,0,0,1-3.233,3.233H23.7a3.233,3.233,0,0,1-3.233-3.233v-9.7H162.707Zm0-16.164H20.466V31.7A3.233,3.233,0,0,1,23.7,28.466H159.474a3.233,3.233,0,0,1,3.233,3.233Z" transform="translate(194.828 14616.702)" fill="#b7cc31" stroke="#fff" stroke-width="1"/>
    <path id="Path_2573" data-name="Path 2573" d="M51.4,26C42.054,26,32,29.036,32,35.7V74.491c0,6.663,10.054,9.7,19.4,9.7s19.4-3.036,19.4-9.7V35.7C70.793,29.036,60.739,26,51.4,26Zm0,6.466c7.587,0,12.016,2.176,12.85,3.233-.834,1.057-5.263,3.233-12.85,3.233S39.38,36.755,38.546,35.7C39.38,34.641,43.809,32.466,51.4,32.466ZM38.466,43.15a38.353,38.353,0,0,0,25.862,0v5.328c-.485.97-4.962,3.385-12.931,3.385-8.03,0-12.527-2.438-12.931-3.233Zm0,12.931a38.357,38.357,0,0,0,25.878,0V61.4c-.459.97-4.946,3.394-12.95,3.394S38.866,62.356,38.462,61.56ZM51.4,77.724c-8.03,0-12.527-2.437-12.931-3.233V69a38.331,38.331,0,0,0,25.888,0V74.31C63.923,75.287,59.427,77.724,51.4,77.724Z" transform="translate(235.018 14625.633)" fill="#b7cc31" stroke="#fff" stroke-width="1"/>
    <path id="Path_2574" data-name="Path 2574" d="M62.164,32.233A3.233,3.233,0,0,0,58.931,29H46v6.466h9.7V51.629a3.233,3.233,0,0,0,3.233,3.233H84.793V48.4H62.164Z" transform="translate(266.276 14632.331)" fill="#b7cc31" stroke="#fff" stroke-width="1"/>
    <path id="Path_2575" data-name="Path 2575" d="M46,39H84.793v6.466H46Z" transform="translate(266.276 14654.659)" fill="#b7cc31" stroke="#fff" stroke-width="1"/>
    <path id="Path_2576" data-name="Path 2576" d="M40.629,32.233V48.4H18v6.466H43.862a3.233,3.233,0,0,0,3.233-3.233V35.466h9.7V29H43.862A3.233,3.233,0,0,0,40.629,32.233Z" transform="translate(203.759 14632.331)" fill="#b7cc31" stroke="#fff" stroke-width="1"/>
    <path id="Path_2577" data-name="Path 2577" d="M18,39H56.793v6.466H18Z" transform="translate(203.759 14654.659)" fill="#b7cc31" stroke="#fff" stroke-width="1"/>
  </g>
</svg>
