<svg xmlns="http://www.w3.org/2000/svg" width="123.551" height="65.918" viewBox="0 0 123.551 65.918"><defs><style>.a{fill:#5200c6;}.b{fill:#18c5bf;}</style></defs><path class="a" d="M369.43,527.509a17.762,17.762,0,1,1,14.733-27.632,5.987,5.987,0,0,0,4.976,2.666H401.53a32.951,32.951,0,1,0,0,14.577H389.1a5.918,5.918,0,0,0-4.912,2.568A17.783,17.783,0,0,1,369.43,527.509Z" transform="translate(-336.438 -476.872)"/><path class="b" d="M379.825,493.983v14.5h4.52a3,3,0,0,1,3,3v19.663a3,3,0,0,0,3,3h6.25a3,3,0,0,0,3-3V511.482a3,3,0,0,1,3-3h1.209a3,3,0,0,1,3,3v19.663a3,3,0,0,0,3,3h6.016a3,3,0,0,0,3-3V511.482a3,3,0,0,1,3-3h1.208a3,3,0,0,1,3,3v19.663a3,3,0,0,0,3,3h6.25a3,3,0,0,0,3-3V499.984a6,6,0,0,0-6-6Z" transform="translate(-314.733 -468.313)"/></svg>