<svg xmlns="http://www.w3.org/2000/svg" width="220.794" height="220.793" viewBox="0 0 220.794 220.793">
  <g id="computer" transform="translate(0 -0.001)">
    <path id="Path_2548" data-name="Path 2548" d="M206.251,31.082H175.342l8.367-8.367L169.078,8.083l-9.407,9.407a40.051,40.051,0,0,0-10.1-4.181V0H128.874V13.309a40.089,40.089,0,0,0-10.1,4.181l-9.407-9.407L94.731,22.714l8.367,8.368H38.569v6.469H101.5a40.337,40.337,0,0,0-1.54,4.675H86.649v2.168H10.788l6.526-6.843H32.1V31.082H14.544L0,46.333V171.761l14.571,14.85H81.925v9.09H56.156L45.04,209.924v10.87h97.749v-6.469H51.508v-2.173l7.8-9.982H161.484l7.8,9.982v2.173H149.258v6.469h26.5v-10.87L164.639,195.7H138.869v-9.09h67.355l14.57-14.85V46.333Zm3.756,13.312H191.792V42.226H178.484a40.172,40.172,0,0,0-1.54-4.675h26.537Zm-116.889,4.3h12.091l.506-2.621a33.778,33.778,0,0,1,5.215-12.6l1.5-2.211-8.546-8.546,5.484-5.484,8.546,8.546,2.212-1.5a33.776,33.776,0,0,1,12.6-5.215l2.622-.506V6.47H143.1V18.561l2.622.505a33.745,33.745,0,0,1,12.6,5.214l2.212,1.5,8.546-8.546,5.484,5.484-8.545,8.545,1.5,2.212a33.758,33.758,0,0,1,5.215,12.6l.506,2.621h12.09V56.45H173.233l-.506,2.621a33.758,33.758,0,0,1-5.215,12.6l-1.5,2.212,8.546,8.546-5.484,5.484-8.546-8.546-2.212,1.5a33.756,33.756,0,0,1-12.6,5.215l-2.622.505V98.676h-7.755V86.585l-2.622-.506a33.758,33.758,0,0,1-12.6-5.215l-2.212-1.5-8.546,8.546-5.484-5.484,8.546-8.545-1.5-2.212a33.755,33.755,0,0,1-5.215-12.6l-.505-2.622H93.117Zm6.839,14.224a40.069,40.069,0,0,0,4.181,10.105L94.731,82.43l14.631,14.632,9.407-9.407a40.074,40.074,0,0,0,10.1,4.181v13.308h20.692V91.836a40.072,40.072,0,0,0,10.1-4.181l9.407,9.407L183.71,82.43,174.3,73.023a40.068,40.068,0,0,0,4.181-10.1h13.308V50.863h22.533V167.205H6.469V50.863h80.18V62.918ZM132.4,195.7H88.394v-9.09H132.4v9.09Zm71.108-15.559H17.287l-6.347-6.469H209.855Z" fill="#b7cc31"/>
    <path id="Path_2549" data-name="Path 2549" d="M200.931,328.713H207.4v6.469h-6.469Z" transform="translate(-114.282 -186.959)" fill="#b7cc31"/>
    <path id="Path_2550" data-name="Path 2550" d="M230.931,328.713h85.737v6.469H230.931Z" transform="translate(-131.345 -186.959)" fill="#b7cc31"/>
    <path id="Path_2551" data-name="Path 2551" d="M286.23,113.057A27.757,27.757,0,1,0,258.473,85.3,27.788,27.788,0,0,0,286.23,113.057Zm0-49.046A21.289,21.289,0,1,1,264.942,85.3,21.313,21.313,0,0,1,286.23,64.012Z" transform="translate(-147.01 -32.728)" fill="#b7cc31"/>
    <path id="Path_2552" data-name="Path 2552" d="M331.978,133.92l3.056,5.7a14.918,14.918,0,0,0,6.447-6.825l-5.867-2.723A8.3,8.3,0,0,1,331.978,133.92Z" transform="translate(-188.816 -73.98)" fill="#b7cc31"/>
    <path id="Path_2553" data-name="Path 2553" d="M310.385,94.012a8.354,8.354,0,0,1,8.286,7.3l6.419-.8a14.823,14.823,0,0,0-24.148-9.578l4.122,4.985A8.252,8.252,0,0,1,310.385,94.012Z" transform="translate(-171.165 -49.791)" fill="#b7cc31"/>
    <path id="Path_2554" data-name="Path 2554" d="M200.931,298.713h98.674v6.469H200.931Z" transform="translate(-114.282 -169.896)" fill="#b7cc31"/>
    <path id="Path_2555" data-name="Path 2555" d="M414.747,268.714h6.469v6.469h-6.469Z" transform="translate(-235.892 -152.834)" fill="#b7cc31"/>
    <path id="Path_2556" data-name="Path 2556" d="M200.931,268.714h85.737v6.469H200.931Z" transform="translate(-114.282 -152.834)" fill="#b7cc31"/>
    <path id="Path_2557" data-name="Path 2557" d="M82.253,257.4h38.241v-65.44H82.253Zm6.469-58.971h25.3v52.5h-25.3Z" transform="translate(-46.782 -109.181)" fill="#b7cc31"/>
    <path id="Path_2558" data-name="Path 2558" d="M82.253,161.965h38.241v6.469H82.253Z" transform="translate(-46.782 -92.119)" fill="#b7cc31"/>
    <path id="Path_2559" data-name="Path 2559" d="M30,161.189h6.469v19.406H30Z" transform="translate(-17.063 -91.678)" fill="#b7cc31"/>
    <path id="Path_2560" data-name="Path 2560" d="M30,131.188h6.469v6.469H30Z" transform="translate(-17.063 -74.614)" fill="#b7cc31"/>
    <path id="Path_2561" data-name="Path 2561" d="M467,357.732h6.469V364.2H467Z" transform="translate(-265.612 -203.464)" fill="#b7cc31"/>
    <path id="Path_2562" data-name="Path 2562" d="M467,327.732h6.469V334.2H467Z" transform="translate(-265.612 -186.401)" fill="#b7cc31"/>
  </g>
</svg>
