<svg xmlns="http://www.w3.org/2000/svg" width="154.278" height="177.134" viewBox="0 0 154.278 177.134">
  <g id="development" transform="translate(-5 -1)">
    <path id="Path_2524" data-name="Path 2524" d="M159.278,132.422A40.049,40.049,0,0,0,131.719,94.43a22.8,22.8,0,0,0-15.982-41.7c.16-.463.363-.914.5-1.383l5.9-1.389V32.181l-5.891-1.389a35.018,35.018,0,0,0-2.777-6.694l3.186-5.151L104.189,6.48,99.038,9.668a35.367,35.367,0,0,0-6.7-2.777L90.956,1H73.322L71.937,6.891a35.258,35.258,0,0,0-6.7,2.777L60.089,6.48,47.624,18.948,50.809,24.1a35.387,35.387,0,0,0-2.777,6.694l-5.891,1.391V49.963l5.894,1.389c.14.466.343.917.5,1.38A22.555,22.555,0,0,0,45,52.426a22.839,22.839,0,0,0-12.439,42A40.049,40.049,0,0,0,5,132.422V143.85H49.361a39.743,39.743,0,0,0-7.22,22.856v11.428h80V166.706a39.743,39.743,0,0,0-7.22-22.856h44.361ZM124.994,101c0,4.645-2.617,8.571-5.714,8.571s-5.714-3.926-5.714-8.571a11.465,11.465,0,0,1,.286-2.411,32.312,32.312,0,0,1,10.865.029A11.592,11.592,0,0,1,124.994,101ZM82.139,126.708a17.142,17.142,0,1,1,17.142-17.142A17.159,17.159,0,0,1,82.139,126.708ZM59.9,101.561c.243.117.489.226.729.349a21.87,21.87,0,0,0-1.071,11.008l-3.806,8.374-6.925-8.654ZM82.139,86.71A22.849,22.849,0,0,0,63.189,96.8a39.95,39.95,0,0,0-5.745-2.377A22.847,22.847,0,0,0,67.854,75.282c0-.531-.043-1.051-.08-1.571a35.8,35.8,0,0,0,4.163,1.54l1.386,5.891H90.956l1.386-5.891a35.8,35.8,0,0,0,4.163-1.54c-.037.52-.08,1.04-.08,1.571a22.844,22.844,0,0,0,10.411,19.145,39.739,39.739,0,0,0-5.743,2.38,22.856,22.856,0,0,0-18.953-10.1Zm54.283-11.428A17.142,17.142,0,1,1,119.28,58.14a17.159,17.159,0,0,1,17.142,17.142Zm-83.3-27-.417-1.7-4.848-1.143V36.7l4.845-1.14.417-1.7a29.6,29.6,0,0,1,3.457-8.34l.906-1.494-2.623-4.237,6.071-6.071,4.237,2.623,1.494-.909A29.615,29.615,0,0,1,75,11.979l1.7-.417,1.146-4.848H86.43l1.14,4.845,1.7.417a29.7,29.7,0,0,1,8.342,3.457l1.494.909,4.237-2.623,6.071,6.071-2.62,4.24.906,1.494a29.6,29.6,0,0,1,3.457,8.34l.417,1.7,4.848,1.143v8.731l-4.845,1.14-.417,1.7a29.444,29.444,0,0,1-2.7,6.88A23,23,0,0,0,98.267,66.308l-.651.394a29.615,29.615,0,0,1-8.342,3.457l-1.7.417-1.14,4.845H77.851l-1.14-4.848-1.7-.417A29.671,29.671,0,0,1,66.668,66.7l-.651-.394A23,23,0,0,0,55.823,55.152a29.191,29.191,0,0,1-2.7-6.874Zm-25.264,27A17.142,17.142,0,1,1,45,92.424,17.159,17.159,0,0,1,27.856,75.282Zm26.173,24.07L45,108.383l-9.005-9.005a33.752,33.752,0,0,1,18.036-.026ZM41.17,112.634l-6.925,8.654-7.977-17.548a34.269,34.269,0,0,1,3.851-2.16ZM10.714,132.422a34.156,34.156,0,0,1,10.937-25.033L32.9,132.128,45,117l12.1,15.131,5.151-11.334a23.023,23.023,0,0,0,7.445,7.922,40,40,0,0,0-15.5,9.422H25V121H19.285v17.142H10.714Zm71.425,0a34.029,34.029,0,0,1,13.939,2.991L82.139,168.006,68.2,135.41A34.073,34.073,0,0,1,82.139,132.422ZM47.855,166.706a34.267,34.267,0,0,1,15.308-28.53L77.808,172.42H62.14V155.278H56.426V172.42H47.855Zm68.568,5.714h-8.571V155.278h-5.714V172.42H86.47l14.645-34.244a34.267,34.267,0,0,1,15.308,28.53Zm37.141-34.284h-8.571V120.994h-5.714v17.142h-29.2a40.025,40.025,0,0,0-15.5-9.422,22.713,22.713,0,0,0,9.071-26.8,33.672,33.672,0,0,1,4.283-1.84c-.017.306-.08.611-.08.92,0,7.877,5.125,14.285,11.428,14.285s11.428-6.408,11.428-14.285c0-.3-.06-.589-.077-.886a34.315,34.315,0,0,1,22.933,32.313Z" transform="translate(0 0)" fill="#b7cc31"/>
    <path id="Path_2525" data-name="Path 2525" d="M39.428,33.856A11.428,11.428,0,1,0,28,22.428,11.44,11.44,0,0,0,39.428,33.856Zm0-17.142a5.714,5.714,0,1,1-5.714,5.714A5.72,5.72,0,0,1,39.428,16.714Z" transform="translate(42.711 18.57)" fill="#b7cc31"/>
    <path id="Path_2526" data-name="Path 2526" d="M46.856,52.712A22.856,22.856,0,1,0,24,29.856,22.883,22.883,0,0,0,46.856,52.712Zm0-40A17.142,17.142,0,1,1,29.714,29.856,17.159,17.159,0,0,1,46.856,12.714Z" transform="translate(35.283 11.142)" fill="#b7cc31"/>
  </g>
</svg>
