<svg xmlns="http://www.w3.org/2000/svg" width="74.543" height="74.543" viewBox="0 0 74.543 74.543">
  <g id="experience" transform="translate(0)">
    <path id="Path_1724" data-name="Path 1724" d="M408,288v2.4a6.019,6.019,0,0,1,6.012,6.011h2.4A8.426,8.426,0,0,0,408,288Zm0,0" transform="translate(-346.683 -244.717)" fill="#b7cc31"/>
    <path id="Path_1725" data-name="Path 1725" d="M238.782,96a1.1,1.1,0,0,0-.215.018l.1,2.4c.065,0,.129-.01.114-.016a3.6,3.6,0,0,1,3.479,2.719l2.33-.594A6,6,0,0,0,238.782,96Zm0,0" transform="translate(-202.713 -81.572)" fill="#b7cc31"/>
    <path id="Path_1726" data-name="Path 1726" d="M294.056,70.3l-.1-2.4c-.065,0-.129.01-.115.016a3.582,3.582,0,0,1-2.791-1.357l-.63-.78-.881.48a3.45,3.45,0,0,1-3.417,0l-1.152,2.111a5.826,5.826,0,0,0,4.86.391,5.948,5.948,0,0,0,4.012,1.56A1.105,1.105,0,0,0,294.056,70.3Zm0,0" transform="translate(-242.142 -55.892)" fill="#b7cc31"/>
    <path id="Path_1727" data-name="Path 1727" d="M70.136,41.844a13.305,13.305,0,0,0-10.323-3.286A12.946,12.946,0,0,0,55.3,39.93V33.665a6.023,6.023,0,0,0,5.911-4.91,6.023,6.023,0,0,0,4.911-5.911,5.865,5.865,0,0,0-.825-3.006,5.865,5.865,0,0,0,.825-3.006,5.992,5.992,0,0,0-3.648-5.511A6.022,6.022,0,0,0,57.21,6.053,5.992,5.992,0,0,0,51.7,2.4a5.794,5.794,0,0,0-2,.358,5.935,5.935,0,0,0-8.022,0,5.788,5.788,0,0,0-1.87-.346A26.325,26.325,0,0,0,28.742,0,23.932,23.932,0,0,0,4.809,23.932v3.017a.5.5,0,0,1-.146.352L.851,31.113A2.9,2.9,0,0,0,2.9,36.069,1.2,1.2,0,0,1,4.076,37l2.675,11.37a10.558,10.558,0,0,0,15,7.025l2.3-1.148V64.924h2.4V53.043l12.56-6.281-1.076-2.151L20.674,53.243A8.152,8.152,0,0,1,9.092,47.817L6.416,36.447A3.6,3.6,0,0,0,2.9,33.665a.5.5,0,0,1-.352-.85L6.363,29a2.919,2.919,0,0,0,.851-2.054V23.932A21.529,21.529,0,0,1,28.742,2.4a24.045,24.045,0,0,1,7.4,1.161A5.97,5.97,0,0,0,34.8,4.924a5.78,5.78,0,0,0-4.018.656,5.964,5.964,0,0,0-2.368,2.376,5.748,5.748,0,0,0-.649,4,5.942,5.942,0,0,0-2.518,4.876,6.019,6.019,0,0,0,5.309,5.97,6,6,0,0,0,4.809,3.607,6,6,0,0,0,8.8,2.672,15.808,15.808,0,0,1,3.928,10.473v4.075l0,0L46.831,46.3a37.506,37.506,0,0,0-3.548,15.869v7.567h2.4V62.166a35.091,35.091,0,0,1,2.4-12.694V51.7H48.1a13.266,13.266,0,0,0,6.6,11.442,1.207,1.207,0,0,1,.613,1.037v4.146a6.17,6.17,0,0,0,5.425,6.189,5.689,5.689,0,0,0,.573.029,6.012,6.012,0,0,0,6.025-6.011V64.18a1.2,1.2,0,0,1,.615-1.039,13.221,13.221,0,0,0,2.193-21.3Zm-5.212,23.08v2.4H57.711v-2.4ZM60.115,52.9a1.2,1.2,0,1,1,1.2,1.2A1.2,1.2,0,0,1,60.115,52.9Zm.844,19.22a3.63,3.63,0,0,1-2.989-2.388H64.7a3.591,3.591,0,0,1-.956,1.468,3.639,3.639,0,0,1-2.784.919ZM66.737,61.06a3.626,3.626,0,0,0-1.383,1.459H62.52V56.287a3.607,3.607,0,1,0-2.4,0V62.52H57.28A3.626,3.626,0,0,0,55.9,61.06,10.856,10.856,0,0,1,50.5,51.7l0-12.145A18.206,18.206,0,0,0,45.13,26.6l-.85-.85-.851.85a3.593,3.593,0,0,1-6.03-1.662l-.242-.945-.975.041c-.064,0-.128.01-.113.016a3.6,3.6,0,0,1-3.479-2.719l-.242-.945-.975.041c-.064,0-.128.01-.113.016a3.612,3.612,0,0,1-3.607-3.607A3.573,3.573,0,0,1,29.7,13.6l.99-.478L30.3,12.092a3.4,3.4,0,0,1,.225-2.984A3.606,3.606,0,0,1,31.939,7.69a3.412,3.412,0,0,1,3-.228l1.028.388.478-.989a3.567,3.567,0,0,1,4.942-1.593l.881.48.63-.78a3.549,3.549,0,0,1,5.585,0l.631.78.881-.48a3.594,3.594,0,0,1,5.187,2.263l.242.945.975-.041c.065,0,.129-.01.114-.016a3.6,3.6,0,0,1,3.61,3.524l-.05,1.175.935.238a3.6,3.6,0,0,1,2.719,3.479,3.55,3.55,0,0,1-.815,2.25l-.611.756.611.756a3.55,3.55,0,0,1,.815,2.25,3.612,3.612,0,0,1-3.607,3.607h-1.2v1.2A3.552,3.552,0,0,1,54.4,31.129l-1.5-.39V44.515l1.927-1.455a10.77,10.77,0,0,1,13.7.574,10.818,10.818,0,0,1-1.8,17.426Zm0,0" transform="translate(0 0)" fill="#b7cc31"/>
    <path id="Path_1728" data-name="Path 1728" d="M336.478,131.933v-1.2a3.551,3.551,0,0,1,.815-2.25l-1.871-1.512a6.016,6.016,0,0,0-1.247,2.662,6.024,6.024,0,0,0-4.688,4.354l2.323.625a3.6,3.6,0,0,1,3.465-2.676Zm0,0" transform="translate(-279.97 -107.887)" fill="#b7cc31"/>
    <path id="Path_1729" data-name="Path 1729" d="M160,448h2.4v2.4H160Zm0,0" transform="translate(-135.954 -380.671)" fill="#b7cc31"/>
    <path id="Path_1730" data-name="Path 1730" d="M160,480h2.4v2.4H160Zm0,0" transform="translate(-135.954 -407.862)" fill="#b7cc31"/>
    <path id="Path_1731" data-name="Path 1731" d="M288,480h2.4v2.4H288Zm0,0" transform="translate(-244.717 -407.862)" fill="#b7cc31"/>
    <path id="Path_1732" data-name="Path 1732" d="M192,360h2.4v2.4H192Zm0,0" transform="translate(-163.145 -305.896)" fill="#b7cc31"/>
    <path id="Path_1733" data-name="Path 1733" d="M192,392h2.4v2.4H192Zm0,0" transform="translate(-163.145 -333.087)" fill="#b7cc31"/>
    <path id="Path_1734" data-name="Path 1734" d="M192,424h2.4v10.821H192Zm0,0" transform="translate(-163.145 -360.278)" fill="#b7cc31"/>
    <path id="Path_1735" data-name="Path 1735" d="M256,360h2.4v2.4H256Zm0,0" transform="translate(-217.526 -305.896)" fill="#b7cc31"/>
    <path id="Path_1736" data-name="Path 1736" d="M256,392h2.4v2.4H256Zm0,0" transform="translate(-217.526 -333.087)" fill="#b7cc31"/>
    <path id="Path_1737" data-name="Path 1737" d="M256,424h2.4v10.821H256Zm0,0" transform="translate(-217.526 -360.278)" fill="#b7cc31"/>
    <path id="Path_1738" data-name="Path 1738" d="M224,344h2.4v22.844H224Zm0,0" transform="translate(-190.335 -292.301)" fill="#b7cc31"/>
  </g>
</svg>
