<svg xmlns="http://www.w3.org/2000/svg" width="209.588" height="48" viewBox="0 0 209.588 48">
  <g id="freecharge_logo" transform="translate(0)">
    <path id="Path_946" data-name="Path 946" d="M2244.344,1361.112c-3.817-1.018-6.618-.28-8.163,2.162a12.559,12.559,0,0,0-1.754,9.349,2.84,2.84,0,0,0,3.889,2.224,5.914,5.914,0,0,0,4.105-4.35C2243.263,1367.444,2243.713,1364.29,2244.344,1361.112Zm-18.425,29.037c.379-1.672.7-3.172,1-4.415a77.507,77.507,0,0,0,8.051.261c4.167-.275,6.415-2.717,6.837-6.906.07-.737.209-1.473.363-2.522l-1.291,1.2a8.611,8.611,0,0,1-8.512,1.943,5.892,5.892,0,0,1-4.213-4.436c-1.594-5.561.886-13.406,5.616-16.717a15.8,15.8,0,0,1,5.825-2.474c3.692-.772,7.425-.259,11.229.415-.47,3.545-.919,6.977-1.4,10.409-.59,4.211-1.229,8.463-1.8,12.7-.906,6.785-5.293,11-12.15,11.5a24.28,24.28,0,0,1-9.56-.963Z" transform="translate(-2063.118 -1343.23)" fill="#b7cc31"/>
    <path id="Path_947" data-name="Path 947" d="M1480.1,1258.532c.562-4.113,1.088-7.918,1.6-11.727.2-1.48.435-2.97.484-4.458.077-2.162-1.23-3.122-3.321-2.526a5.716,5.716,0,0,0-4.015,3.656,80.176,80.176,0,0,0-1.985,8.866c-.331,1.678-.429,3.4-.7,5.08-.077.4-.534,1.032-.847,1.054-1.7.1-3.405.049-5.334.049l4.043-29.648-3.9-.569a28.6,28.6,0,0,1,.408-3.122,1.338,1.338,0,0,1,1.03-.7c2.977-.237,5.953-.4,9.229-.61l-1.984,14.037,1.27-1.087a9.728,9.728,0,0,1,7.791-2.225c3.353.422,5.053,2.905,4.609,6.663-.37,3.129-.819,6.251-1.242,9.381-.286,2.177-.638,4.339-.87,6.522-.1.981-.421,1.4-1.482,1.4C1483.332,1258.441,1481.837,1258.532,1480.1,1258.532Z" transform="translate(-1363.906 -1221.937)" fill="#b7cc31"/>
    <path id="Path_948" data-name="Path 948" d="M190.5,1243.02l4.043-8.347c.317-.666.646-1.319,1.095-2.237h-5.061c2.372-4.73,4.611-9.181,7.019-13.912h-5.321l.751-5.5c.547-.043,1-.106,1.468-.112,2.456-.042,2.878-.366,3.551-2.809.226-.827.429-1.656.667-2.476,1.405-4.725,4.57-7.406,9.456-7.877,2.1-.2,4.21,0,6.7,0-.477,2.239-.869,4.086-1.291,6.044-2.456-.2-5.034-1.067-6.97,1.087-1.482,1.65-1.573,3.769-1.67,6h6.093c-.226,2.379-.654,4.378-2.528,6.035-2.808,2.463-5.32,5.229-8.226,8.128h5.4l.282.409-15.372,15.679Z" transform="translate(-190.342 -1199.658)" fill="#b7cc31"/>
    <path id="Path_949" data-name="Path 949" d="M1767.934,1369.821a24.673,24.673,0,0,0-3.613.406,9.732,9.732,0,0,0-3.179,1.4,2.528,2.528,0,0,0-.941,3.139c.527,1.3,1.713,1.3,2.858,1.17C1765.583,1375.639,1767.914,1372.79,1767.934,1369.821Zm.568-3.973c.829-3.509-.126-4.913-3.51-4.717a59.6,59.6,0,0,0-7.1,1.242c0-1.165-.042-2.62.042-4.072,0-.281.477-.7.815-.778a22.289,22.289,0,0,1,11.069-.948c4.071.745,5.721,3.109,5.159,7.229-.457,3.336-.942,6.668-1.406,10-.07.52-.062,1.052-.1,1.677l3.642.547c.071.148.154.246.146.329-.383,3.614-.383,3.643-4.025,3.755-1.967.065-3.939,0-6.023,0l.254-2.806c-.583.475-.935.744-1.273,1.03a9.108,9.108,0,0,1-6.175,2.325c-4.724.056-7.061-3.194-5.547-7.685a8.4,8.4,0,0,1,5.2-5.35,54.8,54.8,0,0,1,7.131-1.7,10.558,10.558,0,0,1,1.692-.085Z" transform="translate(-1628.927 -1343.755)" fill="#b7cc31"/>
    <path id="Path_950" data-name="Path 950" d="M2553.456,1363.657h8.024c.537-2.5-.429-4.008-2.578-4.45a4.975,4.975,0,0,0-5.425,4.45Zm-.794,4.246c-.771,3.882.907,6.261,4.541,6.24a66.115,66.115,0,0,0,7.72-.885c0,.991.057,2.3,0,3.593a1.334,1.334,0,0,1-.827.951,21.546,21.546,0,0,1-11.054.926c-3.889-.757-6.01-2.809-6.492-6.746-.646-5.264.455-10.163,4.345-14.038a11.328,11.328,0,0,1,11.11-2.948c3.265.739,5.222,3.213,5.546,6.667a2.231,2.231,0,0,1,0,.318c-.153,1.7.1,3.585-.568,5.053-.893,1.958-3.046.7-4.6.806C2559.161,1368.07,2555.941,1367.9,2552.662,1367.9Z" transform="translate(-2357.968 -1342.237)" fill="#b7cc31"/>
    <path id="Path_951" data-name="Path 951" d="M683.733,1367.17h8.142c.541-2.386-.279-3.943-2.254-4.421C687.011,1362.125,684.535,1363.942,683.733,1367.17Zm11.49,9.673c0,.969.063,2.246,0,3.51a1.345,1.345,0,0,1-.823.941,21,21,0,0,1-10.913.92c-4.5-.822-6.69-3.509-6.753-8.593-.049-4.251.927-8.31,3.924-11.582a11.424,11.424,0,0,1,11.93-3.51c3.509.886,5.293,3.674,5.372,7.814.083,4.7-.22,5-4.839,5h-8.036c-.632,0-1.27.078-1.895.113-1.088,3.094.471,5.93,3.642,6.037A60.141,60.141,0,0,0,695.224,1376.843Z" transform="translate(-637.725 -1345.428)" fill="#b7cc31"/>
    <path id="Path_952" data-name="Path 952" d="M964.092,1366.269h8.2c.464-2.542-.269-3.911-2.289-4.41C967.516,1361.236,965.2,1362.89,964.092,1366.269Zm11.588,9.607c0,.99.055,2.268-.035,3.51a1.337,1.337,0,0,1-.773.981,21.036,21.036,0,0,1-11.994.7c-3.7-.969-5.448-3.659-5.692-7.293-.316-4.577.625-8.893,3.685-12.451a11.4,11.4,0,0,1,12.044-3.735,6.7,6.7,0,0,1,5.293,6.319,48.63,48.63,0,0,1-.282,5.424c-.049.984-.587,1.208-1.487,1.2-3.91-.045-7.82,0-11.728-.045-1.284,0-1.565.564-1.517,1.636.133,2.857,1.8,4.674,4.688,4.6C970.5,1376.677,973.033,1376.187,975.68,1375.877Z" transform="translate(-895.714 -1344.588)" fill="#b7cc31"/>
    <path id="Path_953" data-name="Path 953" d="M1255.8,1359.265c-.477,1.873-.9,3.565-1.256,4.967a29.7,29.7,0,0,0-5.529-.2,5.529,5.529,0,0,0-3.194,1.887,9.887,9.887,0,0,0-2.034,8.152c.342,2.274,1.633,3.332,3.929,3.467a13.06,13.06,0,0,0,2.563-.111c.827-.129,1.643-.41,2.553-.64,0,1.495.057,2.911-.041,4.322a1.334,1.334,0,0,1-.849.935,16.593,16.593,0,0,1-9.47.386,6.478,6.478,0,0,1-4.968-5.32c-.921-5.147,0-9.988,3.418-14.038C1244.815,1358.478,1249.995,1357.974,1255.8,1359.265Z" transform="translate(-1153.375 -1345.945)" fill="#b7cc31"/>
    <path id="Path_954" data-name="Path 954" d="M487.251,1362.383l-.086-.1-.084.088.128.1Zm-2.536,20.087h-5.937c.834-6.19,1.664-12.3,2.512-18.607l-3.908-.569c.133-1.1.2-2.1.412-3.094a1.11,1.11,0,0,1,.815-.758c2.969-.212,5.945-.351,9.019-.511-.168,1.193-.294,2.1-.42,2.955,2.1-1.93,4.267-3.616,7.494-3.265-.356,1.964-.7,3.838-1.037,5.665-.156.09-.255.2-.338.182-3.889-.4-5.7,1.846-6.415,4.912-.828,3.51-1.249,7.155-1.838,10.734C484.948,1380.89,484.869,1381.634,484.715,1382.469Z" transform="translate(-454.304 -1345.875)" fill="#b7cc31"/>
    <path id="Path_955" data-name="Path 955" d="M2058.194,1361.691l-3.892-.527c.133-1.129.2-2.225.433-3.292.057-.268.619-.582.962-.61,2.872-.19,5.743-.324,8.829-.478-.209,1.33-.384,2.4-.625,3.841,2.106-2.592,4.155-4.514,7.643-4.042-.335,1.915-.7,3.776-.988,5.613-5.152.7-6.844,2.632-7.567,8.424-.4,3.223-.885,6.436-1.341,9.719h-5.994C2056.506,1374.093,2057.333,1367.978,2058.194,1361.691Z" transform="translate(-1905.214 -1343.976)" fill="#b7cc31"/>
    <path id="Path_956" data-name="Path 956" d="M188.8,1742.38l-.224.182c.056-.085.1-.175.153-.266Z" transform="translate(-188.576 -1698.935)" fill="#b7cc31"/>
  </g>
</svg>
