<svg xmlns="http://www.w3.org/2000/svg" width="197.259" height="51.361" viewBox="0 0 197.259 51.361">
  <g id="Group_1523" data-name="Group 1523" transform="translate(-353.387 -5028.459)">
    <g id="diners-club-seeklogo.com" transform="translate(353.387 5028.459)">
      <path id="Path_915" data-name="Path 915" d="M38.739,52.154c14.068.068,26.908-11.448,26.908-25.458,0-15.319-12.841-25.908-26.908-25.9H26.633C12.4.789.679,11.38.679,26.7A25.758,25.758,0,0,0,26.633,52.154H38.739" transform="translate(-0.679 -0.793)" fill="#b7cc31"/>
      <path id="Path_916" data-name="Path 916" d="M35.942,43.716V15.9a14.881,14.881,0,0,1,0,27.818M15.67,29.805A14.929,14.929,0,0,1,25.254,15.9V43.71a14.92,14.92,0,0,1-9.584-13.9M30.6,6.294A23.51,23.51,0,1,0,54.156,29.805,23.537,23.537,0,0,0,30.6,6.294" transform="translate(-4.589 -4.171)" fill="#fff"/>
      <path id="Path_917" data-name="Path 917" d="M186.367,21.814c0-2.429-1.271-2.27-2.488-2.3v-.7c1.055.051,2.137.051,3.194.051,1.136,0,2.679-.051,4.683-.051,7.008,0,10.824,4.671,10.824,9.455,0,2.674-1.568,9.4-11.15,9.4-1.379,0-2.653-.053-3.924-.053-1.217,0-2.41.026-3.627.053v-.7c1.623-.163,2.41-.216,2.488-2.053Zm2.652,12.67c0,2.08,1.491,2.323,2.816,2.323,5.847,0,7.767-4.4,7.767-8.428,0-5.05-3.248-8.7-8.471-8.7-1.111,0-1.622.079-2.112.108Zm14.51,2.486h.513c.757,0,1.3,0,1.3-.893V28.757c0-1.188-.406-1.353-1.408-1.89v-.433c1.272-.38,2.789-.891,2.9-.972a.962.962,0,0,1,.488-.137c.134,0,.19.162.19.38v10.37c0,.893.6.893,1.354.893h.459v.7c-.921,0-1.869-.054-2.84-.054s-1.95.026-2.95.054Zm2.9-15.8a1.325,1.325,0,1,1,0-2.65,1.325,1.325,0,0,1,1.326,1.3A1.35,1.35,0,0,1,206.425,21.167Zm5.467,7.751c0-1-.3-1.268-1.569-1.781v-.513a36.586,36.586,0,0,0,3.572-1.3c.08,0,.16.055.16.27v1.757c1.545-1.106,2.872-2.026,4.687-2.026,2.3,0,3.11,1.675,3.11,3.782v6.968c0,.893.595.893,1.353.893h.488v.7c-.95,0-1.9-.054-2.869-.054s-1.95.026-2.924.054v-.7h.487c.759,0,1.3,0,1.3-.893V29.082c0-1.541-.943-2.3-2.488-2.3a7.235,7.235,0,0,0-3.142,1.3v7.994c0,.893.6.893,1.357.893h.486v.7c-.947,0-1.9-.054-2.87-.054s-1.949.026-2.922.054v-.7h.488c.758,0,1.3,0,1.3-.893Zm13.859,1.3a6.617,6.617,0,0,0,0,1.567c.159,2.565,1.815,4.671,3.977,4.671a5.19,5.19,0,0,0,3.655-1.809l.378.378c-1.245,1.648-2.788,3.052-5.005,3.052-4.305,0-5.17-4.161-5.17-5.888,0-5.3,3.571-6.862,5.464-6.862a4.293,4.293,0,0,1,4.575,4.24,3.333,3.333,0,0,1-.024.488l-.246.162Zm4.792-.865c.676,0,.755-.352.755-.676a2.291,2.291,0,0,0-2.354-2.484c-1.65,0-2.787,1.213-3.111,3.16Zm3.707,7.617h.731c.755,0,1.3,0,1.3-.893V28.488c0-.837-1-1-1.407-1.216v-.4c1.976-.838,3.059-1.541,3.306-1.541.159,0,.239.081.239.353v2.43h.058c.674-1.053,1.813-2.783,3.463-2.783a1.474,1.474,0,0,1,1.542,1.432,1.312,1.312,0,0,1-1.27,1.38c-.843,0-.843-.65-1.789-.65a2.283,2.283,0,0,0-1.975,2.243v6.345c0,.893.54.893,1.3.893h1.515v.7c-1.489-.028-2.622-.054-3.787-.054-1.109,0-2.246.026-3.221.054Zm10.42-3.053c.352,1.782,1.434,3.3,3.411,3.3a1.91,1.91,0,0,0,2.189-1.917c0-3.188-5.9-2.163-5.9-6.51,0-1.514,1.22-3.459,4.2-3.459a7.123,7.123,0,0,1,3.084.785l.191,2.753h-.623a2.776,2.776,0,0,0-2.95-2.673,1.9,1.9,0,0,0-2.111,1.782c0,3.163,6.279,2.188,6.279,6.429,0,1.782-1.435,3.675-4.656,3.675a7.139,7.139,0,0,1-3.3-.918l-.3-3.107Zm32.206-10.211H276.2c-.515-3.158-2.762-4.429-5.792-4.429-3.114,0-7.635,2.079-7.635,8.562,0,5.459,3.9,9.375,8.067,9.375a5.5,5.5,0,0,0,5.442-4.674l.621.162-.621,3.944a15.19,15.19,0,0,1-5.983,1.433c-6.331,0-10.336-4.079-10.336-10.157,0-5.538,4.951-9.51,10.256-9.51a19.551,19.551,0,0,1,6.386,1.434Zm.977,13.264h.511c.76,0,1.3,0,1.3-.893V21.033c0-1.757-.406-1.811-1.434-2.108v-.432a17.225,17.225,0,0,0,2.787-1.163,2.868,2.868,0,0,1,.593-.3c.165,0,.219.164.219.38V36.076c0,.893.595.893,1.354.893h.457v.7c-.917,0-1.865-.054-2.84-.054s-1.948.026-2.95.054Zm17.378-.785c0,.488.3.514.756.514.325,0,.729-.026,1.083-.026v.568a27.569,27.569,0,0,0-3.9.836L293.033,38V35.809c-1.621,1.323-2.868,2.269-4.792,2.269a2.916,2.916,0,0,1-2.975-3.213V27.947c0-.7-.108-1.378-1.622-1.513v-.514c.975-.026,3.137-.188,3.49-.188.3,0,.3.188.3.783v6.968c0,.812,0,3.134,2.353,3.134a6.042,6.042,0,0,0,3.273-1.646V27.7c0-.539-1.3-.835-2.27-1.105v-.486c2.433-.163,3.951-.378,4.22-.378.219,0,.219.188.219.487Zm5.385-8.913a6.84,6.84,0,0,1,4.033-1.945c3.14,0,5.032,2.73,5.032,5.673,0,3.538-2.6,7.078-6.469,7.078a8,8,0,0,1-3.761-.945l-.811.62-.566-.3a31.973,31.973,0,0,0,.378-4.808V21.033c0-1.757-.408-1.811-1.436-2.108v-.432a17.136,17.136,0,0,0,2.788-1.163,2.813,2.813,0,0,1,.6-.3c.162,0,.216.164.216.38Zm0,7.346a2.909,2.909,0,0,0,2.787,2.757c2.9,0,4.113-2.838,4.113-5.243,0-2.917-2.217-5.346-4.329-5.346a4.167,4.167,0,0,0-2.571,1.27ZM183.848,53.377h.208c.529,0,1.089-.071,1.089-.837v-7.7c0-.767-.56-.839-1.089-.839h-.208V43.56c.575,0,1.459.058,2.182.058s1.618-.058,2.31-.058V44h-.206c-.528,0-1.089.073-1.089.839v7.7c0,.765.561.837,1.089.837h.206v.443c-.706,0-1.592-.058-2.326-.058s-1.592.058-2.167.058Zm14.61-2.454.029-.029V45.383A1.214,1.214,0,0,0,197.206,44h-.325V43.56c.693,0,1.371.058,2.062.058.6,0,1.21-.058,1.812-.058V44h-.22c-.62,0-1.312.118-1.312,1.866v6.689a9.751,9.751,0,0,0,.087,1.483h-.559L191.168,45.6v6.057c0,1.279.248,1.718,1.383,1.718h.25v.443c-.633,0-1.265-.058-1.9-.058-.661,0-1.339.058-2,.058v-.443h.206c1.016,0,1.324-.689,1.324-1.864V45.322A1.32,1.32,0,0,0,189.091,44H188.9V43.56c.559,0,1.133.058,1.691.058.443,0,.871-.058,1.312-.058Zm4.5-6.628c-1.106,0-1.148.265-1.369,1.336h-.441c.057-.411.132-.822.177-1.249a8.668,8.668,0,0,0,.088-1.248h.353c.119.442.487.426.886.426h7.6c.4,0,.765-.014.8-.456l.351.059c-.057.4-.117.793-.161,1.191-.027.4-.027.794-.027,1.19l-.443.163c-.03-.543-.1-1.412-1.09-1.412h-2.415v7.819c0,1.134.516,1.263,1.222,1.263h.279v.443c-.574,0-1.605-.058-2.4-.058-.884,0-1.915.058-2.49.058v-.443h.279c.813,0,1.223-.072,1.223-1.232v-7.85Zm8.909,9.082h.207c.53,0,1.09-.071,1.09-.837v-7.7c0-.767-.56-.839-1.09-.839h-.207V43.56c.9,0,2.432.058,3.666.058s2.768-.058,3.769-.058c-.025.631-.011,1.6.032,2.249l-.444.118c-.071-.955-.247-1.719-1.794-1.719h-2.045v3.85h1.75c.883,0,1.076-.5,1.163-1.294h.441q-.043.862-.044,1.72c0,.56.015,1.118.044,1.676l-.441.087c-.087-.881-.132-1.454-1.149-1.454h-1.764v3.424c0,.955.85.955,1.793.955,1.768,0,2.548-.118,2.99-1.792l.412.1c-.192.781-.368,1.558-.5,2.338-.944,0-2.637-.058-3.961-.058s-3.08.058-3.919.058Zm10.367-8.26c0-1.072-.589-1.116-1.047-1.116h-.265V43.56c.471,0,1.384.059,2.283.059.882,0,1.59-.059,2.37-.059,1.855,0,3.506.5,3.506,2.589a2.777,2.777,0,0,1-2.047,2.587l2.518,3.76a1.633,1.633,0,0,0,1.428.881v.444c-.486,0-.958-.058-1.443-.058-.456,0-.929.058-1.383.058a40.817,40.817,0,0,1-3.065-4.764h-.97V52.2c0,1.133.529,1.174,1.205,1.174h.266v.444c-.841,0-1.692-.058-2.532-.058-.708,0-1.4.058-2.136.058v-.444h.265c.547,0,1.047-.246,1.047-.791Zm1.885,3.409h.719c1.474,0,2.267-.557,2.267-2.292a2.008,2.008,0,0,0-2.151-2.144,7.547,7.547,0,0,0-.836.058Zm16.86,2.4.026-.029V45.383A1.212,1.212,0,0,0,239.729,44h-.323V43.56c.692,0,1.367.058,2.061.058.6,0,1.205-.058,1.814-.058V44h-.223c-.618,0-1.31.118-1.31,1.866v6.689a9.653,9.653,0,0,0,.087,1.483h-.559L233.693,45.6v6.057c0,1.279.249,1.718,1.383,1.718h.25v.443c-.632,0-1.266-.058-1.9-.058-.665,0-1.342.058-2,.058v-.443h.2c1.018,0,1.327-.689,1.327-1.864V45.322A1.319,1.319,0,0,0,231.616,44h-.192V43.56c.558,0,1.135.058,1.694.058.438,0,.867-.058,1.31-.058Zm4.667.8a5.833,5.833,0,0,0-.327,1.146c0,.442.619.513,1.1.513h.164v.443c-.59-.032-1.191-.057-1.785-.057-.529,0-1.056.025-1.588.057v-.443h.089a1.33,1.33,0,0,0,1.279-.956l2.359-6.744a12.484,12.484,0,0,0,.545-1.825,7.539,7.539,0,0,0,1.339-.63.32.32,0,0,1,.118-.031.1.1,0,0,1,.1.045c.044.117.085.25.133.367l2.709,7.688c.176.514.352,1.057.542,1.5a.938.938,0,0,0,.975.585h.088v.443c-.663-.032-1.327-.057-2.032-.057-.721,0-1.46.025-2.211.057v-.443h.164c.337,0,.913-.057.913-.425a4.7,4.7,0,0,0-.3-1.058l-.573-1.7h-3.343Zm2.149-6.512h-.03l-1.37,4.16h2.752Zm6.347-.912c-1.105,0-1.149.265-1.371,1.336h-.442c.058-.411.132-.822.178-1.249a8.774,8.774,0,0,0,.086-1.248h.355c.117.442.486.426.882.426h7.6c.4,0,.764-.014.794-.456l.353.059c-.057.4-.116.793-.16,1.191s-.033.794-.033,1.19l-.44.163c-.027-.543-.1-1.412-1.088-1.412h-2.416v7.819c0,1.134.517,1.263,1.222,1.263h.28v.443c-.574,0-1.6-.058-2.4-.058-.882,0-1.915.058-2.489.058v-.443h.279c.812,0,1.224-.072,1.224-1.232v-7.85Zm8.979,9.082h.206c.532,0,1.089-.071,1.089-.837v-7.7c0-.767-.557-.839-1.089-.839h-.206V43.56c.576,0,1.458.058,2.178.058.738,0,1.622-.058,2.315-.058V44h-.206c-.531,0-1.092.073-1.092.839v7.7c0,.765.561.837,1.092.837h.206v.443c-.708,0-1.592-.058-2.327-.058s-1.59.058-2.166.058Zm10.366-10.037c3.14,0,5.641,1.941,5.641,5.072a5.4,5.4,0,0,1-5.565,5.628,5.2,5.2,0,0,1-5.509-5.276A5.351,5.351,0,0,1,273.491,43.341Zm.222,10.053c2.858,0,3.355-2.515,3.355-4.657s-1.16-4.75-3.606-4.75c-2.578,0-3.343,2.294-3.343,4.261C270.12,50.878,271.327,53.393,273.714,53.393Zm15.343-2.471.03-.029V45.383A1.215,1.215,0,0,0,287.8,44h-.319V43.56c.689,0,1.368.058,2.057.058.607,0,1.21-.058,1.815-.058V44h-.223c-.617,0-1.31.118-1.31,1.866v6.689a9.459,9.459,0,0,0,.088,1.483h-.559L281.767,45.6v6.057c0,1.279.251,1.718,1.383,1.718h.252v.443c-.634,0-1.265-.058-1.9-.058-.663,0-1.342.058-2.005.058v-.443h.208c1.017,0,1.324-.689,1.324-1.864V45.322A1.317,1.317,0,0,0,279.69,44H279.5V43.56c.56,0,1.135.058,1.694.058.441,0,.867-.058,1.31-.058Zm4.665.8a6.132,6.132,0,0,0-.323,1.146c0,.442.62.513,1.1.513h.165v.443c-.59-.032-1.195-.057-1.784-.057-.531,0-1.06.025-1.588.057v-.443h.083a1.331,1.331,0,0,0,1.282-.956l2.359-6.744a11.962,11.962,0,0,0,.543-1.825,7.575,7.575,0,0,0,1.343-.63.306.306,0,0,1,.116-.031c.044,0,.072,0,.1.045.044.117.09.25.134.367l2.708,7.688c.177.514.353,1.057.546,1.5a.934.934,0,0,0,.972.585h.09v.443c-.664-.032-1.327-.057-2.035-.057s-1.457.025-2.209.057v-.443h.162c.337,0,.915-.057.915-.425a4.731,4.731,0,0,0-.3-1.058l-.572-1.7h-3.343Zm2.152-6.512h-.029l-1.372,4.16h2.756Zm9.411,7.173c0,.589.409.764.88.824a10.742,10.742,0,0,0,1.946-.03,2.108,2.108,0,0,0,1.412-.794,3.346,3.346,0,0,0,.457-1.058h.427c-.162.838-.369,1.662-.546,2.5-1.293,0-2.593-.057-3.886-.057s-2.592.057-3.888.057v-.443h.2c.532,0,1.108-.071,1.108-.984V44.84c0-.766-.576-.839-1.108-.839h-.2V43.56c.779,0,1.546.058,2.325.058.754,0,1.489-.058,2.24-.058V44h-.37c-.558,0-1,.016-1,.794Z" transform="translate(-113.149 -10.764)" fill="#a3bb0a"/>
    </g>
  </g>
</svg>
