<svg xmlns="http://www.w3.org/2000/svg" width="122.228" height="87.855" viewBox="0 0 122.228 87.855">
  <g id="Group_1524" data-name="Group 1524" transform="translate(-722.164 -5018.625)">
    <g id="amex-svgrepo-com" transform="translate(722.164 5018.625)">
      <path id="Path_918" data-name="Path 918" d="M7.639,41.025H114.588a7.643,7.643,0,0,1,7.639,7.643v72.573a7.642,7.642,0,0,1-7.639,7.639H7.639A7.639,7.639,0,0,1,0,121.241V48.668A7.643,7.643,0,0,1,7.639,41.025Z" transform="translate(0 -41.025)" fill="#b7cc31"/>
      <path id="Path_919" data-name="Path 919" d="M30.305,113.966l-12.07,26.711h14.45l1.791-4.259h4.095l1.791,4.259h15.9v-3.25l1.417,3.25h8.227l1.417-3.319v3.319h33.078l4.022-4.148,3.766,4.148,16.99.034L113.076,127.4l12.108-13.43H108.458l-3.915,4.072-3.648-4.072H64.911l-3.09,6.894-3.162-6.894H44.239v3.14l-1.6-3.14Zm2.8,3.793h7.043l8.006,18.113V117.759h7.716l6.184,12.987,5.7-12.987h7.677v19.167H70.755l-.038-15.019-6.81,15.019H59.728l-6.849-15.019v15.019h-9.61l-1.822-4.3H31.6l-1.818,4.293H24.637Zm46.6,0H98.7l5.81,6.275,6-6.275h5.81l-8.827,9.633,8.827,9.522h-6.073l-5.81-6.348L98.4,136.914H79.7V117.759ZM36.527,121l-3.243,7.655h6.482Zm47.864.726v3.5H94.754v3.9H84.391v3.82H96.014l5.4-5.626-5.172-5.6H84.391Z" transform="translate(-10.596 -83.409)" fill="#fff"/>
    </g>
  </g>
</svg>
