<svg xmlns="http://www.w3.org/2000/svg" width="513.801" height="512.893" viewBox="0 0 513.801 512.893">
  <g id="outline" transform="translate(-15.996 -16)">
    <path id="Path_1409" data-name="Path 1409" d="M433.3,324.2l.9-6.315a51.5,51.5,0,0,0-29.371-54.261l-54.221-25.3a34.1,34.1,0,0,1-10.6-7.707l-23.1-24.839a135.238,135.238,0,0,0-17.5-15.789l-48.678-36.757-4.661-51.253A40.748,40.748,0,0,0,234.33,76.9L233.3,75.867a40.632,40.632,0,0,0-43.869-9l-12.624,5.05a33.5,33.5,0,0,0-5.311,2.7L115.391,18.508a8.563,8.563,0,0,0-12.11,0L18.505,103.284a8.563,8.563,0,0,0-.277,11.821L64.67,166.113l-.749.749a29.958,29.958,0,0,0,21.194,51.152c.107,0,.214-.006.326-.007a29.913,29.913,0,0,0,29.95,30.28c.107,0,.214-.006.321-.008a29.915,29.915,0,0,0,29.95,30.284c.107,0,.214-.007.326-.009a29.971,29.971,0,0,0,44.966,26.263l12.163,13.359,1.275,103.676a29.958,29.958,0,0,0,47.353,24.405,29.939,29.939,0,0,0,42.816,8.563,29.954,29.954,0,0,0,38.28,11.235v7.172a29.971,29.971,0,0,0,56.946,13.044l39.726,40.082a8.564,8.564,0,0,0,6.087,2.54h.3a8.563,8.563,0,0,0,6.189-2.969l85.633-99.39a8.563,8.563,0,0,0-.542-11.752ZM195.794,82.765a23.521,23.521,0,0,1,25.4,5.211L222.216,89a23.592,23.592,0,0,1,6.8,14.52l2.861,31.47-13.4-13.4-.321-.321a8.551,8.551,0,0,0-7.778-2.329H189.163a16.14,16.14,0,0,1-5.994-31.124ZM76.032,197.135a12.86,12.86,0,0,1,0-18.166l30.275-30.277a12.845,12.845,0,1,1,18.166,18.166L94.2,197.136a12.861,12.861,0,0,1-18.166,0Zm30.275,30.277a12.86,12.86,0,0,1,0-18.166l30.277-30.275a12.845,12.845,0,1,1,18.166,18.166l-30.277,30.275a12.861,12.861,0,0,1-18.166,0Zm39.359,34.039a12.845,12.845,0,0,1-9.082-21.928l30.275-30.275a12.845,12.845,0,0,1,18.166,18.166L154.75,257.688a12.763,12.763,0,0,1-9.083,3.757Zm30.275,30.275A12.845,12.845,0,0,1,166.86,269.8l30.275-30.277A12.845,12.845,0,1,1,215.3,257.688l-30.275,30.275a12.763,12.763,0,0,1-9.083,3.761ZM375.658,473.231a12.845,12.845,0,1,1-25.69,0V391.88a8.563,8.563,0,1,0-17.127,0v47.1a12.845,12.845,0,1,1-25.69,0V383.317a8.563,8.563,0,0,0-17.127,0v47.1a12.845,12.845,0,0,1-25.69,0V374.753a8.563,8.563,0,0,0-17.127,0v47.1a12.845,12.845,0,1,1-25.69,0L220.2,314.69a8.563,8.563,0,0,0-2.23-5.645l-14.207-15.6,23.641-23.649a29.952,29.952,0,0,0-21.5-51.143c0-.107.008-.214.008-.321a29.938,29.938,0,0,0-30.293-29.95A29.9,29.9,0,0,0,145.341,158.1,29.952,29.952,0,0,0,94.2,136.589l-17.4,17.4L36.4,109.613,109.34,36.674l50.477,50.477a33.261,33.261,0,0,0,29.35,48.918h19.564L236.5,163.835a8.574,8.574,0,0,0,.807.7c.031.025.058.054.089.077L289.1,203.643a118.089,118.089,0,0,1,15.276,13.784l23.1,24.84a51.139,51.139,0,0,0,15.893,11.567l54.216,25.3a34.467,34.467,0,0,1,19.66,36.32l-.471,3.3H384.221a8.563,8.563,0,0,0-8.563,8.563Zm59.5,34.489-42.376-42.756V335.885h27.961l88.713,85.6Z" transform="translate(0 0)" fill="#b7cc31"/>
    <path id="Path_1410" data-name="Path 1410" d="M314.508,161.665a8.563,8.563,0,0,0,0,12.111l25.69,25.69a8.563,8.563,0,0,0,12.111-12.111l-25.69-25.69A8.563,8.563,0,0,0,314.508,161.665Z" transform="translate(20.842 10.08)" fill="#b7cc31"/>
    <path id="Path_1411" data-name="Path 1411" d="M282.508,129.665a8.563,8.563,0,0,0,0,12.111l8.563,8.563a8.563,8.563,0,1,0,12.111-12.111l-8.563-8.563A8.563,8.563,0,0,0,282.508,129.665Z" transform="translate(18.589 7.827)" fill="#b7cc31"/>
  </g>
</svg>
