<svg xmlns="http://www.w3.org/2000/svg" width="142.31" height="142.31" viewBox="0 0 142.31 142.31">
  <g id="planning" transform="translate(2 2)">
    <g id="Group_1234" data-name="Group 1234">
      <g id="Group_1233" data-name="Group 1233">
        <path id="Path_2510" data-name="Path 2510" d="M130.205,89.846V12.156A12.17,12.17,0,0,0,118.049,0H28.634A12.17,12.17,0,0,0,16.478,12.156v4.322H12.156a12.156,12.156,0,1,0,0,24.312h4.322V57H12.156a12.156,12.156,0,1,0,0,24.312h4.322V97.519H12.156a12.156,12.156,0,0,0,0,24.312h4.322v4.052a12.5,12.5,0,0,0,3.5,8.666,11.907,11.907,0,0,0,8.659,3.761h81.311a28.541,28.541,0,0,0,20.26-48.463ZM12.156,32.686a4.052,4.052,0,1,1,0-8.1H20.53a4.052,4.052,0,1,1,0,8.1Zm0,40.52a4.052,4.052,0,0,1,0-8.1H20.53a4.052,4.052,0,0,1,0,8.1Zm8.374,40.52H12.156a4.052,4.052,0,1,1,0-8.1H20.53a4.052,4.052,0,1,1,0,8.1Zm8.1,16.478a4.3,4.3,0,0,1-4.052-4.322v-4.749a12.154,12.154,0,0,0,0-22.918v-17.6a12.154,12.154,0,0,0,0-22.918v-17.6a12.154,12.154,0,0,0,0-22.918V12.156A4.057,4.057,0,0,1,28.634,8.1h89.415a4.057,4.057,0,0,1,4.052,4.052v71.9a28.358,28.358,0,0,0-40.52,25.624,28.682,28.682,0,0,0,8.614,20.53Zm81.311,0a20.4,20.4,0,1,1,20.26-20.53A20.42,20.42,0,0,1,109.945,130.205Z" fill="#f6ca50" stroke="#fff" stroke-width="4"/>
      </g>
    </g>
    <g id="Group_1236" data-name="Group 1236" transform="translate(81.581 32.686)">
      <g id="Group_1235" data-name="Group 1235">
        <path id="Path_2511" data-name="Path 2511" d="M330.364,121H306.052a4.052,4.052,0,1,0,0,8.1h24.312a4.052,4.052,0,0,0,0-8.1Z" transform="translate(-302 -121)" fill="#f6ca50" stroke="#fff" stroke-width="4"/>
      </g>
    </g>
    <g id="Group_1238" data-name="Group 1238" transform="translate(81.581 65.103)">
      <g id="Group_1237" data-name="Group 1237">
        <path id="Path_2512" data-name="Path 2512" d="M330.364,241H306.052a4.052,4.052,0,0,0,0,8.1h24.312a4.052,4.052,0,0,0,0-8.1Z" transform="translate(-302 -241)" fill="#f6ca50" stroke="#fff" stroke-width="4"/>
      </g>
    </g>
    <g id="Group_1240" data-name="Group 1240" transform="translate(105.893 97.519)">
      <g id="Group_1239" data-name="Group 1239">
        <path id="Path_2513" data-name="Path 2513" d="M404.156,369.1H400.1v-4.052a4.052,4.052,0,1,0-8.1,0v8.1a4.052,4.052,0,0,0,4.052,4.052h8.1a4.052,4.052,0,0,0,0-8.1Z" transform="translate(-392 -361)" fill="#f6ca50" stroke="#fff" stroke-width="4"/>
      </g>
    </g>
    <g id="Group_1242" data-name="Group 1242" transform="translate(39.651 24.582)">
      <g id="Group_1241" data-name="Group 1241">
        <path id="Path_2514" data-name="Path 2514" d="M179.151,92.186a4.051,4.051,0,0,0-5.73,0L160.078,105.53,153.7,99.151a4.052,4.052,0,0,0-5.73,5.73l9.244,9.244a4.052,4.052,0,0,0,5.73,0l16.208-16.208A4.052,4.052,0,0,0,179.151,92.186Z" transform="translate(-146.783 -91)" fill="#f6ca50" stroke="#fff" stroke-width="4"/>
      </g>
    </g>
    <g id="Group_1244" data-name="Group 1244" transform="translate(39.651 56.999)">
      <g id="Group_1243" data-name="Group 1243">
        <path id="Path_2515" data-name="Path 2515" d="M179.151,212.186a4.051,4.051,0,0,0-5.73,0L160.078,225.53l-6.378-6.378a4.052,4.052,0,0,0-5.73,5.73l9.244,9.244a4.052,4.052,0,0,0,5.73,0l16.208-16.208A4.052,4.052,0,0,0,179.151,212.186Z" transform="translate(-146.783 -211)" fill="#f6ca50" stroke="#fff" stroke-width="4"/>
      </g>
    </g>
    <g id="Group_1246" data-name="Group 1246" transform="translate(39.651 89.415)">
      <g id="Group_1245" data-name="Group 1245">
        <path id="Path_2516" data-name="Path 2516" d="M179.151,332.186a4.051,4.051,0,0,0-5.73,0L160.078,345.53l-6.378-6.378a4.052,4.052,0,0,0-5.73,5.73l9.244,9.243a4.052,4.052,0,0,0,5.73,0l16.208-16.208A4.052,4.052,0,0,0,179.151,332.186Z" transform="translate(-146.783 -331)" fill="#f6ca50" stroke="#fff" stroke-width="4"/>
      </g>
    </g>
  </g>
</svg>
