<svg xmlns="http://www.w3.org/2000/svg" width="148.688" height="131.004" viewBox="0 0 148.688 131.004">
  <g id="product" transform="translate(-1 -1)">
    <path id="Path_2527" data-name="Path 2527" d="M52,57h.618v.618H52Z" transform="translate(94.289 73.15)" fill="#f6ca50"/>
    <path id="Path_2528" data-name="Path 2528" d="M48,57h.618v.618H48Z" transform="translate(68.988 73.15)" fill="#f6ca50"/>
    <path id="Path_2529" data-name="Path 2529" d="M44,57h.618v.618H44Z" transform="translate(63.116 73.15)" fill="#f6ca50"/>
    <path id="Path_2530" data-name="Path 2530" d="M44,53h3.09v.618H44Z" transform="translate(99.817 75.914)" fill="#f6ca50"/>
    <path id="Path_2531" data-name="Path 2531" d="M149.687,24.243c0-3.495-3.228-6.339-7.195-6.339V13.678c3.967,0,7.195-2.844,7.195-6.339S146.46,1,142.493,1H104.122c-3.967,0-7.195,2.844-7.195,6.339s3.228,6.339,7.195,6.339V17.9a7.181,7.181,0,0,0-6.753,4.226H94.529c-6.612,0-11.991,4.739-11.991,10.565V77.067h-4.8V32.695c0-5.825-5.379-10.565-11.991-10.565h-2.4V7.339C63.353,3.844,60.125,1,56.158,1H8.195C4.228,1,1,3.844,1,7.339V36.921c0,3.495,3.228,6.339,7.195,6.339H56.158c3.967,0,7.195-2.844,7.195-6.339V26.356h2.4c3.967,0,7.195,2.844,7.195,6.339V77.067h-4.8V66.5c0-5.825-5.379-10.565-11.991-10.565H48.721c-1.115-4.815-5.957-8.452-11.749-8.452H17.787C11.175,47.485,5.8,52.225,5.8,58.05s5.379,10.565,11.991,10.565H48.964V60.163h7.195c3.967,0,7.195,2.844,7.195,6.339V77.067H13.907L1.916,98.2H12.991V132H137.7V98.2h11.075L136.78,77.067H96.927V70.728c0-3.495,3.228-6.339,7.195-6.339h2.64c1.115,4.815,5.957,8.452,11.749,8.452,6.612,0,11.991-4.739,11.991-10.565s-5.379-10.565-11.991-10.565c-5.789,0-10.634,3.636-11.749,8.452h-2.64c-6.612,0-11.991,4.739-11.991,10.565v6.339h-4.8V32.695c0-3.495,3.228-6.339,7.195-6.339h2.839a7.181,7.181,0,0,0,6.753,4.226v4.226c-3.967,0-7.195,2.844-7.195,6.339s3.228,6.339,7.195,6.339h38.371c3.967,0,7.195-2.844,7.195-6.339s-3.228-6.339-7.195-6.339V30.582C146.46,30.582,149.687,27.738,149.687,24.243ZM58.556,36.921a2.27,2.27,0,0,1-2.4,2.113H8.195a2.27,2.27,0,0,1-2.4-2.113V7.339a2.27,2.27,0,0,1,2.4-2.113H56.158a2.27,2.27,0,0,1,2.4,2.113ZM44.167,64.389H17.787c-3.967,0-7.195-2.844-7.195-6.339s3.228-6.339,7.195-6.339H36.973c3.967,0,7.195,2.844,7.195,6.339Zm74.344-8.452c3.967,0,7.195,2.844,7.195,6.339s-3.228,6.339-7.195,6.339-7.195-2.844-7.195-6.339S114.544,55.937,118.511,55.937ZM16.871,81.293H52.278L45.083,93.971H9.677Zm.916,16.9h30.26L56.158,83.9v43.874H17.787ZM132.9,127.778H60.955V83.9L69.065,98.2H132.9Zm8.111-33.808H72.029L64.835,81.293h68.981ZM101.724,7.339a2.27,2.27,0,0,1,2.4-2.113h38.371a2.27,2.27,0,0,1,2.4,2.113,2.27,2.27,0,0,1-2.4,2.113H104.122A2.27,2.27,0,0,1,101.724,7.339Zm7.195,6.339H137.7V17.9H108.918Zm-7.195,10.565a2.27,2.27,0,0,1,2.4-2.113h38.371a2.27,2.27,0,0,1,2.4,2.113,2.27,2.27,0,0,1-2.4,2.113H104.122A2.27,2.27,0,0,1,101.724,24.243Zm43.167,16.9a2.27,2.27,0,0,1-2.4,2.113H104.122a2.13,2.13,0,1,1,0-4.226h38.371A2.27,2.27,0,0,1,144.891,41.146ZM137.7,34.808H108.918V30.582H137.7Z" fill="#f6ca50"/>
    <path id="Path_2532" data-name="Path 2532" d="M8.708,5.618H7.472v.618H6.236v.618H5V8.708h5.562V5H8.708ZM7.472,6.854V8.09H6.854V6.854Zm-1.854.618h.618V8.09H5.618ZM8.09,8.09V6.236h.618V8.09ZM9.326,5.618h.618V8.09H9.326Z" transform="translate(-2.764 -2.764)" fill="#f6ca50"/>
    <path id="Path_2533" data-name="Path 2533" d="M7,27h.618v.618H7Z" transform="translate(-4.146 30.501)" fill="#f6ca50"/>
    <path id="Path_2534" data-name="Path 2534" d="M11,27h.618v.618H11Z" transform="translate(-6.91 30.501)" fill="#f6ca50"/>
    <path id="Path_2535" data-name="Path 2535" d="M15,27h.618v.618H15Z" transform="translate(20.55 30.501)" fill="#f6ca50"/>
    <path id="Path_2536" data-name="Path 2536" d="M53,41h.618v.618H53Z" transform="translate(93.598 46.924)" fill="#f6ca50"/>
    <path id="Path_2537" data-name="Path 2537" d="M49,41h.618v.618H49Z" transform="translate(70.456 46.924)" fill="#f6ca50"/>
    <path id="Path_2538" data-name="Path 2538" d="M45,41h.618v.618H45Z" transform="translate(64.584 46.924)" fill="#f6ca50"/>
    <path id="Path_2539" data-name="Path 2539" d="M10,49h.618v.618H10Z" transform="translate(-6.219 56.309)" fill="#f6ca50"/>
    <path id="Path_2540" data-name="Path 2540" d="M10,53h.618v.618H10Z" transform="translate(-6.219 75.914)" fill="#f6ca50"/>
    <path id="Path_2541" data-name="Path 2541" d="M10,57h.618v.618H10Z" transform="translate(-6.219 73.15)" fill="#f6ca50"/>
  </g>
</svg>
