<svg xmlns="http://www.w3.org/2000/svg" width="246.224" height="229.368" viewBox="0 0 246.224 229.368">
  <g id="satisfaction" transform="translate(3 -14.962)">
    <path id="Path_2044" data-name="Path 2044" d="M216.416,392.549H23.808a23.808,23.808,0,1,0,0,47.617H216.416a23.808,23.808,0,1,0,0-47.617ZM14.076,416.357a9.744,9.744,0,0,1,9.733-9.733H147.69V426.09H23.808a9.743,9.743,0,0,1-9.733-9.733Zm202.34,9.733h-54.65V406.625h54.65a9.733,9.733,0,1,1,0,19.466Z" transform="translate(0 -198.836)" fill="#b7cc31" stroke="#fff" stroke-width="6"/>
    <path id="Path_2045" data-name="Path 2045" d="M291.294,212.979H277.218a23.86,23.86,0,1,0,47.721,0H310.863a9.785,9.785,0,1,1-19.569,0Z" transform="translate(-147.151 -103.518)" fill="#b7cc31" stroke="#fff" stroke-width="6"/>
    <path id="Path_2046" data-name="Path 2046" d="M277.419,156.179h13.457v14.076H277.419Z" transform="translate(-147.257 -73.367)" fill="#b7cc31" stroke="#fff" stroke-width="6"/>
    <path id="Path_2047" data-name="Path 2047" d="M349.939,156.179H363.4v14.076H349.939Z" transform="translate(-185.752 -73.367)" fill="#b7cc31" stroke="#fff" stroke-width="6"/>
    <path id="Path_2048" data-name="Path 2048" d="M128.677,127.583l7.5-7.5a54.772,54.772,0,0,0,37.027,37.812l15.787,27.055,15.787-27.055a54.852,54.852,0,0,0-13.5-107.333,33.224,33.224,0,0,0-56.723-22.878l-5.882,5.882-5.882-5.882A33.241,33.241,0,0,0,75.785,74.692Zm101.089-22.225a40.622,40.622,0,0,1-31.248,39.653l-2.925.7-6.6,11.309-6.6-11.309-2.925-.7a40.776,40.776,0,1,1,50.3-39.653ZM85.738,37.635a19.187,19.187,0,0,1,27.1,0L128.677,53.47l15.835-15.835a19.167,19.167,0,0,1,32.71,14.15,54.958,54.958,0,0,0-42.978,50.326l-5.566,5.566L85.738,64.739a19.186,19.186,0,0,1,0-27.1Z" transform="translate(-35.068)" fill="#b7cc31" stroke="#fff" stroke-width="6"/>
  </g>
</svg>
