<svg xmlns="http://www.w3.org/2000/svg" width="256.712" height="236.692" viewBox="0 0 256.712 236.692">
  <g id="Support_service" data-name="Support service" transform="translate(-1 -6)">
    <path id="Path_2505" data-name="Path 2505" d="M254.392,54.375a17.047,17.047,0,0,0-23.29-6.268l-41.609,24.02a16.915,16.915,0,0,0-9.639-6.951L116.188,48.106a29.87,29.87,0,0,0-14.978-.128L78.808,53.6V46.267A4.267,4.267,0,0,0,74.541,42H40.4a4.267,4.267,0,0,0-4.267,4.267v4.267H6.267A4.267,4.267,0,0,0,2,54.8v59.74a4.267,4.267,0,0,0,4.267,4.267h29.87v4.267a4.267,4.267,0,0,0,4.267,4.267H74.541a4.267,4.267,0,0,0,4.267-4.267v-5.9l5.488,2.744a29.985,29.985,0,0,0,13.356,3.153h63.909a29.917,29.917,0,0,0,14.935-4l71.688-41.391A17.115,17.115,0,0,0,254.392,54.375Zm-243.858,55.9V59.068h25.6v51.205Zm59.74,8.534h-25.6V50.534h25.6ZM243.9,70.308,172.216,111.7a21.335,21.335,0,0,1-10.668,2.859h-63.9a21.451,21.451,0,0,1-9.537-2.253l-9.307-4.668V62.405l24.468-6.119a21.442,21.442,0,0,1,10.7.09l63.665,17.068a8.533,8.533,0,1,1-4.417,16.485L122.333,76.282a4.267,4.267,0,1,0-2.206,8.244l50.885,13.655a17.252,17.252,0,0,0,4.446.589,16.864,16.864,0,0,0,16.919-18.421l42.978-24.813a8.684,8.684,0,0,1,11.632,3.124A8.568,8.568,0,0,1,243.9,70.308Z" transform="translate(0 114.349)" fill="#b7cc31" stroke="#fff" stroke-width="2"/>
    <path id="Path_2506" data-name="Path 2506" d="M32.267,93.075H48.282c.243.614.486,1.208.742,1.784L37.7,106.188a4.267,4.267,0,0,0,0,6.034l18.093,18.093a4.267,4.267,0,0,0,6.034,0L73.15,118.99c.58.252,1.173.5,1.788.742v16.015a4.267,4.267,0,0,0,4.267,4.267h25.6a4.267,4.267,0,0,0,4.267-4.267V119.732c.614-.243,1.208-.491,1.788-.742l11.325,11.325a4.391,4.391,0,0,0,6.034,0l18.093-18.093a4.267,4.267,0,0,0,0-6.034L134.99,94.859c.256-.576.5-1.169.742-1.784h16.015a4.267,4.267,0,0,0,4.267-4.267v-25.6a4.267,4.267,0,0,0-4.267-4.267H135.732c-.243-.614-.486-1.208-.742-1.788l11.325-11.325a4.267,4.267,0,0,0,0-6.034L128.222,21.7a4.267,4.267,0,0,0-6.034,0L110.863,33.024c-.58-.252-1.173-.5-1.788-.742V16.267A4.267,4.267,0,0,0,104.808,12h-25.6a4.267,4.267,0,0,0-4.267,4.267V32.282c-.614.243-1.208.491-1.788.742L61.825,21.7a4.391,4.391,0,0,0-6.034,0L37.7,39.792a4.267,4.267,0,0,0,0,6.034L49.024,57.15c-.256.58-.5,1.173-.742,1.788H32.267A4.267,4.267,0,0,0,28,63.205v25.6A4.267,4.267,0,0,0,32.267,93.075Zm4.267-25.6H51.3a4.267,4.267,0,0,0,4.062-2.961,35.1,35.1,0,0,1,2.582-6.17,4.267,4.267,0,0,0-.725-5.065L46.775,42.809,58.83,30.75,69.3,41.217a4.267,4.267,0,0,0,5.069.725,34.616,34.616,0,0,1,6.17-2.582A4.267,4.267,0,0,0,83.473,35.3V20.534h17.068V35.3a4.267,4.267,0,0,0,2.957,4.062,34.616,34.616,0,0,1,6.17,2.582,4.267,4.267,0,0,0,5.069-.725L125.205,30.75,137.26,42.809,126.8,53.276a4.267,4.267,0,0,0-.725,5.065,35.1,35.1,0,0,1,2.582,6.17,4.267,4.267,0,0,0,4.062,2.961h14.764V84.541H132.715a4.267,4.267,0,0,0-4.062,2.961,35.1,35.1,0,0,1-2.582,6.17,4.267,4.267,0,0,0,.725,5.065l10.463,10.467-12.055,12.059L114.738,110.8a4.267,4.267,0,0,0-5.069-.725,34.614,34.614,0,0,1-6.17,2.582,4.267,4.267,0,0,0-2.957,4.062v14.764H83.473V116.715a4.267,4.267,0,0,0-2.957-4.062,34.614,34.614,0,0,1-6.17-2.582,4.267,4.267,0,0,0-5.069.725L58.809,121.264,46.775,109.205,57.238,98.738a4.267,4.267,0,0,0,.725-5.065,35.1,35.1,0,0,1-2.582-6.17A4.267,4.267,0,0,0,51.3,84.541H36.534Z" transform="translate(84.945 16.336)" fill="#b7cc31" stroke="#fff" stroke-width="2"/>
    <path id="Path_2507" data-name="Path 2507" d="M62.6,72.205a25.6,25.6,0,1,1,25.6-25.6A25.6,25.6,0,0,1,62.6,72.205Zm0-42.671A17.068,17.068,0,1,0,79.671,46.6,17.068,17.068,0,0,0,62.6,29.534Z" transform="translate(114.349 45.74)" fill="#b7cc31" stroke="#fff" stroke-width="2"/>
    <path id="Path_2508" data-name="Path 2508" d="M57.205,92.342H40.137a4.267,4.267,0,0,1-4.267-4.267V80.582l-5.3,5.3a4.267,4.267,0,0,1-6.034,0L12.456,73.81a4.267,4.267,0,0,1,0-6.034l5.3-5.3H10.267A4.267,4.267,0,0,1,6,58.205V41.137a4.267,4.267,0,0,1,4.267-4.267H17.76l-5.3-5.3a4.267,4.267,0,0,1,0-6.034L24.532,13.456a4.267,4.267,0,0,1,6.034,0l5.3,5.3V11.267A4.267,4.267,0,0,1,40.137,7H57.205a4.267,4.267,0,0,1,4.267,4.267V18.76l5.3-5.3a4.267,4.267,0,0,1,6.034,0L84.886,25.532a4.267,4.267,0,0,1,0,6.034l-5.3,5.3h7.493a4.267,4.267,0,0,1,4.267,4.267V58.205a4.267,4.267,0,0,1-4.267,4.267H79.582l5.3,5.3a4.267,4.267,0,0,1,0,6.034L72.81,85.886a4.267,4.267,0,0,1-6.034,0l-5.3-5.3v7.493A4.267,4.267,0,0,1,57.205,92.342ZM44.4,83.808h8.534V73.78a4.267,4.267,0,0,1,3.043-4.088,9.84,9.84,0,0,0,1.707-.717,4.267,4.267,0,0,1,5,.764l7.1,7.1,6.042-6.042-7.1-7.1a4.267,4.267,0,0,1-.764-5,9.534,9.534,0,0,0,.721-1.732,4.267,4.267,0,0,1,4.1-3.03H82.808V45.4H72.78a4.267,4.267,0,0,1-4.084-3.03,9.533,9.533,0,0,0-.721-1.733,4.267,4.267,0,0,1,.764-5l7.1-7.1-6.042-6.042-7.1,7.109a4.267,4.267,0,0,1-5,.764,9.84,9.84,0,0,0-1.707-.717,4.267,4.267,0,0,1-3.055-4.1V15.534H44.4V25.562a4.267,4.267,0,0,1-3.043,4.088,9.84,9.84,0,0,0-1.707.717,4.267,4.267,0,0,1-5-.764l-7.109-7.1-6.042,6.042,7.109,7.1a4.267,4.267,0,0,1,.764,5,9.533,9.533,0,0,0-.721,1.732,4.267,4.267,0,0,1-4.084,3.03H14.534v8.534H24.562a4.267,4.267,0,0,1,4.084,3.03,9.533,9.533,0,0,0,.721,1.733,4.267,4.267,0,0,1-.764,5l-7.1,7.1,6.042,6.042,7.1-7.109a4.267,4.267,0,0,1,5-.764,9.839,9.839,0,0,0,1.707.717,4.267,4.267,0,0,1,3.055,4.1Z" transform="translate(13.068)" fill="#b7cc31" stroke="#fff" stroke-width="2"/>
    <path id="Path_2509" data-name="Path 2509" d="M29.068,47.137A17.068,17.068,0,1,1,46.137,30.068,17.068,17.068,0,0,1,29.068,47.137Zm0-25.6A8.534,8.534,0,1,0,37.6,30.068,8.534,8.534,0,0,0,29.068,21.534Z" transform="translate(32.671 19.603)" fill="#b7cc31" stroke="#fff" stroke-width="2"/>
  </g>
</svg>
