<svg xmlns="http://www.w3.org/2000/svg" width="91.371" height="91.374" viewBox="0 0 91.371 91.374">
  <g id="wordpress" transform="translate(-0.009)">
    <g id="Group_1058" data-name="Group 1058" transform="translate(0.009)">
      <g id="Group_1057" data-name="Group 1057">
        <g id="Group_1056" data-name="Group 1056">
          <path id="Path_1700" data-name="Path 1700" d="M7.337,146.961a1.82,1.82,0,0,0-3.372-.117,45.69,45.69,0,0,0,21.793,59.708,1.82,1.82,0,0,0,2.505-2.262ZM3.65,165.436a41.744,41.744,0,0,1,1.942-12.642l17.579,48.159A41.727,41.727,0,0,1,3.65,165.436Z" transform="translate(-0.009 -119.751)" fill="#b7cc31"/>
          <path id="Path_1701" data-name="Path 1701" d="M206.53,305.389l-13.469-36.9a1.82,1.82,0,0,0-1.71-1.2h-.017a1.821,1.821,0,0,0-1.7,1.228l-13.162,38.244a1.82,1.82,0,0,0,1.207,2.339,45.7,45.7,0,0,0,28.077-.729,1.82,1.82,0,0,0,.947-2.67A2.508,2.508,0,0,1,206.53,305.389Zm-15.95,1.934a42.049,42.049,0,0,1-10.036-1.217L191.4,274.559l11.308,30.98A41.942,41.942,0,0,1,190.58,307.323Z" transform="translate(-144.894 -219.59)" fill="#b7cc31"/>
          <path id="Path_1702" data-name="Path 1702" d="M99.836,72.08a1.821,1.821,0,0,0,1.715-1.211l4.843-13.641c2.323-5.96,3.453-10.807,3.453-14.816a21.171,21.171,0,0,0-3.367-11.938l-.03-.051q-.263-.428-.522-.845c-1.886-3.045-3.515-5.676-3.515-8.49,0-2.869,2.12-5.965,5.545-5.965.057,0,.143.007.236.015l.216.017A1.82,1.82,0,0,0,109.755,12a45.676,45.676,0,0,0-69.023,8.593,1.82,1.82,0,0,0,1.46,2.821c1.121.037,2.091.056,2.884.056,4.227,0,10.418-.455,11.633-.548a2.027,2.027,0,0,1,.024,1.5c-.479.054-2.555.277-4.8.394a1.82,1.82,0,0,0-1.631,2.4L64.666,69.96A1.82,1.82,0,0,0,66.392,71.2h0a1.82,1.82,0,0,0,1.725-1.244l9.6-28.79a1.82,1.82,0,0,0-.022-1.214L72.473,25.989a1.82,1.82,0,0,0-1.6-1.179c-2.067-.12-4.064-.355-4.424-.4a2.152,2.152,0,0,1,.067-1.493c1.25.094,7.513.547,11.482.547,4.228,0,10.419-.455,11.633-.548a2.025,2.025,0,0,1,.025,1.5c-.478.054-2.557.277-4.8.395a1.82,1.82,0,0,0-1.628,2.405L98.114,70.847a1.82,1.82,0,0,0,1.711,1.232Zm-12.4-43.8c1.552-.126,2.675-.256,2.744-.265,2.093-.247,3.448-2.274,3.223-4.819-.215-2.433-1.791-4.05-3.823-3.929l-.035,0c-.07.006-7.088.552-11.55.552-4.19,0-11.342-.547-11.413-.552l-.033,0c-2.068-.124-3.686,1.621-3.835,4.145s1.224,4.446,3.275,4.607c.29.035,1.741.208,3.482.34l4.587,12.262L66.385,63.646,54.505,28.284c1.559-.127,2.686-.257,2.756-.266,2.092-.247,3.447-2.275,3.222-4.821-.215-2.432-1.79-4.051-3.823-3.927l-.035,0c-.067.006-6.4.5-10.865.548a42.035,42.035,0,0,1,58.62-7.581,9.636,9.636,0,0,0-5.609,8.847c0,3.85,1.973,7.035,4.061,10.407q.248.4.5.81a17.592,17.592,0,0,1,2.873,10.106c0,3.505-1.081,8.054-3.214,13.52l-.019.053-3.1,8.74Z" transform="translate(-33.218)" fill="#b7cc31"/>
          <path id="Path_1703" data-name="Path 1703" d="M389.232,128.824a1.82,1.82,0,0,0-3.4,1.12,31.915,31.915,0,0,1,.279,4.265,39.7,39.7,0,0,1-3.207,15.035c-.011.027-.021.054-.03.081l-13.4,38.737a1.82,1.82,0,0,0,2.637,2.167,45.69,45.69,0,0,0,17.118-61.405Zm-14.54,55.3L386.3,150.555a47.1,47.1,0,0,0,3.165-11.73,42.035,42.035,0,0,1-14.775,45.3Z" transform="translate(-303.458 -105.057)" fill="#b7cc31"/>
        </g>
      </g>
    </g>
    <g id="Group_1060" data-name="Group 1060" transform="translate(44.177 65.891)">
      <g id="Group_1059" data-name="Group 1059">
        <path id="Path_1704" data-name="Path 1704" d="M250.138,369.3a1.82,1.82,0,0,0-2.3,1.151l-.243.728a1.82,1.82,0,1,0,3.454,1.151l.243-.728A1.82,1.82,0,0,0,250.138,369.3Z" transform="translate(-247.499 -369.208)" fill="#b7cc31"/>
      </g>
    </g>
    <g id="Group_1062" data-name="Group 1062" transform="translate(39.141 72.625)">
      <g id="Group_1061" data-name="Group 1061">
        <path id="Path_1705" data-name="Path 1705" d="M224.711,407.038a1.82,1.82,0,0,0-2.3,1.151l-3.034,9.1a1.82,1.82,0,1,0,3.454,1.151l3.034-9.1A1.82,1.82,0,0,0,224.711,407.038Z" transform="translate(-219.281 -406.944)" fill="#b7cc31"/>
      </g>
    </g>
  </g>
</svg>
