<svg id="application" xmlns="http://www.w3.org/2000/svg" width="238.128" height="238.128" viewBox="0 0 238.128 238.128">
  <path id="Path_2542" data-name="Path 2542" d="M50.426,17A11.439,11.439,0,0,0,39,28.426h7.617a3.809,3.809,0,1,1,7.617,0h7.617A11.439,11.439,0,0,0,50.426,17Z" transform="translate(106.724 44.936)" fill="#b7cc31" stroke="#fff" stroke-width="2"/>
  <path id="Path_2543" data-name="Path 2543" d="M214.277,132.036V120.473l2.552-2.978a84.36,84.36,0,0,0,20.3-54.873,54.065,54.065,0,0,0-54-54,54.858,54.858,0,0,0-6.7.415l-19.168,2.4a22.788,22.788,0,0,0-40.644,4.806H100.021v9.815a11.656,11.656,0,0,1-19.793,8.2L73.286,27.3,46.34,54.243l6.951,6.943a11.656,11.656,0,0,1-8.2,19.793H35.277v34.277H12.426A11.439,11.439,0,0,0,1,126.681v76.17a11.352,11.352,0,0,0,2.971,7.617A11.352,11.352,0,0,0,1,218.085V225.7a11.439,11.439,0,0,0,11.426,11.426H206.66a30.5,30.5,0,0,0,30.468-30.468V171.271A44.871,44.871,0,0,0,214.277,132.036ZM168.807,144a55.741,55.741,0,0,0-9.487,13.41,19.266,19.266,0,0,0-28.83,16.582v2.2H115.255v-23c1.264.091,2.536.145,3.809.145a53.051,53.051,0,0,0,43.7-22.916,41.494,41.494,0,0,0,8.52-1.261Zm-30.7,62.658h7.617v22.851h-7.617Zm-2.228-7.617-3.26-3.26a14.9,14.9,0,0,0-10.691-4.357,14.557,14.557,0,0,0-6.673,1.634v-9.251h22.851v-9.815a11.663,11.663,0,0,1,18.243-9.476,55.838,55.838,0,0,0-3.009,17.984v16.54ZM76.016,115.255a45.6,45.6,0,0,1,60.1-57.585c-1.1,2.369-2.095,4.707-2.971,6.977A37.994,37.994,0,0,0,84.22,115.255Zm16.75,0a30.387,30.387,0,0,1,37.853-43.4,111.987,111.987,0,0,0-3.9,16.2L126.27,91.2l11.837,3.946v12.488a22.709,22.709,0,0,0,3.763,12.53,30.591,30.591,0,0,1-22.805,10.321,31,31,0,0,1-3.809-.255v-3.553a11.439,11.439,0,0,0-11.426-11.426ZM115.255,137.9c1.264.126,2.536.209,3.809.209a38.237,38.237,0,0,0,28.038-12.34,22.752,22.752,0,0,0,6.954,3.652,45.5,45.5,0,0,1-34.993,16.3c-1.272,0-2.544-.065-3.809-.168Zm64.261-11.806A41.393,41.393,0,0,0,184,123.512l1.92-1.28L181.7,115.9l-1.92,1.28a33.854,33.854,0,0,1-18.822,5.7,15.217,15.217,0,0,1-14.693-11.426h3.919a29.621,29.621,0,0,0,21.084-8.733l-5.385-5.385a22.055,22.055,0,0,1-15.7,6.5h-4.46V89.658l-10.9-3.633c1.2-5.918,4.528-19.3,11.631-31.706h17.032A15.312,15.312,0,0,1,178.568,67.4l2.548,17.854,9.856-9.856a6.887,6.887,0,0,1,4.913-2.038,6.963,6.963,0,0,1,6.947,6.97,11.574,11.574,0,0,1-5.168,9.681l-6.779,4.521,1.127,4.517a39.2,39.2,0,0,0,14.644,21.937v11.155l-.865.522a65.066,65.066,0,0,1-28.891,9.1ZM122.872,23.965a15.234,15.234,0,1,1,30.468-.114,7.617,7.617,0,0,1-15.234,0H130.49a15.234,15.234,0,1,0,30.468,0,22.816,22.816,0,0,0-.6-5.134l17.016-2.125a46.387,46.387,0,0,1,52.139,46.03,76.737,76.737,0,0,1-18.467,49.918l-1.143,1.333a31.608,31.608,0,0,1-10.313-15.988l2.3-1.535a19.2,19.2,0,0,0,8.562-16.072,14.573,14.573,0,0,0-23.944-11.121l-.4-2.837A22.962,22.962,0,0,0,163.486,46.7H145.049a22.2,22.2,0,0,1-22.177-22.177ZM42.894,88.6h2.2A19.271,19.271,0,0,0,58.676,55.8l-1.561-1.558L73.286,38.072l1.561,1.558a19.27,19.27,0,0,0,32.791-13.581v-2.2h7.625c0,.038-.008.076-.008.114v.556a29.722,29.722,0,0,0,10.435,22.6,54.6,54.6,0,0,0-6.627-.423,53.315,53.315,0,0,0-51.1,68.553H42.894Zm60.936,34.277a3.812,3.812,0,0,1,3.809,3.809V199.5a18.98,18.98,0,0,0-11.327,7.156H23.851V126.681a3.812,3.812,0,0,1,3.809-3.809ZM8.617,126.681a3.812,3.812,0,0,1,3.809-3.809h4.509a11.3,11.3,0,0,0-.7,3.809V206.66H12.426a3.812,3.812,0,0,1-3.809-3.809Zm0,99.021v-7.617a3.812,3.812,0,0,1,3.809-3.809H92.812a18.5,18.5,0,0,0,3.5,15.234H12.426A3.812,3.812,0,0,1,8.617,225.7Zm91.4-7.617a11.439,11.439,0,0,1,11.426-11.426H113.8l1.878-3.751a7,7,0,0,1,6.391-3.866,7.23,7.23,0,0,1,5.161,2.125l3.26,3.26v25.083H111.447a11.439,11.439,0,0,1-11.426-11.426Zm129.49-11.426a22.874,22.874,0,0,1-22.851,22.851H153.341V206.66h47.934l6.5,6.5,5.385-5.385-6.5-6.5V177.09a32.381,32.381,0,0,1,3.409-14.43l-6.813-3.409a40.071,40.071,0,0,0-4.212,17.839v21.952H160.958V182.5a47.853,47.853,0,0,1,13.158-33.031,72.572,72.572,0,0,0,35.6-10.279l.781-.468a37.255,37.255,0,0,1,19.016,32.548Z" fill="#b7cc31" stroke="#fff" stroke-width="2"/>
  <path id="Path_2544" data-name="Path 2544" d="M77.553,35H9v68.553H77.553ZM69.936,95.936H16.617V42.617H69.936Z" transform="translate(22.468 95.489)" fill="#b7cc31" stroke="#fff" stroke-width="2"/>
  <path id="Path_2545" data-name="Path 2545" d="M13,47H51.085v7.617H13Z" transform="translate(33.702 129.192)" fill="#b7cc31" stroke="#fff" stroke-width="2"/>
  <path id="Path_2546" data-name="Path 2546" d="M13,43H51.085v7.617H13Z" transform="translate(33.702 117.958)" fill="#b7cc31" stroke="#fff" stroke-width="2"/>
  <path id="Path_2547" data-name="Path 2547" d="M13,39H28.234v7.617H13Z" transform="translate(33.702 106.724)" fill="#b7cc31" stroke="#fff" stroke-width="2"/>
</svg>
