<svg xmlns="http://www.w3.org/2000/svg" width="230.485" height="229.814" viewBox="0 0 230.485 229.814">
  <g id="architect" transform="translate(-1 -1)">
    <path id="Path_1985" data-name="Path 1985" d="M217.756,171.507l12.792-31.981-6.883-2.754-13.893,34.735h-1.2v-44.48h-7.413V67.72H186.334V52.894h-7.413V67.72h-7.413V45.48h-7.413V67.72h-7.413V52.894h-7.413V67.72H134.441V112.2H119.614v19.012A65.858,65.858,0,0,0,85.42,109.091l-1.683-5.045A18.55,18.55,0,0,0,95.8,93.667h1.572A14.842,14.842,0,0,0,112.2,78.84V60.307a7.421,7.421,0,0,0,7.413-7.413V45.48a7.421,7.421,0,0,0-7.413-7.413h-.645a44.453,44.453,0,0,0-87.67,0H23.24a7.421,7.421,0,0,0-7.413,7.413v7.413a7.421,7.421,0,0,0,7.413,7.413V78.84A14.842,14.842,0,0,0,38.067,93.667h1.572A18.549,18.549,0,0,0,51.7,104.046l-1.683,5.045A65.564,65.564,0,0,0,1,172.775v2.439a40.791,40.791,0,0,0,22.24,36.274v19.327h111.2V201.161h11.494a18.534,18.534,0,0,0,36.318,0h18.6a30.228,30.228,0,0,0,29.909-25.335l.719-4.318Zm-46.248,0V134.441h29.653v37.067ZM141.854,75.134h51.894v51.894h-22.24V112.2H141.854Zm22.24,44.48v51.894H127.027V119.614Zm-44.48,24.746v27.148h-1.2l-13.9-34.739-6.883,2.754,12.8,31.985H96.707l.719,4.318a30.251,30.251,0,0,0,7.361,15.29V223.4H86.254v-7.413a11.12,11.12,0,0,0,0-22.24V117.119a58.426,58.426,0,0,1,33.36,27.24ZM76.168,104.787l2.287,6.865L67.72,127.757,56.982,111.652l2.291-6.865Zm2.673,37.619-6.531-8.166,6.531-9.8Zm-22.24,0V124.444l6.531,9.8Zm0,11.865,11.12-13.9,11.12,13.9v32.715a11.085,11.085,0,0,0-3.707-.652H70.793a11.053,11.053,0,0,0-7.866,3.258l-3.8,3.8-2.524-.563Zm7.413,44.717,4.155-4.155a3.69,3.69,0,0,1,2.624-1.086h4.341a3.713,3.713,0,0,1,3.707,3.707v3.707h7.413a3.707,3.707,0,0,1,0,7.413H64.014Zm14.827,17V223.4H56.6v-7.413ZM97.374,86.254V71.427a7.413,7.413,0,1,1,0,14.827Zm7.413-20.179a14.674,14.674,0,0,0-7.413-2.061V60.307h7.413Zm-.756-28.008H78.84V10.111A36.747,36.747,0,0,1,104.031,38.067ZM71.427,8.6V38.067H64.014V8.6c1.219-.119,2.454-.185,3.707-.185S70.208,8.48,71.427,8.6ZM56.6,10.111V38.067H31.41A36.747,36.747,0,0,1,56.6,10.111ZM23.236,45.48H112.2v7.413H23.24Zm14.83,14.827v3.707a14.674,14.674,0,0,0-7.413,2.061V60.307ZM30.653,78.84a7.421,7.421,0,0,1,7.413-7.413V86.254A7.421,7.421,0,0,1,30.653,78.84ZM45.48,86.254V60.307H89.96V86.254a11.134,11.134,0,0,1-11.12,11.12H56.6A11.134,11.134,0,0,1,45.48,86.254ZM8.413,175.214v-2.439a58.149,58.149,0,0,1,40.774-55.708V191.19l-4.022-.893a18.428,18.428,0,0,1-14.512-18.1v-15.52H23.24V172.2a25.791,25.791,0,0,0,20.316,25.328l13.044,2.9v8.147H41.774A33.4,33.4,0,0,1,8.413,175.214Zm22.24,39.194a40.647,40.647,0,0,0,11.12,1.579h7.413V223.4H30.653ZM112.2,223.4V197.135a30.3,30.3,0,0,0,14.827,4.014V223.4Zm51.894-14.827a11.134,11.134,0,0,1-11.12-11.12,3.713,3.713,0,0,1,3.707-3.707h14.827a3.713,3.713,0,0,1,3.707,3.707A11.134,11.134,0,0,1,164.094,208.574Zm36.759-14.827H181.942a11.1,11.1,0,0,0-10.438-7.413H156.677a11.1,11.1,0,0,0-10.438,7.413H127.327a22.829,22.829,0,0,1-21.443-14.827h116.4a22.808,22.808,0,0,1-21.436,14.827Z" transform="translate(0 0)" fill="#b7cc31"/>
    <path id="Path_1986" data-name="Path 1986" d="M49,23h7.413v7.413H49Z" transform="translate(129.921 59.547)" fill="#b7cc31"/>
    <path id="Path_1987" data-name="Path 1987" d="M45,23h7.413v7.413H45Z" transform="translate(119.094 59.547)" fill="#b7cc31"/>
    <path id="Path_1988" data-name="Path 1988" d="M41,23h7.413v7.413H41Z" transform="translate(108.267 59.547)" fill="#b7cc31"/>
    <path id="Path_1989" data-name="Path 1989" d="M49,27h7.413v7.413H49Z" transform="translate(129.921 70.374)" fill="#b7cc31"/>
    <path id="Path_1990" data-name="Path 1990" d="M41,27h7.413v7.413H41Z" transform="translate(108.267 70.374)" fill="#b7cc31"/>
    <path id="Path_1991" data-name="Path 1991" d="M45,27h7.413v7.413H45Z" transform="translate(119.094 70.374)" fill="#b7cc31"/>
    <path id="Path_1992" data-name="Path 1992" d="M49,31h7.413v7.413H49Z" transform="translate(129.921 81.201)" fill="#b7cc31"/>
    <path id="Path_1993" data-name="Path 1993" d="M37,35h7.413V72.067H37Z" transform="translate(97.441 92.027)" fill="#b7cc31"/>
    <path id="Path_1994" data-name="Path 1994" d="M41,35h7.413V72.067H41Z" transform="translate(108.267 92.027)" fill="#b7cc31"/>
    <path id="Path_1995" data-name="Path 1995" d="M49,39H63.827v7.413H49Z" transform="translate(129.921 102.854)" fill="#b7cc31"/>
    <path id="Path_1996" data-name="Path 1996" d="M49,43H63.827v7.413H49Z" transform="translate(129.921 113.681)" fill="#b7cc31"/>
  </g>
</svg>
