<svg xmlns="http://www.w3.org/2000/svg" width="262.817" height="263.426" viewBox="0 0 262.817 263.426">
  <g id="customer-service" transform="translate(-0.572)">
    <g id="Group_1094" data-name="Group 1094" transform="translate(0.576 42.488)">
      <g id="Group_1093" data-name="Group 1093">
        <path id="Path_2040" data-name="Path 2040" d="M214.052,266.947l-9.836-29.512a29.742,29.742,0,0,0-22.9-19.855l-28.395-5.167v-2.2a42.76,42.76,0,0,0,12.666-11.247h8.578a12.762,12.762,0,0,0,12.746-12.746V135.234a55.234,55.234,0,0,0-110.469,0v29.742A17.023,17.023,0,0,0,90,181.618a42.567,42.567,0,0,0,20.441,28.594v2.2l-28.4,5.167a29.736,29.736,0,0,0-22.892,19.855l-1.7,5.1L42.974,228.066a4.257,4.257,0,0,1,0-6.012l16.783-16.778-31.5-31.5L9.29,192.742a29.742,29.742,0,0,0,0,42.059l57.422,57.422a29.727,29.727,0,0,0,41.927.127l20.7-18.962-6.454-6.441ZM178.417,186.22a4.253,4.253,0,0,1-4.249,4.249H170.6a42.2,42.2,0,0,0,2.77-8.85,16.83,16.83,0,0,0,5.052-2.01Zm-4.249-13.928V157.659a8.424,8.424,0,0,1,0,14.633Zm-84.976,0a8.424,8.424,0,0,1,0-14.633Zm0-28.56v4.852a16.852,16.852,0,0,0-4.249,1.759V135.234a46.737,46.737,0,0,1,93.473,0v15.109a16.7,16.7,0,0,0-4.249-1.759v-4.852H169.92a46.747,46.747,0,0,1-33.264-13.779l-4.975-4.975-4.975,4.975a46.747,46.747,0,0,1-33.264,13.779Zm8.5,29.742V152.068a55.085,55.085,0,0,0,33.99-15.1,55.062,55.062,0,0,0,33.99,15.1v21.405a33.734,33.734,0,0,1-4.6,17H131.681v8.5h22.408a33.936,33.936,0,0,1-56.4-25.493ZM144.427,214v.2l-12.746,12.746L118.934,214.2V214a42.453,42.453,0,0,0,25.493,0ZM67.2,240.12a21.251,21.251,0,0,1,16.354-14.187l29.7-5.4,18.427,18.427L150.1,220.541l29.695,5.4a21.244,21.244,0,0,1,16.354,14.187l6.114,18.325H114.384L97.835,241.9,79.446,258.534a4.34,4.34,0,0,1-6.008,0l-9.279-9.279ZM28.252,185.791l19.485,19.485-4.614,4.614L23.638,190.4Zm74.5,100.433a21.248,21.248,0,0,1-30.043-.008L15.289,228.8a21.248,21.248,0,0,1,0-30.043l2.337-2.337L37.111,215.9l-.153.153a12.768,12.768,0,0,0,0,18.028L67.426,264.55a12.68,12.68,0,0,0,9.016,3.735A12.51,12.51,0,0,0,85.3,264.7l.319-.285,19.574,19.574Zm8.71-7.988L91.933,258.7l5.613-5.073,19.5,19.5Z" transform="translate(-0.58 -80)" fill="#b7cc31"/>
      </g>
    </g>
    <g id="Group_1096" data-name="Group 1096" transform="translate(178.414)">
      <g id="Group_1095" data-name="Group 1095">
        <path id="Path_2041" data-name="Path 2041" d="M407.657,0H348.174a12.762,12.762,0,0,0-12.746,12.746v33.99a12.762,12.762,0,0,0,12.746,12.746h11.349L355.13,85.107l41-25.624h11.527A12.762,12.762,0,0,0,420.4,46.737V12.746A12.762,12.762,0,0,0,407.657,0Zm4.249,46.737a4.256,4.256,0,0,1-4.249,4.249H393.692L366.708,67.849,369.6,50.985H348.174a4.256,4.256,0,0,1-4.249-4.249V12.746A4.256,4.256,0,0,1,348.174,8.5h59.483a4.256,4.256,0,0,1,4.249,4.249Z" transform="translate(-335.428)" fill="#b7cc31"/>
      </g>
    </g>
    <g id="Group_1098" data-name="Group 1098" transform="translate(195.409 16.995)">
      <g id="Group_1097" data-name="Group 1097">
        <rect id="Rectangle_548" data-name="Rectangle 548" width="50.985" height="8.498" fill="#b7cc31"/>
      </g>
    </g>
    <g id="Group_1100" data-name="Group 1100" transform="translate(195.409 33.99)">
      <g id="Group_1099" data-name="Group 1099">
        <rect id="Rectangle_549" data-name="Rectangle 549" width="33.99" height="8.498" fill="#b7cc31"/>
      </g>
    </g>
    <g id="Group_1102" data-name="Group 1102" transform="translate(237.897 33.99)">
      <g id="Group_1101" data-name="Group 1101">
        <rect id="Rectangle_550" data-name="Rectangle 550" width="8.498" height="8.498" fill="#b7cc31"/>
      </g>
    </g>
    <g id="Group_1104" data-name="Group 1104" transform="translate(0.572 12.746)">
      <g id="Group_1103" data-name="Group 1103">
        <path id="Path_2042" data-name="Path 2042" d="M131.677,24A118.89,118.89,0,0,0,15.91,115.965L7.859,102.543.572,106.915,15.506,131.8l24.885-14.934-4.372-7.287-11.514,6.909a110.5,110.5,0,0,1,139.9-79.061l2.515-8.115A118.889,118.889,0,0,0,131.677,24Z" transform="translate(-0.572 -24)" fill="#b7cc31"/>
      </g>
    </g>
    <g id="Group_1106" data-name="Group 1106" transform="translate(217.507 79.142)">
      <g id="Group_1105" data-name="Group 1105">
        <path id="Path_2043" data-name="Path 2043" d="M452.854,163.951l-24.885-14.934-14.93,24.889,7.287,4.372,7.435-12.394a110.563,110.563,0,0,1-18.724,105.255l6.6,5.353a118.982,118.982,0,0,0,20.36-112.746l12.487,7.491Z" transform="translate(-409.036 -149.016)" fill="#b7cc31"/>
      </g>
    </g>
  </g>
</svg>
