<svg xmlns="http://www.w3.org/2000/svg" width="89.188" height="88.48" viewBox="0 0 89.188 88.48">
  <g id="discovery" transform="translate(0 -2.031)">
    <path id="Path_1712" data-name="Path 1712" d="M143.932,120.961a20.938,20.938,0,1,0,14.812,6.126,20.8,20.8,0,0,0-14.812-6.126Zm12.964,33.9a18.355,18.355,0,0,1-25.928,0c-11.528-11.528-3.292-31.289,12.964-31.289S168.422,143.338,156.9,154.863Z" transform="translate(-101.57 -98.213)" fill="#b7cc31"/>
    <path id="Path_1713" data-name="Path 1713" d="M87.256,79.253l-1.011-1.011A1.306,1.306,0,0,0,84.4,80.089L85.409,81.1a3.982,3.982,0,1,1-5.632,5.632l-16.86-16.86,5.632-5.632L80.086,75.778a1.306,1.306,0,0,0,1.848-1.848l-11.8-11.8a2.249,2.249,0,0,0-2.228-.566l-1.947-1.947a28.5,28.5,0,0,0-.4-32.443V6.656a4.63,4.63,0,0,0-4.625-4.625H4.625A4.63,4.63,0,0,0,0,6.656V59.394a1.306,1.306,0,0,0,2.613,0V6.656A2.015,2.015,0,0,1,4.625,4.644H60.937a2.015,2.015,0,0,1,2.012,2.012V24.023a28.3,28.3,0,0,0-20.587-8.806h0A28.469,28.469,0,1,0,58.3,67.285l1.948,1.948a2.407,2.407,0,0,0-.092.639h0a2.231,2.231,0,0,0,.658,1.589L62.949,73.6v8.033a2.015,2.015,0,0,1-2.012,2.012H4.625a2.015,2.015,0,0,1-2.012-2.012V65.491a1.306,1.306,0,0,0-2.613,0V81.633a4.63,4.63,0,0,0,4.625,4.625H60.937a4.63,4.63,0,0,0,4.625-4.625v-5.42L77.929,88.58a6.6,6.6,0,0,0,9.327-9.327ZM65.87,63.224l-3.97,3.97L60.411,65.7a29,29,0,0,0,3.97-3.969Zm-8.054,1.192a25.9,25.9,0,0,1-32.729-1.493c-17.7-15.938-6.231-45.081,17.276-45.081A25.848,25.848,0,0,1,57.816,64.416Z" transform="translate(0 0)" fill="#b7cc31"/>
    <path id="Path_1714" data-name="Path 1714" d="M211.918,205.927a6.6,6.6,0,1,0,6.6,6.6A6.6,6.6,0,0,0,211.918,205.927Zm0,10.579a3.983,3.983,0,1,1,3.983-3.983A3.988,3.988,0,0,1,211.918,216.506Z" transform="translate(-169.556 -168.378)" fill="#b7cc31"/>
    <path id="Path_1715" data-name="Path 1715" d="M183.167,168.126q-.15-.4-.328-.791l.932-.933a2.357,2.357,0,0,0,0-3.33l-2.687-2.687a2.353,2.353,0,0,0-3.33,0l-.933.932q-.39-.178-.791-.328v-1.318a2.357,2.357,0,0,0-2.355-2.355h-3.8a2.357,2.357,0,0,0-2.355,2.355v1.318q-.4.15-.791.328l-.932-.932a2.353,2.353,0,0,0-3.33,0l-2.687,2.687a2.357,2.357,0,0,0,0,3.33l.932.933q-.178.39-.328.791h-1.318a2.357,2.357,0,0,0-2.355,2.355v3.8a2.357,2.357,0,0,0,2.355,2.355h1.318q.15.4.328.791l-.932.932a2.353,2.353,0,0,0,0,3.33l2.687,2.687a2.353,2.353,0,0,0,3.33,0l.933-.932q.39.178.791.328v1.318a2.357,2.357,0,0,0,2.355,2.355h3.8a2.357,2.357,0,0,0,2.355-2.355v-1.318q.4-.15.791-.328l.932.932a2.353,2.353,0,0,0,3.33,0l2.687-2.687a2.353,2.353,0,0,0,0-3.33l-.932-.933q.178-.39.328-.791h1.318a2.357,2.357,0,0,0,2.355-2.355v-3.8a2.357,2.357,0,0,0-2.355-2.355Zm1.06,5.9h-2.006a1.306,1.306,0,0,0-1.258.952,9.488,9.488,0,0,1-.858,2.067,1.306,1.306,0,0,0,.216,1.563l1.419,1.419-2.321,2.322L178,180.926a1.307,1.307,0,0,0-1.563-.216,9.483,9.483,0,0,1-2.067.858,1.307,1.307,0,0,0-.952,1.258v2.006h-3.283v-2.006a1.306,1.306,0,0,0-.952-1.258,9.483,9.483,0,0,1-2.067-.858,1.306,1.306,0,0,0-1.563.216l-1.419,1.419-2.321-2.322,1.419-1.419a1.306,1.306,0,0,0,.216-1.563,9.488,9.488,0,0,1-.858-2.067,1.307,1.307,0,0,0-1.258-.952h-2.006v-3.283h2.006a1.306,1.306,0,0,0,1.258-.952,9.488,9.488,0,0,1,.858-2.067,1.307,1.307,0,0,0-.216-1.563l-1.419-1.419,2.322-2.322,1.419,1.419a1.306,1.306,0,0,0,1.563.216,9.488,9.488,0,0,1,2.067-.858,1.307,1.307,0,0,0,.952-1.258V159.93h3.283v2.006a1.306,1.306,0,0,0,.952,1.258,9.488,9.488,0,0,1,2.067.858,1.306,1.306,0,0,0,1.563-.216l1.419-1.419,2.322,2.322-1.419,1.419a1.307,1.307,0,0,0-.216,1.563,9.491,9.491,0,0,1,.858,2.067,1.306,1.306,0,0,0,1.258.952h2.006v3.283Z" transform="translate(-129.413 -128.236)" fill="#b7cc31"/>
  </g>
</svg>
