<svg xmlns="http://www.w3.org/2000/svg" width="1274.43" height="699" viewBox="0 0 1274.43 699">
  <g id="Group_1278" data-name="Group 1278" transform="translate(-355.57 -4795)">
    <g id="Group_1228" data-name="Group 1228" transform="translate(-16563 8181)">
      <g id="Page-1" transform="translate(16924.57 -3479.068)">
        <g id="_047---Tally" data-name="047---Tally" transform="translate(-6.001 169)">
          <path id="Shape" d="M93.579,14.463H77.264a11.049,11.049,0,0,0-9.532-5.457A10.811,10.811,0,0,0,57.043,0H49.812A11.106,11.106,0,0,0,38.965,9.039a10.844,10.844,0,0,0-9.379,5.423H13.276A12.484,12.484,0,0,0,1,27.117v68.7a12.484,12.484,0,0,0,12.275,12.655h80.3a12.484,12.484,0,0,0,12.275-12.655v-68.7A12.484,12.484,0,0,0,93.579,14.463ZM39.126,12.655a3.625,3.625,0,0,0,3.559-3.04,7.211,7.211,0,0,1,7.127-6h7.231a7.2,7.2,0,0,1,7.127,6,3.67,3.67,0,0,0,3.72,3.038,7.238,7.238,0,0,1,7.231,7.231v1.808A1.809,1.809,0,0,1,73.313,23.5H33.541a1.809,1.809,0,0,1-1.808-1.808V19.886a7.274,7.274,0,0,1,7.392-7.231Zm-25.85,5.423h15a10.836,10.836,0,0,0-.163,1.808v1.808a5.429,5.429,0,0,0,5.423,5.423H73.313a5.429,5.429,0,0,0,5.423-5.423V19.886a10.817,10.817,0,0,0-.163-1.808h15a8.865,8.865,0,0,1,8.659,9.039v3.616H95.007a1.808,1.808,0,1,0,0,3.616h7.231V52.427H80.545V34.349h7.231a1.808,1.808,0,1,0,0-3.616H4.616V27.117A8.865,8.865,0,0,1,13.276,18.078ZM4.616,34.349H26.31V52.427H4.616Zm25.31,0H51.62V52.427H29.926ZM51.62,56.043v48.811H29.926V56.043Zm3.616,0H76.929v48.811H55.235Zm0-3.616V34.349H76.929V52.427ZM4.616,95.815V56.043H26.31v48.811H13.276A8.865,8.865,0,0,1,4.616,95.815Zm88.963,9.039H80.545V56.043h21.694V95.815A8.865,8.865,0,0,1,93.579,104.854Z" transform="translate(-0.999 0)" fill="#b7cc31"/>
          <path id="Shape-2" data-name="Shape" d="M15.039,23H7.808a1.808,1.808,0,0,0,0,3.616h7.231a1.808,1.808,0,1,0,0-3.616Z" transform="translate(3.04 18.58)" fill="#b7cc31"/>
          <path id="Shape-3" data-name="Shape" d="M29.039,23H21.808a1.808,1.808,0,0,0,0,3.616h7.231a1.808,1.808,0,0,0,0-3.616Z" transform="translate(14.35 18.58)" fill="#b7cc31"/>
          <path id="Shape-4" data-name="Shape" d="M43.039,23H35.808a1.808,1.808,0,0,0,0,3.616h7.231a1.808,1.808,0,0,0,0-3.616Z" transform="translate(25.659 18.58)" fill="#b7cc31"/>
          <path id="Shape-5" data-name="Shape" d="M48,24.808a1.808,1.808,0,0,0,1.808,1.808h7.231a1.808,1.808,0,0,0,0-3.616H49.808A1.808,1.808,0,0,0,48,24.808Z" transform="translate(36.969 18.58)" fill="#b7cc31"/>
          <path id="Shape-6" data-name="Shape" d="M14.8,40.221l4.145-4.145a1.808,1.808,0,0,0-2.556-2.556l-4.145,4.145L8.1,33.52A1.808,1.808,0,0,0,5.54,36.076l4.145,4.145L5.54,44.367A1.808,1.808,0,1,0,8.1,46.923l4.145-4.145,4.145,4.145a1.808,1.808,0,0,0,2.556-2.556Z" transform="translate(2.223 26.668)" fill="#b7cc31"/>
          <path id="Shape-7" data-name="Shape" d="M19.53,46.923a1.807,1.807,0,0,0,2.556,0l4.145-4.145,4.145,4.145a1.808,1.808,0,0,0,2.556-2.556l-4.145-4.145,4.145-4.145a1.808,1.808,0,0,0-2.556-2.556l-4.145,4.145L22.086,33.52a1.808,1.808,0,0,0-2.556,2.556l4.145,4.145L19.53,44.367a1.807,1.807,0,0,0,0,2.556Z" transform="translate(13.542 26.668)" fill="#b7cc31"/>
          <path id="Shape-8" data-name="Shape" d="M23.685,50.221,19.54,54.367A1.808,1.808,0,1,0,22.1,56.923l4.145-4.145,4.145,4.145a1.808,1.808,0,0,0,2.556-2.556L28.8,50.221l4.145-4.145a1.808,1.808,0,0,0-2.556-2.556l-4.145,4.145L22.1,43.52a1.808,1.808,0,0,0-2.556,2.556Z" transform="translate(13.532 34.746)" fill="#b7cc31"/>
          <path id="Shape-9" data-name="Shape" d="M60.943,33.53a1.807,1.807,0,0,0-2.556,0l-4.145,4.145L50.1,33.53a1.808,1.808,0,0,0-2.556,2.556l4.145,4.145L47.54,44.377A1.808,1.808,0,1,0,50.1,46.933l4.145-4.145,4.145,4.145a1.808,1.808,0,0,0,2.556-2.556L56.8,40.231l4.145-4.145a1.807,1.807,0,0,0,0-2.556Z" transform="translate(36.151 26.658)" fill="#b7cc31"/>
          <path id="Shape-10" data-name="Shape" d="M32.423,14.847A5.423,5.423,0,1,0,27,9.423,5.423,5.423,0,0,0,32.423,14.847Zm0-7.231a1.808,1.808,0,1,1-1.808,1.808A1.808,1.808,0,0,1,32.423,7.616Z" transform="translate(20.005 3.231)" fill="#b7cc31"/>
        </g>
        <text id="scope" transform="translate(46.43 319.068)" fill="rgba(0,0,0,0.87)" font-size="29" font-family="Poppins-Bold, Poppins" font-weight="700"><tspan x="-45.704" y="0">Scope</tspan></text>
      </g>
      <g id="Group_1225" data-name="Group 1225" transform="translate(16324 -8780.034)">
        <line id="Line_28" data-name="Line 28" x2="122" y2="1" transform="translate(749.5 5540.5)" fill="none" stroke="#b7cc31" stroke-width="1"/>
        <g id="Polygon_2" data-name="Polygon 2" transform="translate(886.5 5532) rotate(90)" fill="#b7cc31">
          <path d="M 17.11689949035645 14.5 L 0.8830999732017517 14.5 L 9 0.971833348274231 L 17.11689949035645 14.5 Z" stroke="none"/>
          <path d="M 9 1.943650245666504 L 1.766189575195313 14 L 16.23381042480469 14 L 9 1.943650245666504 M 9 0 L 18 15 L 0 15 L 9 0 Z" stroke="none" fill="#b7cc31"/>
        </g>
      </g>
      <g id="Group_1226" data-name="Group 1226" transform="translate(16722 -8780.034)">
        <line id="Line_28-2" data-name="Line 28" x2="122" y2="1" transform="translate(749.5 5540.5)" fill="none" stroke="#b7cc31" stroke-width="1"/>
        <g id="Polygon_2-2" data-name="Polygon 2" transform="translate(886.5 5532) rotate(90)" fill="#b7cc31">
          <path d="M 17.11689949035645 14.5 L 0.8830999732017517 14.5 L 9 0.971833348274231 L 17.11689949035645 14.5 Z" stroke="none"/>
          <path d="M 9 1.943650245666504 L 1.766189575195313 14 L 16.23381042480469 14 L 9 1.943650245666504 M 9 0 L 18 15 L 0 15 L 9 0 Z" stroke="none" fill="#b7cc31"/>
        </g>
      </g>
      <g id="Group_1227" data-name="Group 1227" transform="translate(17123.5 -8780.034)">
        <line id="Line_28-3" data-name="Line 28" x2="122" y2="1" transform="translate(749.5 5540.5)" fill="none" stroke="#b7cc31" stroke-width="1"/>
        <g id="Polygon_2-3" data-name="Polygon 2" transform="translate(886.5 5532) rotate(90)" fill="#b7cc31">
          <path d="M 17.11689949035645 14.5 L 0.8830999732017517 14.5 L 9 0.971833348274231 L 17.11689949035645 14.5 Z" stroke="none"/>
          <path d="M 9 1.943650245666504 L 1.766189575195313 14 L 16.23381042480469 14 L 9 1.943650245666504 M 9 0 L 18 15 L 0 15 L 9 0 Z" stroke="none" fill="#b7cc31"/>
        </g>
      </g>
      <g id="ux-interface" transform="translate(17276.287 -3310.068)">
        <path id="Path_2469" data-name="Path 2469" d="M235.057,369.541a1.52,1.52,0,0,0,0,3.04h6.085a1.52,1.52,0,1,0,0-3.04Z" transform="translate(-186.038 -294.64)" fill="#b7cc31"/>
        <path id="Path_2470" data-name="Path 2470" d="M99.935,16.991H86.811V3.172A3.176,3.176,0,0,0,83.638,0H20.484a3.176,3.176,0,0,0-3.172,3.172V16.991H4.187A3.986,3.986,0,0,0,.206,20.972V79.836a3.986,3.986,0,0,0,3.981,3.981H36.894V88.88c0,.009,0,.017,0,.025.084,5.027-2.207,10.008-3.155,11.849H28.912a1.52,1.52,0,0,0,0,3.04h46.3a1.52,1.52,0,0,0,0-3.04H70.381c-.949-1.837-3.237-6.8-3.153-11.849,0-.009,0-.017,0-.025V83.817H79.052a1.52,1.52,0,1,0,0-3.04H4.187a.942.942,0,0,1-.941-.941v-7.77h97.63v7.77a.942.942,0,0,1-.941.941H86.146a1.52,1.52,0,0,0,0,3.04H99.935a3.986,3.986,0,0,0,3.981-3.981V20.972a3.986,3.986,0,0,0-3.981-3.981Zm-60,71.876V83.817H64.188v5.051A28.777,28.777,0,0,0,67,100.754H37.125A28.777,28.777,0,0,0,39.934,88.867ZM8.041,28.008V69.025H3.246V20.972a.942.942,0,0,1,.941-.941H17.312v4.2h-5.6A3.731,3.731,0,0,0,8.041,28.008ZM83.77,69.025H20.352V57.2a1.52,1.52,0,0,0-3.04,0V69.025h-6.23V28.008a.692.692,0,0,1,.631-.739h5.6V50.108a1.52,1.52,0,1,0,3.04,0V3.172a.132.132,0,0,1,.132-.132H83.638a.132.132,0,0,1,.132.132V69.025Zm9.27,0H86.81V27.27h5.6a.692.692,0,0,1,.631.739Zm7.835,0H96.081V28.008a3.731,3.731,0,0,0-3.671-3.779h-5.6v-4.2H99.935a.942.942,0,0,1,.941.941Z" fill="#b7cc31"/>
        <path id="Path_2471" data-name="Path 2471" d="M127.68,82.055a11.82,11.82,0,0,0,6.46,1.861,12.338,12.338,0,0,0,5.6-1.3c4.251-2.141,6.592-5.718,6.592-10.073V58.656a5.064,5.064,0,0,0-10.127,0V72.539c0,.241,0,.514-1.02,1.028a2.26,2.26,0,0,1-1.052.222,1.764,1.764,0,0,1-1-.268c-.831-.531-.831-.7-.831-.967v-13.9a5.063,5.063,0,1,0-10.127,0v13.9a10.969,10.969,0,0,0,5.506,9.5Zm-2.465-23.4a2.023,2.023,0,1,1,4.046,0v13.9c0,1.493.647,2.515,2.234,3.529a4.834,4.834,0,0,0,2.645.747,5.245,5.245,0,0,0,2.415-.547c2.414-1.216,2.693-2.719,2.693-3.743V58.656a2.023,2.023,0,1,1,4.046,0V72.539c0,3.192-1.7,5.737-4.919,7.357a9.338,9.338,0,0,1-4.249.98,8.811,8.811,0,0,1-4.81-1.383c-2.76-1.764-4.1-4.033-4.1-6.939v-13.9Z" transform="translate(-97.247 -42.73)" fill="#b7cc31"/>
        <path id="Path_2472" data-name="Path 2472" d="M284.895,75.371l-6-7.905L283.77,61a5.064,5.064,0,1,0-8.086-6.1l-3.151,4.179-3.181-4.192a5.064,5.064,0,1,0-8.067,6.122l4.912,6.473-5.686,7.541a5.064,5.064,0,1,0,8.086,6.1l3.962-5.255,4.269,5.625a5.064,5.064,0,0,0,8.067-6.123Zm-2.81,4.673a2.023,2.023,0,0,1-2.835-.389l-5.483-7.225a1.52,1.52,0,0,0-1.211-.6h0a1.52,1.52,0,0,0-1.211.6l-5.172,6.859a2.023,2.023,0,0,1-3.231-2.436l6.379-8.459a1.52,1.52,0,0,0,0-1.834l-5.608-7.388a2.023,2.023,0,1,1,3.223-2.446l4.4,5.793a1.52,1.52,0,0,0,1.211.6h0a1.52,1.52,0,0,0,1.211-.6l4.361-5.784a2.023,2.023,0,1,1,3.231,2.436l-5.567,7.384a1.52,1.52,0,0,0,0,1.834l6.695,8.821a2.025,2.025,0,0,1-.389,2.835Z" transform="translate(-206.73 -42.168)" fill="#b7cc31"/>
        <path id="Path_2473" data-name="Path 2473" d="M174.922,226.776H123.694a1.52,1.52,0,0,0,0,3.04h51.228a1.52,1.52,0,1,0,0-3.04Z" transform="translate(-97.247 -180.812)" fill="#b7cc31"/>
        <path id="Path_2474" data-name="Path 2474" d="M174.922,257.219H123.694a1.52,1.52,0,0,0,0,3.04h51.228a1.52,1.52,0,1,0,0-3.04Z" transform="translate(-97.247 -205.084)" fill="#b7cc31"/>
        <path id="Path_2475" data-name="Path 2475" d="M174.922,287.662H123.694a1.52,1.52,0,1,0,0,3.04h51.228a1.52,1.52,0,1,0,0-3.04Z" transform="translate(-97.247 -229.357)" fill="#b7cc31"/>
      </g>
      <text id="UX_Task_" data-name="UX Task " transform="translate(17328 -3160)" fill="rgba(0,0,0,0.87)" font-size="29" font-family="Poppins-Bold, Poppins" font-weight="700"><tspan x="-62.205" y="0">UX Task </tspan></text>
      <text id="User_Research" data-name="User Research" transform="translate(17766 -3160)" fill="rgba(0,0,0,0.87)" font-size="29" font-family="Poppins-Bold, Poppins" font-weight="700"><tspan x="-106.532" y="0">User Research</tspan></text>
      <text id="think_cycle" data-name="think cycle" transform="translate(17549 -3347)" fill="rgba(0,0,0,0.87)" font-size="37" font-family="Poppins-Bold, Poppins" font-weight="700"><tspan x="-110.519" y="0">Think Cycle</tspan></text>
      <text id="ideation" transform="translate(18130 -3156)" fill="rgba(0,0,0,0.87)" font-size="29" font-family="Poppins-Bold, Poppins" font-weight="700"><tspan x="-62.075" y="0">Ideation</tspan></text>
      <g id="recruitment" transform="translate(17697.564 -3343.147)">
        <g id="Group_1202" data-name="Group 1202" transform="translate(0 28.416)">
          <g id="Group_1201" data-name="Group 1201">
            <path id="Path_2462" data-name="Path 2462" d="M123.219,149.639a11.183,11.183,0,0,0,1.916-6.273v-2.144a11.243,11.243,0,0,0-19.187-7.963,39.567,39.567,0,0,0-75.026,0,11.243,11.243,0,0,0-19.187,7.963v2.144a11.183,11.183,0,0,0,1.916,6.273A17.23,17.23,0,0,0,0,166.47v5.382a2.674,2.674,0,0,0,2.673,2.673h13.9a2.673,2.673,0,0,0,0-5.346H5.346V166.47A11.868,11.868,0,0,1,17.2,154.615H29.854A39.341,39.341,0,0,0,35.1,167.134l-30.5,30.5A10.018,10.018,0,0,0,18.771,211.8l16.815-16.816a2.673,2.673,0,1,0-3.781-3.781L14.99,208.022a4.672,4.672,0,1,1-6.607-6.607l29.942-29.942a39.546,39.546,0,0,0,68.691-16.859h12.652a11.868,11.868,0,0,1,11.855,11.855v2.709H106.395a2.673,2.673,0,1,0,0,5.346h27.8a2.674,2.674,0,0,0,2.673-2.673V166.47A17.23,17.23,0,0,0,123.219,149.639Zm-94.332-6.273a5.9,5.9,0,0,1-11.806,0v-2.144a5.9,5.9,0,1,1,11.806,0Zm39.548,36.69a34.217,34.217,0,1,1,34.217-34.217A34.256,34.256,0,0,1,68.435,180.056Zm51.353-36.69a5.9,5.9,0,0,1-11.806,0v-2.144a5.9,5.9,0,1,1,11.806,0Z" transform="translate(0 -106.275)" fill="#b7cc31"/>
          </g>
        </g>
        <g id="Group_1204" data-name="Group 1204" transform="translate(39.564 39.109)">
          <g id="Group_1203" data-name="Group 1203">
            <path id="Path_2463" data-name="Path 2463" d="M176.871,146.275a28.857,28.857,0,0,0-19.8,49.864,2.671,2.671,0,0,0,.31.289,28.817,28.817,0,0,0,38.977,0,2.649,2.649,0,0,0,.31-.289,28.857,28.857,0,0,0-19.8-49.864Zm0,52.4A23.409,23.409,0,0,1,162.3,193.6a16.5,16.5,0,0,1,29.137,0A23.409,23.409,0,0,1,176.871,198.67Zm-5.633-24.8v-2.077a5.633,5.633,0,0,1,11.267,0v2.077a5.633,5.633,0,1,1-11.267,0Zm24.112,15.82a21.652,21.652,0,0,0-10.229-8.586,10.932,10.932,0,0,0,2.73-7.233v-2.077a10.98,10.98,0,1,0-21.96,0v2.077a10.93,10.93,0,0,0,2.73,7.233,21.655,21.655,0,0,0-10.229,8.586,23.524,23.524,0,1,1,36.958,0Z" transform="translate(-148 -146.275)" fill="#b7cc31"/>
          </g>
        </g>
        <g id="Group_1206" data-name="Group 1206" transform="translate(38.174 105.415)">
          <g id="Group_1205" data-name="Group 1205">
            <path id="Path_2464" data-name="Path 2464" d="M147.363,395.092a2.672,2.672,0,1,0,.783,1.89A2.693,2.693,0,0,0,147.363,395.092Z" transform="translate(-142.8 -394.309)" fill="#b7cc31"/>
          </g>
        </g>
        <g id="Group_1208" data-name="Group 1208" transform="translate(65.816 0.009)">
          <g id="Group_1207" data-name="Group 1207">
            <path id="Path_2465" data-name="Path 2465" d="M248.876.009A2.674,2.674,0,0,0,246.2,2.682v9.1a2.673,2.673,0,1,0,5.346,0v-9.1A2.674,2.674,0,0,0,248.876.009Z" transform="translate(-246.203 -0.009)" fill="#b7cc31"/>
          </g>
        </g>
        <g id="Group_1210" data-name="Group 1210" transform="translate(65.815 17.92)">
          <g id="Group_1209" data-name="Group 1209">
            <path id="Path_2466" data-name="Path 2466" d="M250.763,67.792a2.671,2.671,0,1,0,.784,1.89A2.688,2.688,0,0,0,250.763,67.792Z" transform="translate(-246.2 -67.009)" fill="#b7cc31"/>
          </g>
        </g>
        <g id="Group_1212" data-name="Group 1212" transform="translate(81.89 9.712)">
          <g id="Group_1211" data-name="Group 1211">
            <path id="Path_2467" data-name="Path 2467" d="M315.593,37.09a2.674,2.674,0,0,0-3.781,0l-4.7,4.7a2.673,2.673,0,0,0,3.781,3.781l4.7-4.7A2.674,2.674,0,0,0,315.593,37.09Z" transform="translate(-306.331 -36.307)" fill="#b7cc31"/>
          </g>
        </g>
        <g id="Group_1214" data-name="Group 1214" transform="translate(44.935 9.699)">
          <g id="Group_1213" data-name="Group 1213">
            <path id="Path_2468" data-name="Path 2468" d="M177.4,41.785l-4.744-4.744a2.673,2.673,0,1,0-3.781,3.781l4.744,4.744a2.673,2.673,0,0,0,3.78-3.781Z" transform="translate(-168.091 -36.259)" fill="#b7cc31"/>
          </g>
        </g>
      </g>
      <g id="idea" transform="translate(18040.752 -3321.998)">
        <g id="Group_1158" data-name="Group 1158" transform="translate(107.163 48.153)">
          <g id="Group_1157" data-name="Group 1157">
            <path id="Path_2420" data-name="Path 2420" d="M409.482,193.347a2.5,2.5,0,1,0-3.536,3.536c.038.038.078.078.117.114a2.5,2.5,0,0,0,3.418-3.649Z" transform="translate(-405.214 -192.615)" fill="#b7cc31"/>
          </g>
        </g>
        <g id="Group_1160" data-name="Group 1160" transform="translate(74.801 38.307)">
          <g id="Group_1159" data-name="Group 1159">
            <path id="Path_2421" data-name="Path 2421" d="M307.315,159.7a39.139,39.139,0,0,0-4.367-2.577,33.528,33.528,0,0,0-25.425-2.424,2.5,2.5,0,1,0,1.483,4.775,28.621,28.621,0,0,1,21.694,2.115,34.812,34.812,0,0,1,3.806,2.247,2.5,2.5,0,1,0,2.808-4.137Z" transform="translate(-275.764 -153.23)" fill="#b7cc31"/>
          </g>
        </g>
        <g id="Group_1162" data-name="Group 1162" transform="translate(23.778 15.864)">
          <g id="Group_1161" data-name="Group 1161">
            <path id="Path_2422" data-name="Path 2422" d="M176.986,124.725c-1.025-2.15-2.722-5.71-2.753-6.888,2.923-7.206,1.857-15.18-3.012-22.474C163.732,84.144,148.385,76,134.729,76a44.735,44.735,0,0,0-20.61,5.008A21.4,21.4,0,1,0,81.9,103.121a4.178,4.178,0,0,1,2.414,3.714v14.629a5.068,5.068,0,0,0,5.061,5.062h.85A44.524,44.524,0,0,0,105.3,154.717c.079.247.311,1.4-.683,4.859-.774,2.691-1.961,5.68-3.008,8.318-.7,1.765-1.306,3.289-1.672,4.441a2.5,2.5,0,0,0,2.383,3.257h35.686c1.172,0,2.783-.525,3.8-3.026a24.437,24.437,0,0,0,1.034-3.785c.3-1.351.993-4.515,1.686-4.9a.508.508,0,0,1,.139.008,2.457,2.457,0,0,0,.388.03c3.737,0,6.791.17,9.485.319,7.9.438,12.672.7,16.856-5.324,2.128-3.065,1.887-7.536,1.631-12.269A44.648,44.648,0,0,1,173,139.6a21.811,21.811,0,0,1,2.214-1.65c2.357-1.619,4.582-3.147,4.582-5.471C179.8,130.71,178.728,128.38,176.986,124.725ZM84.515,98.857a16.4,16.4,0,1,1,17.11,0,9.1,9.1,0,0,0-4.382,5.356H88.9A9.1,9.1,0,0,0,84.515,98.857Zm12.309,10.357v3.656H89.317v-3.656Zm-7.446,12.312a.072.072,0,0,1-.061-.062V117.87h7.507v3.593a.072.072,0,0,1-.062.063Zm83.005,12.3c-2.152,1.478-4.01,2.754-4.284,4.685a44.506,44.506,0,0,0-.066,8.407c.189,3.512.4,7.492-.746,9.149-2.487,3.583-4.639,3.618-12.472,3.183-2.584-.144-5.791-.321-9.594-.327-1.46-.172-3.931.1-5.58,3.307a23.227,23.227,0,0,0-1.684,5.477,26.563,26.563,0,0,1-.742,2.886H105.923l.338-.853c3.6-9.068,5.882-15.719,2.41-18.72a39.562,39.562,0,0,1-13.4-24.493h1.488a5.068,5.068,0,0,0,5.062-5.062V106.839a4.18,4.18,0,0,1,2.414-3.719A21.255,21.255,0,0,0,114.4,86.571,39.72,39.72,0,0,1,134.729,81c11.912,0,25.812,7.367,32.333,17.136,2.795,4.187,5.495,10.7,2.483,17.953-.981,2.362.473,5.637,2.927,10.785a45.116,45.116,0,0,1,2.249,5.206A23.62,23.62,0,0,1,172.384,133.825Z" transform="translate(-71.668 -63.458)" fill="#b7cc31"/>
          </g>
        </g>
        <g id="Group_1164" data-name="Group 1164" transform="translate(48.489 27.117)">
          <g id="Group_1163" data-name="Group 1163">
            <path id="Path_2423" data-name="Path 2423" d="M179.468,115.086a10.009,10.009,0,0,0-5.308-6.338,2.5,2.5,0,0,0-2.292,4.444,5.012,5.012,0,0,1,2.772,3.2,7.579,7.579,0,0,1-.694,5.165,2.5,2.5,0,1,0,4.216,2.688A12.532,12.532,0,0,0,179.468,115.086Z" transform="translate(-170.514 -108.47)" fill="#b7cc31"/>
          </g>
        </g>
        <g id="Group_1166" data-name="Group 1166" transform="translate(42.68)">
          <g id="Group_1165" data-name="Group 1165">
            <path id="Path_2424" data-name="Path 2424" d="M149.779,0a2.5,2.5,0,0,0-2.5,2.5V9.627a2.5,2.5,0,0,0,5,0V2.5A2.5,2.5,0,0,0,149.779,0Z" transform="translate(-147.279)" fill="#b7cc31"/>
          </g>
        </g>
        <g id="Group_1168" data-name="Group 1168" transform="translate(7.815 34.866)">
          <g id="Group_1167" data-name="Group 1167" transform="translate(0)">
            <path id="Path_2425" data-name="Path 2425" d="M17.442,139.465H10.315a2.5,2.5,0,0,0,0,5h7.127a2.5,2.5,0,0,0,0-5Z" transform="translate(-7.815 -139.465)" fill="#b7cc31"/>
          </g>
        </g>
        <g id="Group_1170" data-name="Group 1170" transform="translate(25.247 4.671)">
          <g id="Group_1169" data-name="Group 1169">
            <path id="Path_2426" data-name="Path 2426" d="M85.773,26.1l-3.562-6.169a2.5,2.5,0,1,0-4.33,2.5L81.443,28.6a2.5,2.5,0,0,0,4.33-2.5Z" transform="translate(-77.545 -18.684)" fill="#b7cc31"/>
          </g>
        </g>
        <g id="Group_1172" data-name="Group 1172" transform="translate(12.485 17.433)">
          <g id="Group_1171" data-name="Group 1171" transform="translate(0)">
            <path id="Path_2427" data-name="Path 2427" d="M36.416,73.632l-6.17-3.562a2.5,2.5,0,1,0-2.5,4.33l6.17,3.562a2.5,2.5,0,0,0,2.5-4.33Z" transform="translate(-26.495 -69.735)" fill="#b7cc31"/>
          </g>
        </g>
        <g id="Group_1174" data-name="Group 1174" transform="translate(66.706 17.433)">
          <g id="Group_1173" data-name="Group 1173">
            <path id="Path_2428" data-name="Path 2428" d="M254.218,70.983a2.5,2.5,0,0,0-3.415-.915l-6.17,3.562a2.5,2.5,0,1,0,2.5,4.33L253.3,74.4A2.5,2.5,0,0,0,254.218,70.983Z" transform="translate(-243.382 -69.732)" fill="#b7cc31"/>
          </g>
        </g>
        <g id="Group_1176" data-name="Group 1176" transform="translate(12.485 48.735)">
          <g id="Group_1175" data-name="Group 1175">
            <path id="Path_2429" data-name="Path 2429" d="M37.332,196.2a2.5,2.5,0,0,0-3.414-.915l-6.172,3.562a2.5,2.5,0,1,0,2.5,4.33l6.171-3.562A2.5,2.5,0,0,0,37.332,196.2Z" transform="translate(-26.495 -194.946)" fill="#b7cc31"/>
          </g>
        </g>
        <g id="Group_1178" data-name="Group 1178" transform="translate(25.247 59.781)">
          <g id="Group_1177" data-name="Group 1177">
            <path id="Path_2430" data-name="Path 2430" d="M84.344,239.462a2.5,2.5,0,0,0-3.415.915l-3.048,5.281a2.5,2.5,0,1,0,4.33,2.5l3.048-5.281A2.5,2.5,0,0,0,84.344,239.462Z" transform="translate(-77.545 -239.127)" fill="#b7cc31"/>
          </g>
        </g>
        <g id="Group_1180" data-name="Group 1180" transform="translate(56.551 4.671)">
          <g id="Group_1179" data-name="Group 1179" transform="translate(0)">
            <path id="Path_2431" data-name="Path 2431" d="M210.076,19.019a2.5,2.5,0,0,0-3.415.915L203.1,26.1a2.5,2.5,0,1,0,4.33,2.5l3.562-6.169A2.5,2.5,0,0,0,210.076,19.019Z" transform="translate(-202.763 -18.683)" fill="#b7cc31"/>
          </g>
        </g>
      </g>
    </g>
    <g id="Group_1229" data-name="Group 1229" transform="translate(17 -167)">
      <text id="conceptualization" transform="translate(574 5648)" fill="rgba(0,0,0,0.87)" font-size="38" font-family="Poppins-Bold, Poppins" font-weight="700"><tspan x="-180.671" y="0">Conceptualization</tspan></text>
      <text id="iteraion" transform="translate(1024 5648)" fill="rgba(0,0,0,0.87)" font-size="38" font-family="Poppins-Bold, Poppins" font-weight="700"><tspan x="-76.57" y="0">Iteraion</tspan></text>
      <text id="re-iteration" transform="translate(1439 5648)" fill="rgba(0,0,0,0.87)" font-size="38" font-family="Poppins-Bold, Poppins" font-weight="700"><tspan x="-119.396" y="0">Re-Iteration</tspan></text>
      <g id="project-management" transform="translate(499.445 5465.329)">
        <g id="Group_1182" data-name="Group 1182" transform="translate(0 0.592)">
          <g id="Group_1181" data-name="Group 1181">
            <path id="Path_2459" data-name="Path 2459" d="M125.427,34.926h0l0,0L117.21,33.75a2.111,2.111,0,0,1-.969-3.779l6.638-4.978a2.111,2.111,0,0,0,.422-2.956L115.7,11.9a2.111,2.111,0,0,0-2.956-.422l-6.636,4.978a2.111,2.111,0,0,1-3.365-1.987l1.174-8.213a2.111,2.111,0,0,0-1.79-2.39h0L89.592,2.078a2.111,2.111,0,0,0-2.39,1.79h0l-1.174,8.213a2.111,2.111,0,0,1-3.779.969L77.273,6.413a2.111,2.111,0,0,0-2.956-.422l-6.344,4.761a40.85,40.85,0,0,0-8.635,0,40.114,40.114,0,0,0-35.37,35.97c-.057.6-.078,1.191-.108,1.784h-.633a2.111,2.111,0,0,0-2.065,1.689L19.7,57.132,13.858,53.1a2.111,2.111,0,0,0-2.692.245L4.833,59.68a2.111,2.111,0,0,0-.245,2.69L8.6,68.2l-6.94,1.459A2.111,2.111,0,0,0,0,71.729v8.445a2.111,2.111,0,0,0,1.676,2.067L8.616,83.7,4.6,89.534a2.111,2.111,0,0,0,.245,2.69l6.334,6.334a2.111,2.111,0,0,0,2.692.245l5.833-4.022,1.459,6.94a2.111,2.111,0,0,0,2.065,1.689h8.445a2.111,2.111,0,0,0,2.067-1.676l1.459-6.94L41.037,98.8a2.111,2.111,0,0,0,2.69-.245l3.279-3.289v6.017a8.418,8.418,0,0,0,4.223,7.271v11.73a8.445,8.445,0,0,0,8.445,8.445h8.445a8.445,8.445,0,0,0,8.445-8.445v-11.73a8.418,8.418,0,0,0,4.223-7.271V92.931a10.345,10.345,0,0,1,4.883-8.618,40.516,40.516,0,0,0,4.97-3.8l-2.816-3.146a35.942,35.942,0,0,1-4.448,3.4,14.542,14.542,0,0,0-6.811,12.163v8.356a4.222,4.222,0,0,1-4.223,4.223H55.451a4.222,4.222,0,0,1-4.223-4.223V92.756a14.2,14.2,0,0,0-6.7-11.916A35.784,35.784,0,0,1,63.442,14.757a2.294,2.294,0,0,0-.082.23,2.111,2.111,0,0,0,.4,1.564l4.976,6.636a2.067,2.067,0,0,1,.127,2.344,2.1,2.1,0,0,1-2.111,1.016l-8.213-1.174a2.111,2.111,0,0,0-2.39,1.79v0L54.359,39.7a2.112,2.112,0,0,0,1.79,2.39h0l8.213,1.174a2.111,2.111,0,0,1,.969,3.779L58.7,52.023a2.111,2.111,0,0,0-.422,2.956l7.6,10.134a2.111,2.111,0,0,0,2.956.422l6.638-4.976a2.111,2.111,0,0,1,3.355,1.987l-1.172,8.213a2.111,2.111,0,0,0,1.79,2.39h0l12.541,1.792a2.338,2.338,0,0,0,.3.019,2.111,2.111,0,0,0,2.092-1.811l1.172-8.213a2.111,2.111,0,0,1,3.779-.969L104.3,70.6a2.111,2.111,0,0,0,2.956.422l10.134-7.6a2.111,2.111,0,0,0,.422-2.956l-4.976-6.636a2.075,2.075,0,0,1-.127-2.344,2.05,2.05,0,0,1,2.111-1.013l8.213,1.172a2.112,2.112,0,0,0,2.39-1.79h0l1.79-12.541A2.111,2.111,0,0,0,125.427,34.926ZM55.451,109.732h16.89v4.223H55.451Zm0,8.445h16.89v2.111a4.222,4.222,0,0,1-4.223,4.223H59.673a4.222,4.222,0,0,1-4.223-4.223ZM38.643,81.769A39.906,39.906,0,0,0,42.251,84.4a10.306,10.306,0,0,1,4.254,5.4l-4.529,4.52L37.591,91.3A4.222,4.222,0,0,0,31.063,93.9l-1.106,5.272H24.938l-1.106-5.263A4.223,4.223,0,0,0,17.3,91.305L12.917,94.32,9.07,90.482,12.091,86.1a4.223,4.223,0,0,0-2.605-6.53L4.223,78.46V73.444l5.263-1.108a4.223,4.223,0,0,0,2.607-6.518l-3.023-4.4,3.847-3.838,4.389,3.023A4.223,4.223,0,0,0,23.832,58l.369-1.757A40.206,40.206,0,0,0,25.876,63.4,12.668,12.668,0,1,0,38.643,81.769Zm-3.279-2.975a8.433,8.433,0,1,1-7.918-11.287h.08A39.986,39.986,0,0,0,35.364,78.794Zm86.17-31.631-6.123-.874a6.334,6.334,0,0,0-5.962,10.071l3.71,4.947L106.4,66.373l-3.712-4.945a6.334,6.334,0,0,0-11.338,2.9L90.5,70.463l-8.359-1.195.874-6.123a6.334,6.334,0,0,0-10.071-5.964L68,60.89l-5.067-6.756,4.945-3.712a6.334,6.334,0,0,0-2.9-11.338l-6.123-.874,1.195-8.359,6.123.874A6.334,6.334,0,0,0,72.13,20.656L68.407,15.7l6.756-5.067,3.712,4.947a6.334,6.334,0,0,0,11.338-2.9l.874-6.123,8.359,1.193-.874,6.123a6.334,6.334,0,0,0,10.071,5.962l4.947-3.71,5.067,6.756-4.947,3.712a6.334,6.334,0,0,0,2.9,11.338l6.123.874Z" transform="translate(0 -2.057)" fill="#b7cc31"/>
          </g>
        </g>
        <g id="Group_1184" data-name="Group 1184" transform="translate(73.895 20.151)">
          <g id="Group_1183" data-name="Group 1183">
            <path id="Path_2460" data-name="Path 2460" d="M296.89,76.171a16.89,16.89,0,1,0,16.89,16.89A16.89,16.89,0,0,0,296.89,76.171Zm0,29.558a12.668,12.668,0,1,1,12.668-12.668A12.668,12.668,0,0,1,296.89,105.729Z" transform="translate(-280 -76.171)" fill="#b7cc31"/>
          </g>
        </g>
        <g id="Group_1186" data-name="Group 1186" transform="translate(61.784 93.489)">
          <g id="Group_1185" data-name="Group 1185">
            <rect id="Rectangle_611" data-name="Rectangle 611" width="4.223" height="6.334" fill="#b7cc31"/>
          </g>
        </g>
        <g id="Group_1188" data-name="Group 1188" transform="translate(34.32 24.142)">
          <g id="Group_1187" data-name="Group 1187">
            <path id="Path_2461" data-name="Path 2461" d="M150.385,139.9a25.335,25.335,0,0,1-4.277-45.04l-2.257-3.572a29.558,29.558,0,0,0,5,52.541,13.479,13.479,0,0,1,8.656,12.583h4.223A17.665,17.665,0,0,0,150.385,139.9Z" transform="translate(-130.044 -91.291)" fill="#b7cc31"/>
          </g>
        </g>
        <g id="Group_1190" data-name="Group 1190" transform="translate(104.01 78.71)">
          <g id="Group_1189" data-name="Group 1189">
            <rect id="Rectangle_612" data-name="Rectangle 612" width="14.779" height="4.223" fill="#b7cc31"/>
          </g>
        </g>
        <g id="Group_1192" data-name="Group 1192" transform="translate(100.548 89.754)">
          <g id="Group_1191" data-name="Group 1191">
            <rect id="Rectangle_613" data-name="Rectangle 613" width="4.223" height="16.489" transform="matrix(0.64, -0.768, 0.768, 0.64, 0, 3.244)" fill="#b7cc31"/>
          </g>
        </g>
        <g id="Group_1194" data-name="Group 1194" transform="translate(91.342 95.6)">
          <g id="Group_1193" data-name="Group 1193">
            <rect id="Rectangle_614" data-name="Rectangle 614" width="4.223" height="14.779" fill="#b7cc31"/>
          </g>
        </g>
        <g id="Group_1196" data-name="Group 1196" transform="translate(2.156 32.324)">
          <g id="Group_1195" data-name="Group 1195">
            <rect id="Rectangle_615" data-name="Rectangle 615" width="17.41" height="4.22" transform="translate(0 4.222) rotate(-14.035)" fill="#b7cc31"/>
          </g>
        </g>
        <g id="Group_1198" data-name="Group 1198" transform="translate(5.663 11.545)">
          <g id="Group_1197" data-name="Group 1197">
            <rect id="Rectangle_616" data-name="Rectangle 616" width="4.22" height="18.161" transform="matrix(0.581, -0.814, 0.814, 0.581, 0, 3.434)" fill="#b7cc31"/>
          </g>
        </g>
        <g id="Group_1200" data-name="Group 1200" transform="translate(23.753 0.067)">
          <g id="Group_1199" data-name="Group 1199" transform="translate(0 0)">
            <rect id="Rectangle_617" data-name="Rectangle 617" width="4.223" height="17.433" transform="matrix(0.969, -0.248, 0.248, 0.969, 0, 1.046)" fill="#b7cc31"/>
          </g>
        </g>
      </g>
      <g id="Group_1223" data-name="Group 1223">
        <line id="Line_28-4" data-name="Line 28" x2="122" y2="1" transform="translate(749.5 5540.5)" fill="none" stroke="#b7cc31" stroke-width="1"/>
        <g id="Polygon_2-4" data-name="Polygon 2" transform="translate(886.5 5532) rotate(90)" fill="#b7cc31">
          <path d="M 17.11689949035645 14.5 L 0.8830999732017517 14.5 L 9 0.971833348274231 L 17.11689949035645 14.5 Z" stroke="none"/>
          <path d="M 9 1.943650245666504 L 1.766189575195313 14 L 16.23381042480469 14 L 9 1.943650245666504 M 9 0 L 18 15 L 0 15 L 9 0 Z" stroke="none" fill="#b7cc31"/>
        </g>
      </g>
      <g id="Group_1224" data-name="Group 1224" transform="translate(409)">
        <line id="Line_28-5" data-name="Line 28" x2="122" y2="1" transform="translate(749.5 5540.5)" fill="none" stroke="#b7cc31" stroke-width="1"/>
        <g id="Polygon_2-5" data-name="Polygon 2" transform="translate(886.5 5532) rotate(90)" fill="#b7cc31">
          <path d="M 17.11689949035645 14.5 L 0.8830999732017517 14.5 L 9 0.971833348274231 L 17.11689949035645 14.5 Z" stroke="none"/>
          <path d="M 9 1.943650245666504 L 1.766189575195313 14 L 16.23381042480469 14 L 9 1.943650245666504 M 9 0 L 18 15 L 0 15 L 9 0 Z" stroke="none" fill="#b7cc31"/>
        </g>
      </g>
      <g id="procedure" transform="translate(988.314 5499.457)">
        <path id="Path_2445" data-name="Path 2445" d="M5.136,27.41l-1.91,3.215,6.9,6.9,3.215-1.912c.409.19.824.363,1.235.517l.921,3.621h9.759l.921-3.619c.411-.154.825-.326,1.235-.517l3.215,1.912,6.9-6.9-1.91-3.215c.19-.409.363-.823.517-1.235l3.618-.922V15.5l-3.619-.921c-.154-.412-.327-.825-.517-1.236l1.91-3.215-6.9-6.9L27.41,5.135c-.409-.19-.824-.363-1.235-.517L25.254,1H15.5l-.92,3.619c-.411.154-.825.326-1.235.517L10.126,3.224l-6.9,6.9,1.91,3.215q-.285.616-.517,1.236L1,15.5v9.759l3.619.921q.231.618.517,1.234ZM3.583,17.5l3.041-.774.217-.682a14.15,14.15,0,0,1,.911-2.174l.329-.637L6.472,10.532l4.06-4.06,2.706,1.609.636-.328a14.18,14.18,0,0,1,2.178-.909l.682-.218L17.5,3.583h5.742l.772,3.041.682.218a14.181,14.181,0,0,1,2.178.909l.636.328L30.22,6.47l4.06,4.06L32.67,13.236l.329.637a14.2,14.2,0,0,1,.911,2.174l.217.682,3.041.775v5.742l-3.041.774-.217.682A14.216,14.216,0,0,1,33,26.875l-.331.637L34.28,30.22l-4.06,4.06L27.514,32.67,26.878,33a14.18,14.18,0,0,1-2.178.909l-.682.218-.771,3.042H17.505l-.772-3.041-.682-.218A14.181,14.181,0,0,1,13.873,33l-.636-.328-2.706,1.609-4.06-4.06,1.609-2.707-.331-.637A14.216,14.216,0,0,1,6.841,24.7l-.217-.682-3.041-.774Z" transform="translate(0 0)" fill="#b7cc31"/>
        <path id="Path_2446" data-name="Path 2446" d="M18.625,30.251A11.625,11.625,0,1,0,7,18.625,11.639,11.639,0,0,0,18.625,30.251Zm0-20.667a9.042,9.042,0,1,1-9.042,9.042A9.053,9.053,0,0,1,18.625,9.583Z" transform="translate(1.75 1.75)" fill="#b7cc31"/>
        <path id="Path_2447" data-name="Path 2447" d="M68.21,53H31.737L24.87,56.433a3.382,3.382,0,0,0,0,6.05l6.868,3.433H68.21A6.459,6.459,0,1,0,68.21,53ZM33.334,60.75h31v2.583h-31Zm31-2.583h-31V55.583h31ZM25.583,59.459a.8.8,0,0,1,.442-.714l4.725-2.363v6.154l-4.725-2.363A.8.8,0,0,1,25.583,59.459ZM68.21,63.334H66.918v-7.75H68.21a3.875,3.875,0,1,1,0,7.75Z" transform="translate(6.418 15.169)" fill="#b7cc31"/>
        <path id="Path_2448" data-name="Path 2448" d="M68.169,15.875h-.183a5.142,5.142,0,0,0-9.967,0H42.335v2.583H58.019a5.142,5.142,0,0,0,9.967,0h.183A10.346,10.346,0,0,1,78.5,28.792v7.75A10.346,10.346,0,0,1,68.169,46.876H64.11a5.142,5.142,0,0,0-9.967,0H46.026a5.142,5.142,0,0,0-9.967,0H27.942a5.142,5.142,0,0,0-9.967,0H13.917a12.917,12.917,0,1,0,0,25.834H26.834V70.127H13.917a10.334,10.334,0,0,1,0-20.667h4.059a5.142,5.142,0,0,0,9.967,0H36.06a5.142,5.142,0,0,0,9.967,0h8.117a5.142,5.142,0,0,0,9.967,0h4.059A12.932,12.932,0,0,0,81.086,36.542v-7.75A12.932,12.932,0,0,0,68.169,15.875ZM63,19.75a2.583,2.583,0,1,1,2.583-2.583A2.586,2.586,0,0,1,63,19.75Zm-40.043,31a2.583,2.583,0,1,1,2.583-2.583A2.586,2.586,0,0,1,22.959,50.751Zm18.084,0a2.583,2.583,0,1,1,2.583-2.583A2.586,2.586,0,0,1,41.043,50.751Zm18.084,0a2.583,2.583,0,1,1,2.583-2.583A2.586,2.586,0,0,1,59.127,50.751Z" transform="translate(0 3.209)" fill="#b7cc31"/>
        <path id="Path_2449" data-name="Path 2449" d="M33,22H51.084v2.583H33Z" transform="translate(9.335 6.126)" fill="#b7cc31"/>
        <path id="Path_2450" data-name="Path 2450" d="M33,26H51.084v2.583H33Z" transform="translate(9.335 7.293)" fill="#b7cc31"/>
        <path id="Path_2451" data-name="Path 2451" d="M41,30h2.583v2.583H41Z" transform="translate(11.668 8.46)" fill="#b7cc31"/>
        <path id="Path_2452" data-name="Path 2452" d="M37,30h2.583v2.583H37Z" transform="translate(10.501 8.46)" fill="#b7cc31"/>
        <path id="Path_2453" data-name="Path 2453" d="M45,30h2.583v2.583H45Z" transform="translate(12.835 8.46)" fill="#b7cc31"/>
        <path id="Path_2454" data-name="Path 2454" d="M33,30h2.583v2.583H33Z" transform="translate(9.335 8.46)" fill="#b7cc31"/>
        <path id="Path_2455" data-name="Path 2455" d="M17,48h2.583v2.583H17Z" transform="translate(4.667 13.71)" fill="#b7cc31"/>
        <path id="Path_2456" data-name="Path 2456" d="M13,48h2.583v2.583H13Z" transform="translate(3.5 13.71)" fill="#b7cc31"/>
        <path id="Path_2457" data-name="Path 2457" d="M5,48H7.583v2.583H5Z" transform="translate(1.167 13.71)" fill="#b7cc31"/>
        <path id="Path_2458" data-name="Path 2458" d="M9,48h2.583v2.583H9Z" transform="translate(2.334 13.71)" fill="#b7cc31"/>
      </g>
      <g id="iteration" transform="translate(1370.43 5494.215)">
        <path id="Path_2432" data-name="Path 2432" d="M79.024,68.2a11.686,11.686,0,0,0-10.106,5.843H60.024A37.979,37.979,0,1,0,7.472,37.52H2.865L13.288,50.028,23.711,37.52h-4.54A26.3,26.3,0,1,1,45.426,65.276H29.357v17.53H67.722A11.681,11.681,0,1,0,79.024,68.2Zm-33.6,0A29.216,29.216,0,1,0,16.21,38.981v1.461h1.264l-4.185,5.022L9.1,40.442h1.264V38.981A35.059,35.059,0,1,1,45.426,74.041H32.278V68.2ZM32.278,79.884V76.962H67.722a11.617,11.617,0,0,0-.384,2.922Zm46.746,8.765a8.765,8.765,0,1,1,8.765-8.765A8.774,8.774,0,0,1,79.024,88.649Z" transform="translate(0.859)" fill="#b7cc31"/>
        <path id="Path_2433" data-name="Path 2433" d="M61.519,52.293l-6.271,6.271-1.889-1.889-2.066,2.066L55.247,62.7l8.337-8.337Z" transform="translate(23.176 23.636)" fill="#b7cc31"/>
        <path id="Path_2434" data-name="Path 2434" d="M22.912,37H5.382A4.388,4.388,0,0,0,1,41.382V70.6a4.388,4.388,0,0,0,4.382,4.382h17.53A4.388,4.388,0,0,0,27.295,70.6V41.382A4.388,4.388,0,0,0,22.912,37Zm1.461,33.6a1.462,1.462,0,0,1-1.461,1.461H5.382A1.462,1.462,0,0,1,3.922,70.6V41.382a1.462,1.462,0,0,1,1.461-1.461h17.53a1.462,1.462,0,0,1,1.461,1.461Z" transform="translate(0 16.589)" fill="#b7cc31"/>
        <path id="Path_2435" data-name="Path 2435" d="M36.226,40.451A10.226,10.226,0,1,0,26,30.226,10.237,10.237,0,0,0,36.226,40.451Zm0-17.53a7.3,7.3,0,1,1-7.3,7.3A7.312,7.312,0,0,1,36.226,22.922Z" transform="translate(11.52 8.755)" fill="#b7cc31"/>
        <path id="Path_2436" data-name="Path 2436" d="M20,38.514l3.529.881-1.871,3.119,7.811,7.809,3.117-1.871.881,3.529H44.514l.881-3.529,3.117,1.871,7.811-7.809-1.871-3.119,3.529-.881V27.467l-3.529-.881,1.871-3.117-7.811-7.811-3.117,1.871L44.514,14H33.467l-.881,3.529-3.117-1.871-7.811,7.811,1.871,3.117L20,27.467Zm2.922-8.765,3.573-.893.733-1.785-1.893-3.152,4.584-4.584,3.152,1.893,1.785-.733.893-3.573h6.483l.893,3.573,1.785.733,3.152-1.893,4.584,4.584-1.893,3.152.733,1.785,3.573.893v6.483l-2.847.711-.78.3-.681,1.662,1.893,3.155-4.584,4.585-3.152-1.893-1.782.725-.894,3.58H35.749l-.711-2.847-.3-.782-1.668-.678L29.92,46.646l-4.584-4.585,1.893-3.155-.735-1.782-3.573-.891Z" transform="translate(8.755 5.991)" fill="#b7cc31"/>
        <path id="Path_2437" data-name="Path 2437" d="M34.382,32.765A4.382,4.382,0,1,0,30,28.382,4.388,4.388,0,0,0,34.382,32.765Zm0-5.843a1.461,1.461,0,1,1-1.461,1.461A1.463,1.463,0,0,1,34.382,26.922Z" transform="translate(13.364 10.599)" fill="#b7cc31"/>
        <path id="Path_2438" data-name="Path 2438" d="M5,41H19.608v2.922H5Z" transform="translate(1.843 18.432)" fill="#b7cc31"/>
        <path id="Path_2439" data-name="Path 2439" d="M5,45H19.608v2.922H5Z" transform="translate(1.843 20.276)" fill="#b7cc31"/>
        <path id="Path_2440" data-name="Path 2440" d="M5,49H19.608v2.922H5Z" transform="translate(1.843 22.119)" fill="#b7cc31"/>
        <path id="Path_2441" data-name="Path 2441" d="M5,53H19.608v2.922H5Z" transform="translate(1.843 23.962)" fill="#b7cc31"/>
        <path id="Path_2442" data-name="Path 2442" d="M13,57h2.922v2.922H13Z" transform="translate(5.53 25.805)" fill="#b7cc31"/>
        <path id="Path_2443" data-name="Path 2443" d="M9,57h2.922v2.922H9Z" transform="translate(3.686 25.805)" fill="#b7cc31"/>
        <path id="Path_2444" data-name="Path 2444" d="M5,57H7.922v2.922H5Z" transform="translate(1.843 25.805)" fill="#b7cc31"/>
      </g>
      <text id="make_cycle" data-name="make cycle" transform="translate(960 5381)" fill="rgba(0,0,0,0.87)" font-size="37" font-family="Poppins-Bold, Poppins" font-weight="700"><tspan x="-110.13" y="0">Make Cycle</tspan></text>
    </g>
  </g>
</svg>
