<svg xmlns="http://www.w3.org/2000/svg" width="347.401" height="88.118" viewBox="0 0 347.401 88.118">
  <g id="Group_1517" data-name="Group 1517" transform="translate(-119.688 -45.774)">
    <g id="Group_1518" data-name="Group 1518" transform="translate(119.688 45.774)">
      <path id="Path_846" data-name="Path 846" d="M76.733-84.126c-4.08-4.651-11.456-6.644-20.891-6.644H28.458a3.922,3.922,0,0,0-3.875,3.308l-11.4,72.32a2.35,2.35,0,0,0,.536,1.893,2.35,2.35,0,0,0,1.787.822H32.414L36.66-39.358l-.132.843a3.91,3.91,0,0,1,3.858-3.308H48.42c15.782,0,28.14-6.41,31.75-24.954q.161-.823.28-1.6c1.072-6.854-.007-11.519-3.715-15.743" transform="translate(-13.156 90.771)" fill="#003087"/>
      <path id="Path_847" data-name="Path 847" d="M248.3-53.168c-1.033,6.786-6.215,6.786-11.227,6.786h-2.852l2-12.67a1.574,1.574,0,0,1,1.555-1.328h1.309c3.412,0,6.635,0,8.3,1.943.992,1.163,1.292,2.888.916,5.27m-2.181-17.705h-18.9a2.632,2.632,0,0,0-2.6,2.218l-7.639,48.473a1.577,1.577,0,0,0,.359,1.268,1.577,1.577,0,0,0,1.2.553h9.7a1.839,1.839,0,0,0,1.816-1.55l2.169-13.747a2.627,2.627,0,0,1,2.593-2.218H240.8c12.455,0,19.641-6.023,21.517-17.969.846-5.221.034-9.326-2.411-12.2-2.688-3.159-7.453-4.831-13.779-4.831" transform="translate(22.239 94.226)" fill="#b7cc31"/>
      <path id="Path_848" data-name="Path 848" d="M133.419-53.168c-1.033,6.786-6.215,6.786-11.229,6.786h-2.852l2-12.67a1.574,1.574,0,0,1,1.555-1.328H124.2c3.412,0,6.635,0,8.3,1.943.994,1.163,1.294,2.888.919,5.27m-2.181-17.705h-18.9a2.63,2.63,0,0,0-2.6,2.218L102.1-20.182a1.575,1.575,0,0,0,.358,1.269,1.575,1.575,0,0,0,1.2.552h9.028a2.627,2.627,0,0,0,2.593-2.218l2.064-13.077a2.625,2.625,0,0,1,2.593-2.218h5.981c12.455,0,19.641-6.025,21.517-17.971.846-5.221.034-9.326-2.411-12.2-2.688-3.159-7.454-4.831-13.779-4.831m43.888,35.111a10.1,10.1,0,0,1-10.218,8.645,7.642,7.642,0,0,1-6.079-2.445,7.684,7.684,0,0,1-1.419-6.357,10.128,10.128,0,0,1,10.144-8.711,7.63,7.63,0,0,1,6.035,2.467,7.793,7.793,0,0,1,1.536,6.4m12.616-17.622h-9.053a1.577,1.577,0,0,0-1.56,1.333l-.395,2.53-.634-.916c-1.96-2.844-6.33-3.8-10.693-3.8-10,0-18.544,7.58-20.206,18.207-.865,5.306.363,10.374,3.371,13.91,2.762,3.249,6.7,4.6,11.4,4.6A17.333,17.333,0,0,0,172.508-22.7l-.4,2.515a1.574,1.574,0,0,0,.359,1.27,1.574,1.574,0,0,0,1.2.551h8.151a2.627,2.627,0,0,0,2.6-2.218L189.3-51.564a1.577,1.577,0,0,0-.36-1.27,1.577,1.577,0,0,0-1.2-.551" transform="translate(2.287 94.226)" fill="#87923f"/>
      <path id="Path_849" data-name="Path 849" d="M283.672-38.226a10.1,10.1,0,0,1-10.218,8.645,7.642,7.642,0,0,1-6.079-2.445,7.685,7.685,0,0,1-1.419-6.357A10.127,10.127,0,0,1,276.1-47.094a7.629,7.629,0,0,1,6.035,2.467,7.793,7.793,0,0,1,1.536,6.4m12.616-17.622h-9.053a1.577,1.577,0,0,0-1.56,1.333l-.395,2.53-.634-.916c-1.96-2.844-6.33-3.8-10.693-3.8-10,0-18.541,7.58-20.206,18.207-.865,5.306.366,10.374,3.373,13.91,2.762,3.249,6.7,4.6,11.4,4.6a17.335,17.335,0,0,0,12.536-5.177l-.4,2.515a1.571,1.571,0,0,0,.355,1.27,1.57,1.57,0,0,0,1.2.551h8.148a2.632,2.632,0,0,0,2.6-2.218l4.894-30.987a1.576,1.576,0,0,0-.361-1.27,1.577,1.577,0,0,0-1.2-.551" transform="translate(28.58 96.688)" fill="#b7cc31"/>
      <path id="Path_850" data-name="Path 850" d="M222.39-55.972h-9.1a2.616,2.616,0,0,0-2.169,1.153L198.566-36.334,193.246-54.1a2.633,2.633,0,0,0-2.518-1.877h-8.943a1.577,1.577,0,0,0-1.282.66,1.577,1.577,0,0,0-.21,1.427l10.018,29.41-9.423,13.3a1.577,1.577,0,0,0-.112,1.634,1.577,1.577,0,0,0,1.4.852h9.092a2.632,2.632,0,0,0,2.157-1.129L223.681-53.5a1.574,1.574,0,0,0,.1-1.628,1.574,1.574,0,0,0-1.4-.846" transform="translate(15.857 96.814)" fill="#87923f"/>
      <path id="Path_851" data-name="Path 851" d="M300.195-69.54l-7.761,49.36a1.578,1.578,0,0,0,.36,1.269,1.577,1.577,0,0,0,1.2.552h7.8a2.629,2.629,0,0,0,2.6-2.218l7.651-48.475a1.574,1.574,0,0,0-.359-1.27,1.574,1.574,0,0,0-1.2-.551h-8.731a1.572,1.572,0,0,0-1.557,1.331" transform="translate(35.341 94.226)" fill="#b7cc31"/>
      <path id="Path_852" data-name="Path 852" d="M76.733-84.126c-4.08-4.651-11.456-6.644-20.891-6.644H28.458a3.922,3.922,0,0,0-3.875,3.308l-11.4,72.32a2.35,2.35,0,0,0,.536,1.893,2.35,2.35,0,0,0,1.787.822H32.414L36.66-39.358l-.132.843a3.91,3.91,0,0,1,3.858-3.308H48.42c15.782,0,28.14-6.41,31.75-24.954q.161-.823.28-1.6c1.072-6.854-.007-11.519-3.715-15.743" transform="translate(-13.156 90.771)" fill="#003087"/>
      <path id="Path_853" data-name="Path 853" d="M41.221-68.291a3.432,3.432,0,0,1,3.386-2.893H66.075a45.136,45.136,0,0,1,7.081.512,29.758,29.758,0,0,1,3.51.785,19.4,19.4,0,0,1,3.78,1.506c1.077-6.856,0-11.519-3.712-15.746-4.083-4.648-11.456-6.642-20.891-6.642H28.456a3.922,3.922,0,0,0-3.871,3.308l-11.4,72.313a2.35,2.35,0,0,0,.534,1.894,2.35,2.35,0,0,0,1.787.824H32.412l4.246-26.933Z" transform="translate(-13.154 90.771)" fill="#b7cc31"/>
      <path id="Path_854" data-name="Path 854" d="M77.776-71.7q-.125.8-.28,1.6c-3.61,18.541-15.967,24.954-31.75,24.954H37.71a3.9,3.9,0,0,0-3.856,3.308L29.739-15.745l-1.17,7.4a2.057,2.057,0,0,0,.468,1.658,2.057,2.057,0,0,0,1.565.721H44.854a3.431,3.431,0,0,0,3.386-2.893l.139-.726,2.686-17.023.171-.941a3.429,3.429,0,0,1,3.388-2.893h2.133c13.805,0,24.615-5.606,27.774-21.829,1.316-6.776.634-12.438-2.852-16.413a13.611,13.611,0,0,0-3.9-3.01" transform="translate(-10.483 94.083)" fill="#87923f"/>
      <path id="Path_855" data-name="Path 855" d="M73.21-72.785q-.826-.245-1.7-.439c-.585-.129-1.189-.244-1.809-.341a44.264,44.264,0,0,0-7.083-.519H41.148a3.422,3.422,0,0,0-3.386,2.9L33.2-42.256l-.132.841a3.9,3.9,0,0,1,3.856-3.308H44.96c15.782,0,28.14-6.41,31.75-24.954.107-.548.2-1.08.28-1.6a19.493,19.493,0,0,0-2.969-1.253c-.266-.088-.536-.171-.812-.254" transform="translate(-9.697 93.669)" fill="#ced2b6"/>
    </g>
  </g>
</svg>
