<svg id="integration" xmlns="http://www.w3.org/2000/svg" width="512" height="512" viewBox="0 0 512 512">
  <path id="Path_1412" data-name="Path 1412" d="M357.019,320.662l-18.354-18.355a93.942,93.942,0,0,0,7.476-17.129h26.952a7.5,7.5,0,0,0,7.5-7.5V234.322a7.5,7.5,0,0,0-7.5-7.5H346.14a93.959,93.959,0,0,0-7.476-17.128l18.354-18.355a7.5,7.5,0,0,0,0-10.6l-28.186-28.188a7.5,7.5,0,0,0-10.608,0L299.16,171.611a94.274,94.274,0,0,0-14.069-5.836V138.822a7.5,7.5,0,0,0-7.5-7.5H237.73a7.5,7.5,0,0,0-7.5,7.5v25.952a93.861,93.861,0,0,0-17.392,6.837l-19.064-19.065a7.5,7.5,0,0,0-10.608,0L154.98,180.734a7.5,7.5,0,0,0,0,10.6l18.354,18.355a93.961,93.961,0,0,0-7.476,17.128H138.906a7.5,7.5,0,0,0-7.5,7.5v43.356a7.5,7.5,0,0,0,7.5,7.5h26.952a93.941,93.941,0,0,0,7.476,17.129L154.98,320.662a7.5,7.5,0,0,0,0,10.606l28.186,28.186a7.5,7.5,0,0,0,10.606,0l19.065-19.064a93.9,93.9,0,0,0,17.392,6.837v25.952a7.5,7.5,0,0,0,7.5,7.5H277.59a7.5,7.5,0,0,0,7.5-7.5V346.226a94.274,94.274,0,0,0,14.069-5.836l19.065,19.064a7.5,7.5,0,0,0,10.606,0l28.186-28.186a7.5,7.5,0,0,0,0-10.606Zm-33.49,22.882-17.752-17.751a7.5,7.5,0,0,0-9.134-1.144,79.208,79.208,0,0,1-20.9,8.67,7.5,7.5,0,0,0-5.648,7.268v25.092H245.23V341.36a7.5,7.5,0,0,0-5.937-7.335,79.041,79.041,0,0,1-23.938-9.375,7.5,7.5,0,0,0-9.134,1.144l-17.752,17.751L170.89,325.966l17.2-17.2a7.5,7.5,0,0,0,.989-9.383,79.121,79.121,0,0,1-10.313-23.555,7.5,7.5,0,0,0-7.268-5.648H146.406V241.823H171.5a7.5,7.5,0,0,0,7.268-5.648,79.2,79.2,0,0,1,10.313-23.554,7.5,7.5,0,0,0-.989-9.383l-17.2-17.2,17.579-17.58,17.751,17.752a7.5,7.5,0,0,0,9.135,1.144,79.021,79.021,0,0,1,23.938-9.375,7.5,7.5,0,0,0,5.937-7.335V146.324h24.861v25.092a7.5,7.5,0,0,0,5.648,7.268,79.207,79.207,0,0,1,20.9,8.67,7.5,7.5,0,0,0,9.135-1.144l17.751-17.752,17.579,17.58-17.2,17.2a7.5,7.5,0,0,0-.989,9.383,79.14,79.14,0,0,1,10.313,23.554,7.5,7.5,0,0,0,7.268,5.648h25.092V270.18H340.5a7.5,7.5,0,0,0-7.268,5.648,79.183,79.183,0,0,1-10.313,23.555,7.5,7.5,0,0,0,.989,9.383l17.2,17.2Z" fill="#b7cc31"/>
  <path id="Path_1413" data-name="Path 1413" d="M256,218.2a38.1,38.1,0,0,0-5.739.434,7.5,7.5,0,0,0,2.264,14.828A23.068,23.068,0,0,1,256,233.2,22.777,22.777,0,1,1,233.462,252.5a7.5,7.5,0,1,0-14.826-2.28A37.808,37.808,0,1,0,256,218.2Z" fill="#b7cc31"/>
  <path id="Path_1414" data-name="Path 1414" d="M443.891,45.457a22.652,22.652,0,1,0,22.652,22.652A22.678,22.678,0,0,0,443.891,45.457Zm0,30.305a7.652,7.652,0,1,1,7.652-7.652A7.66,7.66,0,0,1,443.891,75.762Z" fill="#b7cc31"/>
  <path id="Path_1415" data-name="Path 1415" d="M504.5,45.457H491.751a52.723,52.723,0,0,0-25.208-25.208V7.5a7.5,7.5,0,0,0-7.5-7.5h-30.3a7.5,7.5,0,0,0-7.5,7.5V20.248a52.727,52.727,0,0,0-25.209,25.209H383.28a7.5,7.5,0,0,0-7.5,7.5V83.262a7.5,7.5,0,0,0,7.5,7.5h12.748a52.731,52.731,0,0,0,25.21,25.21V128.72a7.5,7.5,0,0,0,7.5,7.5h30.3a7.5,7.5,0,0,0,7.5-7.5V115.971a52.727,52.727,0,0,0,25.209-25.209H504.5a7.5,7.5,0,0,0,7.5-7.5V52.957a7.5,7.5,0,0,0-7.5-7.5ZM497,75.762H486.741a7.5,7.5,0,0,0-7.068,4.993,38.4,38.4,0,0,1-23.137,23.138,7.5,7.5,0,0,0-4.993,7.068V121.22h-15.3V110.961a7.5,7.5,0,0,0-4.993-7.068,38.4,38.4,0,0,1-23.138-23.138,7.5,7.5,0,0,0-7.068-4.993H390.78V60.457h10.259a7.5,7.5,0,0,0,7.068-4.993,38.4,38.4,0,0,1,23.138-23.137,7.5,7.5,0,0,0,4.993-7.068V15h15.3V25.259a7.5,7.5,0,0,0,4.993,7.068,38.4,38.4,0,0,1,23.137,23.137,7.5,7.5,0,0,0,7.068,4.993H497Z" fill="#b7cc31"/>
  <path id="Path_1416" data-name="Path 1416" d="M466.543,443.891a22.652,22.652,0,1,0-22.652,22.652A22.678,22.678,0,0,0,466.543,443.891Zm-30.3,0a7.652,7.652,0,1,1,7.652,7.652A7.66,7.66,0,0,1,436.238,443.891Z" fill="#b7cc31"/>
  <path id="Path_1417" data-name="Path 1417" d="M504.5,421.238H491.752a52.727,52.727,0,0,0-25.209-25.209V383.28a7.5,7.5,0,0,0-7.5-7.5h-30.3a7.5,7.5,0,0,0-7.5,7.5v13.336a7.5,7.5,0,0,0,8.232,12.172q.876-.361,1.772-.68a7.5,7.5,0,0,0,5-7.069V390.78h15.3v10.259a7.5,7.5,0,0,0,4.993,7.068,38.4,38.4,0,0,1,23.137,23.138,7.5,7.5,0,0,0,7.068,4.993H497v15.3H486.741a7.5,7.5,0,0,0-7.068,4.993,38.4,38.4,0,0,1-23.137,23.137,7.5,7.5,0,0,0-4.993,7.068V497h-15.3V486.741a7.5,7.5,0,0,0-4.993-7.068,38.4,38.4,0,0,1-23.138-23.137,7.5,7.5,0,0,0-7.068-4.993H390.78v-15.3h10.259a7.5,7.5,0,0,0,7.07-5q.334-.945.718-1.865a7.5,7.5,0,0,0-12.275-8.138H383.28a7.5,7.5,0,0,0-7.5,7.5v30.3a7.5,7.5,0,0,0,7.5,7.5h12.749a52.727,52.727,0,0,0,25.209,25.209V504.5a7.5,7.5,0,0,0,7.5,7.5h30.3a7.5,7.5,0,0,0,7.5-7.5V491.751a52.723,52.723,0,0,0,25.208-25.208H504.5a7.5,7.5,0,0,0,7.5-7.5v-30.3A7.5,7.5,0,0,0,504.5,421.238Z" fill="#b7cc31"/>
  <path id="Path_1418" data-name="Path 1418" d="M90.762,68.109A22.653,22.653,0,1,0,68.109,90.761,22.678,22.678,0,0,0,90.762,68.109Zm-30.305,0a7.652,7.652,0,1,1,7.652,7.652A7.66,7.66,0,0,1,60.457,68.109Z" fill="#b7cc31"/>
  <path id="Path_1419" data-name="Path 1419" d="M7.5,90.762H20.248a52.727,52.727,0,0,0,25.209,25.209V128.72a7.5,7.5,0,0,0,7.5,7.5H83.262a7.5,7.5,0,0,0,7.5-7.5V115.972a52.731,52.731,0,0,0,25.21-25.21H128.72a7.5,7.5,0,0,0,7.5-7.5V52.957a7.5,7.5,0,0,0-7.5-7.5H115.971A52.727,52.727,0,0,0,90.762,20.248V7.5a7.5,7.5,0,0,0-7.5-7.5H52.957a7.5,7.5,0,0,0-7.5,7.5V20.837a7.5,7.5,0,0,0,8.236,12.169q.873-.362,1.771-.68a7.5,7.5,0,0,0,4.993-7.068V15H75.762V25.259a7.5,7.5,0,0,0,4.993,7.068,38.4,38.4,0,0,1,23.138,23.137,7.5,7.5,0,0,0,7.068,4.993H121.22v15.3H110.961a7.5,7.5,0,0,0-7.068,4.993,38.4,38.4,0,0,1-23.138,23.138,7.5,7.5,0,0,0-4.993,7.068V121.22H60.457V110.961a7.5,7.5,0,0,0-4.993-7.068A38.4,38.4,0,0,1,32.327,80.755a7.5,7.5,0,0,0-7.068-4.993H15V60.457H25.259a7.5,7.5,0,0,0,7.069-4.994q.333-.942.716-1.859a7.5,7.5,0,0,0-12.27-8.147H7.5a7.5,7.5,0,0,0-7.5,7.5V83.262a7.5,7.5,0,0,0,7.5,7.5Z" fill="#b7cc31"/>
  <path id="Path_1420" data-name="Path 1420" d="M128.72,421.238H115.972a52.73,52.73,0,0,0-25.21-25.21V383.28a7.5,7.5,0,0,0-7.5-7.5H52.957a7.5,7.5,0,0,0-7.5,7.5v12.749a52.727,52.727,0,0,0-25.209,25.209H7.5a7.5,7.5,0,0,0-7.5,7.5v30.3a7.5,7.5,0,0,0,7.5,7.5H20.249a52.723,52.723,0,0,0,25.208,25.208V504.5a7.5,7.5,0,0,0,7.5,7.5H83.262a7.5,7.5,0,0,0,7.5-7.5V491.752a52.727,52.727,0,0,0,25.209-25.209H128.72a7.5,7.5,0,0,0,7.5-7.5v-30.3a7.5,7.5,0,0,0-7.5-7.5Zm-7.5,30.3H110.961a7.5,7.5,0,0,0-7.068,4.993,38.4,38.4,0,0,1-23.138,23.137,7.5,7.5,0,0,0-4.993,7.068V497H60.457V486.741a7.5,7.5,0,0,0-4.993-7.068,38.4,38.4,0,0,1-23.137-23.137,7.5,7.5,0,0,0-7.068-4.993H15v-15.3H25.259a7.5,7.5,0,0,0,7.068-4.993,38.4,38.4,0,0,1,23.137-23.138,7.5,7.5,0,0,0,4.993-7.068V390.78h15.3v10.259a7.5,7.5,0,0,0,4.993,7.068,38.4,38.4,0,0,1,23.138,23.138,7.5,7.5,0,0,0,7.068,4.993H121.22Z" fill="#b7cc31"/>
  <path id="Path_1421" data-name="Path 1421" d="M68.109,421.238A22.652,22.652,0,1,0,90.761,443.89,22.678,22.678,0,0,0,68.109,421.238Zm0,30.3a7.652,7.652,0,1,1,7.652-7.652A7.66,7.66,0,0,1,68.109,451.543Z" fill="#b7cc31"/>
  <path id="Path_1422" data-name="Path 1422" d="M123.922,113.314a7.5,7.5,0,0,0-10.607,10.607l21.542,21.542H128.72a7.5,7.5,0,0,0,0,15h24.244a7.578,7.578,0,0,0,7.5-7.505V128.72a7.5,7.5,0,0,0-15,0v6.137Z" fill="#b7cc31"/>
  <path id="Path_1423" data-name="Path 1423" d="M351.574,153.706a7.578,7.578,0,0,0,7.463,6.758h24.244a7.5,7.5,0,0,0,0-15h-6.137l21.542-21.542a7.5,7.5,0,0,0-10.607-10.607l-21.542,21.542V128.72a7.5,7.5,0,0,0-15,0v24.239A7.171,7.171,0,0,0,351.574,153.706Z" fill="#b7cc31"/>
  <path id="Path_1424" data-name="Path 1424" d="M160.427,356.276a7.576,7.576,0,0,0-7.463-6.759H128.72a7.5,7.5,0,0,0,0,15h6.137l-21.542,21.541a7.5,7.5,0,0,0,10.606,10.607l21.543-21.542v6.137a7.5,7.5,0,0,0,15,0V357.02c0-.249-.013-.5-.037-.744Z" fill="#b7cc31"/>
  <path id="Path_1425" data-name="Path 1425" d="M388.079,396.665a7.5,7.5,0,1,0,10.606-10.607l-21.542-21.541h6.137a7.5,7.5,0,0,0,0-15H359.036a7.58,7.58,0,0,0-7.5,7.5v24.24a7.5,7.5,0,0,0,15,0v-6.137Z" fill="#b7cc31"/>
</svg>
