<svg xmlns="http://www.w3.org/2000/svg" width="169.205" height="146.645" viewBox="0 0 169.205 146.645">
  <g id="Group_1283" data-name="Group 1283" transform="translate(-1536 -14620.515)">
    <g id="Group_1248" data-name="Group 1248" transform="translate(1536 14620.515)">
      <g id="Group_1247" data-name="Group 1247" transform="translate(0 0)">
        <path id="Path_2584" data-name="Path 2584" d="M160.744,105.322h-2.82V46.1a14.117,14.117,0,0,0-14.1-14.1H25.381a14.117,14.117,0,0,0-14.1,14.1V88.4H8.46A8.46,8.46,0,0,0,0,96.862v73.322a8.46,8.46,0,0,0,8.46,8.46H115.623a2.82,2.82,0,0,0,2.82-2.82,14.117,14.117,0,0,0-14.1-14.1h-8.46V144.8h33.841v25.381a8.46,8.46,0,0,0,8.46,8.46h22.561a8.46,8.46,0,0,0,8.46-8.46v-56.4A8.46,8.46,0,0,0,160.744,105.322Zm-98.7,64.862a2.82,2.82,0,0,1-2.82,2.82H8.46a2.82,2.82,0,0,1-2.82-2.82v-2.82h56.4Zm0-8.46H5.64V96.862a2.82,2.82,0,0,1,2.82-2.82H59.222a2.82,2.82,0,0,1,2.82,2.82Zm42.3,5.64a8.477,8.477,0,0,1,7.978,5.64H67.163a8.363,8.363,0,0,0,.519-2.82v-2.82Zm-36.661-5.64V144.8h5.64v16.92Zm11.28,0V144.8h11.28v16.92Zm50.761-22.561H67.682v-16.92h62.042Zm0-25.381v2.82H67.682V96.862a8.359,8.359,0,0,0-.964-3.838c.042-.039.1-.051.138-.093L94.774,65.012a2.82,2.82,0,0,0-3.988-3.988L62.868,88.943c-.068.071-.1.161-.155.234a8.354,8.354,0,0,0-3.491-.776H16.92V46.1a8.46,8.46,0,0,1,8.46-8.46H143.824a8.46,8.46,0,0,1,8.46,8.46v59.222h-14.1A8.46,8.46,0,0,0,129.724,113.782Zm33.841,56.4a2.82,2.82,0,0,1-2.82,2.82H138.184a2.82,2.82,0,0,1-2.82-2.82v-2.82h28.2Zm0-8.46h-28.2V113.782a2.82,2.82,0,0,1,2.82-2.82h22.561a2.82,2.82,0,0,1,2.82,2.82Z" transform="translate(0 -32)" fill="#f6ca50"/>
      </g>
    </g>
    <g id="Group_1250" data-name="Group 1250" transform="translate(1552.886 14710.417)">
      <g id="Group_1249" data-name="Group 1249">
        <path id="Path_2585" data-name="Path 2585" d="M64.713,287.859a2.82,2.82,0,0,0-3.988,0L48.763,299.822a2.82,2.82,0,1,0,3.919,4.057c.024-.023.047-.046.069-.069l11.963-11.963C65.216,290.975,64.2,289.316,64.713,287.859Z" transform="translate(-47.902 -287.034)" fill="#f6ca50"/>
      </g>
    </g>
    <g id="Group_1252" data-name="Group 1252" transform="translate(1569.807 14710.45)">
      <g id="Group_1251" data-name="Group 1251" transform="translate(0 0)">
        <path id="Path_2586" data-name="Path 2586" d="M112.644,287.922a2.82,2.82,0,0,0-3.918,0L96.763,299.885a2.82,2.82,0,0,0,3.918,4.057c.024-.023.047-.046.069-.069l11.963-11.963A2.82,2.82,0,0,0,112.644,287.922Z" transform="translate(-95.902 -287.13)" fill="#f6ca50"/>
      </g>
    </g>
    <g id="Group_1254" data-name="Group 1254" transform="translate(1615.209 14648.75)">
      <g id="Group_1253" data-name="Group 1253" transform="translate(0 0)">
        <path id="Path_2587" data-name="Path 2587" d="M257.4,112.89a2.821,2.821,0,0,0-3.918,0l-27.919,27.919a2.82,2.82,0,1,0,3.918,4.057c.024-.023.047-.046.069-.069l27.919-27.919A2.82,2.82,0,0,0,257.4,112.89Z" transform="translate(-224.702 -112.099)" fill="#f6ca50"/>
      </g>
    </g>
    <g id="Group_1256" data-name="Group 1256" transform="translate(1678.622 14718.084)">
      <g id="Group_1255" data-name="Group 1255" transform="translate(0 0)">
        <path id="Path_2588" data-name="Path 2588" d="M417.344,309.578a2.82,2.82,0,0,0-3.919,0l-7.975,7.975a2.82,2.82,0,1,0,3.918,4.057l.069-.069,7.975-7.975A2.82,2.82,0,0,0,417.344,309.578Z" transform="translate(-404.59 -308.786)" fill="#f6ca50"/>
      </g>
    </g>
    <g id="Group_1258" data-name="Group 1258" transform="translate(1617.824 14716.397)">
      <g id="Group_1257" data-name="Group 1257" transform="translate(0 0)">
        <path id="Path_2589" data-name="Path 2589" d="M234.954,304h-.028a2.834,2.834,0,1,0,.028,0Z" transform="translate(-232.12 -304)" fill="#f6ca50"/>
      </g>
    </g>
    <g id="Group_1260" data-name="Group 1260" transform="translate(1612.143 14631.795)">
      <g id="Group_1259" data-name="Group 1259" transform="translate(0 0)">
        <path id="Path_2590" data-name="Path 2590" d="M230.1,64H218.82a2.82,2.82,0,1,0,0,5.64H230.1a2.82,2.82,0,1,0,0-5.64Z" transform="translate(-216 -64)" fill="#f6ca50"/>
      </g>
    </g>
  </g>
</svg>
