<svg xmlns="http://www.w3.org/2000/svg" width="128.822" height="128.978" viewBox="0 0 128.822 128.978">
  <g id="noun_release_3634515" transform="translate(-1 -0.925)">
    <path id="Path_2517" data-name="Path 2517" d="M129.822,92.5A16.671,16.671,0,0,0,113.2,75.88H99.9A15.924,15.924,0,0,0,87.02,67.569a15.977,15.977,0,0,0-10.8-4.156H74.553a15.691,15.691,0,0,0-2.909-2.286V50.947H86.188a6.251,6.251,0,0,0,6.233-6.233,5.911,5.911,0,0,0-2.286-4.779L79.955,31.208V19.365A20.242,20.242,0,0,0,70.4,2.327a9.2,9.2,0,0,0-9.765,0,20.236,20.236,0,0,0-9.765,17.038V31.208L40.685,39.727A6.637,6.637,0,0,0,38.4,44.714a6.251,6.251,0,0,0,6.233,6.233H59.177V60.3a11.55,11.55,0,0,0-3.532,1.87,11.274,11.274,0,0,0-7.48-2.909,11.148,11.148,0,0,0-9.973,6.026l-1.039,2.286a12.614,12.614,0,0,0-10.6,8.311H17.622A16.671,16.671,0,0,0,1,92.5v4.156H9.311v27.011a6.122,6.122,0,0,0,6.233,6.233h99.733a6.122,6.122,0,0,0,6.233-6.233V96.658h8.311ZM56.269,13.547H74.761A18.026,18.026,0,0,1,75.8,19.365v14.96H55.022V19.365A13.942,13.942,0,0,1,56.269,13.547Zm31.166,29.5a2.565,2.565,0,0,1,.831,1.662,2.082,2.082,0,0,1-2.078,2.078H79.955V36.611ZM62.71,6.067a4.8,4.8,0,0,1,5.4,0A19.737,19.737,0,0,1,72.06,9.392h-13.3A12.466,12.466,0,0,1,62.71,6.067ZM44.633,46.792a2.082,2.082,0,0,1-2.078-2.078,1.89,1.89,0,0,1,.831-1.662l7.48-6.233v9.973Zm10.389-8.311H75.8v8.311H55.022Zm8.311,12.467h4.156v8.727a16.038,16.038,0,0,0-3.117-.416H63.333ZM38.4,71.725h1.247l2.286-4.571a7.012,7.012,0,0,1,6.233-3.74,7.189,7.189,0,0,1,5.818,3.117l1.454,2.286L58.97,66.53l-.831-1.039a11.2,11.2,0,0,1,6.233-2.078,10.545,10.545,0,0,1,7.48,3.117l1.039,1.039h3.324A11.768,11.768,0,0,1,84.734,71.1l.623.623h.831a11.362,11.362,0,0,1,8.727,4.156H31.128A8.38,8.38,0,0,1,38.4,71.725ZM17.622,80.036H53.567A19.258,19.258,0,0,0,46.711,92.5H5.156A12.5,12.5,0,0,1,17.622,80.036Zm-4.156,43.633V96.658h37.4V94.58A14.538,14.538,0,0,1,63.333,80.244v45.5H15.544A1.963,1.963,0,0,1,13.467,123.669Zm95.577-8.311v10.389h-4.156V115.358Zm-8.311,10.389H96.577V115.358h4.156Zm-8.311,0H88.266V115.358h4.156Zm22.855,0H113.2V115.358h4.156v8.311A1.963,1.963,0,0,1,115.277,125.747Zm2.078-14.544H88.266a4.168,4.168,0,0,0-4.156,4.156v10.389H67.489v-45.5A14.538,14.538,0,0,1,79.955,94.58v2.078h37.4ZM83.9,92.5a19.258,19.258,0,0,0-6.857-12.467H113.2A12.5,12.5,0,0,1,125.666,92.5Z" transform="translate(0 0)" fill="#b7cc31"/>
    <path id="Path_2518" data-name="Path 2518" d="M21.467,51H13.156A4.168,4.168,0,0,0,9,55.156v8.311a4.168,4.168,0,0,0,4.156,4.156h8.311a4.168,4.168,0,0,0,4.156-4.156V55.156A4.168,4.168,0,0,0,21.467,51ZM13.156,63.467V55.156h8.311v8.311Z" transform="translate(8.622 53.969)" fill="#b7cc31"/>
    <rect id="Rectangle_791" data-name="Rectangle 791" width="8.311" height="4.156" transform="translate(38.4 107.047)" fill="#b7cc31"/>
    <rect id="Rectangle_792" data-name="Rectangle 792" width="8.311" height="4.156" transform="translate(38.4 115.358)" fill="#b7cc31"/>
    <path id="Path_2519" data-name="Path 2519" d="M35.233,21.467a6.122,6.122,0,0,0,6.233-6.233,6.233,6.233,0,1,0-12.467,0A6.122,6.122,0,0,0,35.233,21.467Zm0-8.311a1.963,1.963,0,0,1,2.078,2.078,2.078,2.078,0,1,1-4.156,0A1.963,1.963,0,0,1,35.233,13.156Z" transform="translate(30.177 8.703)" fill="#b7cc31"/>
    <path id="Path_2520" data-name="Path 2520" d="M9.1,14.75v48h4.156v-48l4.571,5.61,3.324-2.493L11.173,5.4,1.2,17.867,4.524,20.36Z" transform="translate(0.216 4.823)" fill="#b7cc31"/>
    <path id="Path_2521" data-name="Path 2521" d="M11.524,30.39l2.493-3.324V49.921h4.156V27.065l2.493,3.324L23.991,27.9,16.1,17.3,8.2,27.9Z" transform="translate(7.76 17.648)" fill="#b7cc31"/>
    <path id="Path_2522" data-name="Path 2522" d="M61.1,14.75v48h4.156v-48l4.571,5.61,3.324-2.493L63.173,5.4,53.2,17.867l3.324,2.493Z" transform="translate(56.259 4.823)" fill="#b7cc31"/>
    <path id="Path_2523" data-name="Path 2523" d="M54.018,27.065V49.921h4.156V27.065l2.493,3.324L63.991,27.9,56.1,17.3,48.2,27.9l3.324,2.493Z" transform="translate(50.871 17.648)" fill="#b7cc31"/>
  </g>
</svg>
