<svg xmlns="http://www.w3.org/2000/svg" width="500.033" height="500.068" viewBox="0 0 500.033 500.068">
  <path id="Path_1408" data-name="Path 1408" d="M3.361,380l117.2,117.2a9.763,9.763,0,0,0,13.811,0l64.462-64.462a9.763,9.763,0,0,0,0-13.811l-2.861-2.861H336.765A48.727,48.727,0,0,0,370.03,402.99L488.519,291.941a37.708,37.708,0,0,0-45.645-59.605c-.061.038-26.306,17.26-26.306,17.26-.179-52.944-32.178-109.4-76.224-134.818A29.35,29.35,0,0,0,327.4,67.644c-.481-.16-.961-.3-1.442-.45L351.1,22.029A9.766,9.766,0,0,0,345.292,7.9a200.259,200.259,0,0,0-111.382,0A9.763,9.763,0,0,0,228.1,22.029l25.142,45.165c-.488.153-.977.3-1.465.458a29.3,29.3,0,0,0-12.9,47.118c-44.7,25.795-76.255,82.832-76.255,135.265,0,1.431.034,2.842.08,4.243a120.017,120.017,0,0,0-47.435,25.444l-29.682,25.97-3.96-3.96a9.763,9.763,0,0,0-13.811,0L3.361,366.193a9.763,9.763,0,0,0,0,13.811ZM251.347,23.619a181.139,181.139,0,0,1,76.514,0L306.1,62.714a119.083,119.083,0,0,0-32.983,0Zm6.532,62.589A101.066,101.066,0,0,1,321.3,86.2a9.771,9.771,0,0,1-2.442,19.038,95.544,95.544,0,0,0-58.514-.019h0a9.76,9.76,0,0,1-2.461-19.011Zm5.4,38.629a76.208,76.208,0,0,1,51.46-.412c45.378,15.6,82.3,71.951,82.3,125.608a94.006,94.006,0,0,1-.851,12.934l-46.946,30.8A38.838,38.838,0,0,0,318.9,279.334H299.369V267.889a29.3,29.3,0,0,0-9.767-56.923,9.767,9.767,0,1,1,0-19.534c3.46,0,7.112,1.766,10.564,5.1A9.766,9.766,0,1,0,313.748,182.5a37.69,37.69,0,0,0-14.38-8.992V162.131a9.767,9.767,0,1,0-19.534,0v11.446A29.3,29.3,0,0,0,289.6,230.5a9.767,9.767,0,1,1,0,19.534c-4.174,0-8.676-2.625-12.682-7.39a9.767,9.767,0,0,0-14.952,12.571,40.489,40.489,0,0,0,17.867,12.72v11.4h-3.251c-4.8,0-6.955-3.128-10.335-5.315a119.819,119.819,0,0,0-84.076-23.368c0-.206-.008-.408-.008-.618,0-52.906,36.39-109.066,81.115-125.2ZM128.142,294.416a100.432,100.432,0,0,1,126.379-4.773c2.491,1.457,9.427,9.225,22.06,9.225H318.9a19.534,19.534,0,1,1,0,39.068H250.534a9.767,9.767,0,1,0,0,19.534H318.9a39.032,39.032,0,0,0,38.5-45.691l95.911-62.928a18.174,18.174,0,0,1,21.884,28.809L356.707,388.705a29.22,29.22,0,0,1-19.942,7.833H176.442l-77-77.006Zm-53.413,28.03L178.121,425.839,127.47,476.49,24.078,373.1Zm0,0" transform="translate(-0.499 0)" fill="#b7cc31"/>
</svg>
