<svg xmlns="http://www.w3.org/2000/svg" width="245.298" height="245.298" viewBox="0 0 245.298 245.298">
  <path id="Path_2005" data-name="Path 2005" d="M230.385,120.084a106.08,106.08,0,0,0-7.826-36.81V73.038a7.725,7.725,0,0,1,3.407-6.485A35.6,35.6,0,0,0,202.6,1.233,35.841,35.841,0,0,0,172.075,28.45a106.857,106.857,0,0,0-84.034-5.531V1H64.3V64.3H56.39V16.826H32.651V64.3H24.738V32.651H1V72.216H30.024a106.509,106.509,0,0,0-7.042,87.041,15.663,15.663,0,0,0-2.2,7.913H12.869A11.884,11.884,0,0,0,1,179.039v19.782H8.913a7.913,7.913,0,1,1,0,15.826H1v19.782A11.884,11.884,0,0,0,12.869,246.3H60.346a11.884,11.884,0,0,0,11.869-11.869V214.646H64.3a7.913,7.913,0,1,1,0-15.826h7.913V179.039a11.884,11.884,0,0,0-11.869-11.869H52.433a15.842,15.842,0,0,0-15.826-15.826,15.609,15.609,0,0,0-7.28,1.86,98.343,98.343,0,0,1-4.415-25.6h47.3v10.714l7.224,2.552q.368.932.775,1.863l-3.308,6.916L97.655,170.4l6.916-3.308c.617.273,1.238.534,1.863.775l2.544,7.217h10.714v47.37a97.867,97.867,0,0,1-37.752-9.092L78.6,220.534A106.873,106.873,0,0,0,206.734,190.77v28.767l10.516,21.032a10.359,10.359,0,0,0,18.532,0L246.3,219.537V139.475A19.806,19.806,0,0,0,230.385,120.084ZM16.826,64.3H8.913V40.564h7.913Zm162.45-31.355A27.8,27.8,0,0,1,203.489,9.095a29.553,29.553,0,0,1,3.28-.182,27.369,27.369,0,0,1,18.405,7.035A27.674,27.674,0,0,1,221.689,59.9,15.44,15.44,0,0,0,214.7,72.215H210.69V47.749a11.869,11.869,0,1,0-7.913,0V72.215h-4.016a15.421,15.421,0,0,0-6.916-12.273,27.583,27.583,0,0,1-12.57-26.995Zm35.37,47.18v3.956a3.963,3.963,0,0,1-3.956,3.956h-7.913a3.963,3.963,0,0,1-3.956-3.956V80.128ZM202.777,36.608a3.956,3.956,0,1,1,3.956,3.956A3.963,3.963,0,0,1,202.777,36.608ZM127.605,24.869a98.8,98.8,0,0,1,43.532,12.047,35.342,35.342,0,0,0,16.443,29.693,7.772,7.772,0,0,1,3.323,6.6v10.88a11.884,11.884,0,0,0,11.869,11.869h7.913a11.752,11.752,0,0,0,7.165-2.469,98.251,98.251,0,0,1,4.609,26.207H175.082V108.979l-7.224-2.552q-.368-.932-.775-1.863l3.308-6.916L149.643,76.9l-6.916,3.308c-.617-.273-1.238-.534-1.863-.775l-2.544-7.217H127.605ZM72.215,8.913h7.913V64.3H72.215ZM40.564,24.738h7.913V64.3H40.564ZM28.695,175.082v-7.913a7.913,7.913,0,1,1,15.826,0v7.913H60.346a3.963,3.963,0,0,1,3.956,3.956v11.869a15.826,15.826,0,1,0,0,31.651v11.869a3.963,3.963,0,0,1-3.956,3.956H12.869a3.963,3.963,0,0,1-3.956-3.956V222.559a15.826,15.826,0,1,0,0-31.651V179.039a3.963,3.963,0,0,1,3.956-3.956Zm43.521-66.1v10.714H24.877a98.453,98.453,0,0,1,14.33-47.477H88.041V31.373a98.017,98.017,0,0,1,31.651-6.536V72.215H108.979l-2.552,7.224q-.932.368-1.863.775l-6.916-3.308L76.9,97.655l3.308,6.916c-.273.617-.534,1.238-.775,1.863Zm42.365,58.191-1.943-5.507-1.812-.621a38.685,38.685,0,0,1-4.538-1.891l-1.721-.843-5.278,2.524L86.463,148l2.524-5.278-.843-1.721a39.373,39.373,0,0,1-1.891-4.538l-.621-1.812-5.5-1.939v-18.14l5.507-1.943.621-1.812a38.683,38.683,0,0,1,1.891-4.538l.843-1.721-2.524-5.278L99.293,86.459l5.278,2.524,1.721-.843a39.369,39.369,0,0,1,4.538-1.891l1.812-.621,1.939-5.5h18.14l1.943,5.507,1.812.621a38.682,38.682,0,0,1,4.538,1.891l1.721.843,5.278-2.524,12.827,12.827-2.524,5.278.843,1.721a39.372,39.372,0,0,1,1.891,4.538l.621,1.812,5.5,1.939v18.14l-5.507,1.943-.621,1.812a38.685,38.685,0,0,1-1.891,4.538l-.843,1.721,2.524,5.278L148,160.839l-5.278-2.524-1.721.843a39.369,39.369,0,0,1-4.538,1.891l-1.812.621-1.939,5.5Zm92.153-27.695v37.811a98.4,98.4,0,0,1-79.128,45.147v-47.35h10.714l2.552-7.224q.932-.368,1.863-.775l6.916,3.308L170.4,149.643l-3.308-6.916c.273-.617.534-1.238.775-1.863l7.217-2.544V127.605h35.711a19.577,19.577,0,0,0-4.059,11.869Zm7.913,11.869h7.913v63.3h-7.913ZM228.7,237.036a2.537,2.537,0,0,1-4.372,0l-7.24-14.477H235.94Zm9.681-22.389h-7.913v-63.3h7.913Zm0-71.215H214.647v-3.956a11.869,11.869,0,1,1,23.738,0Z" transform="translate(-1 -1)" fill="#b7cc31"/>
</svg>
