<svg xmlns="http://www.w3.org/2000/svg" width="185.265" height="227.254" viewBox="0 0 185.265 227.254">
  <path id="Path_820" data-name="Path 820" d="M102.221,19.826C117.152.146,137.911.05,137.911.05s3.088,18.5-11.746,36.327C110.326,55.409,92.323,52.295,92.323,52.295S88.942,37.327,102.221,19.826Zm-8,45.43c7.682,0,21.938-10.559,40.5-10.559,31.943,0,44.509,22.729,44.509,22.729a49.348,49.348,0,0,0-24.577,43.056c0,34.4,30.617,46.25,30.617,46.25s-21.4,60.239-50.31,60.239c-13.277,0-23.6-8.947-37.59-8.947-14.257,0-28.4,9.281-37.619,9.281C33.349,227.305,0,170.162,0,124.229c0-45.192,28.228-68.9,54.7-68.9,17.212,0,30.569,9.926,39.517,9.926Z" transform="translate(0 -0.05)" fill="#b7cc31"/>
</svg>
