<svg xmlns="http://www.w3.org/2000/svg" width="167.852" height="52.615" viewBox="0 0 167.852 52.615">
  <g id="paytm-seeklogo" transform="translate(0)">
    <path id="Path_930" data-name="Path 930" d="M27.41,216.026a1.643,1.643,0,0,1,1.758-1.756H46.291c5.257.6,8.926,3.273,9.285,10.307v9.517a13.133,13.133,0,0,1-.489,3.975c-1.363,4.583-4.636,6.866-9.53,7.177H38.212v11.647c0,.875-.734,1.31-1.624,1.31H28.876a1.473,1.473,0,0,1-1.626-1.572Zm10.881,9.04H42.85a1.877,1.877,0,0,1,1.867,1.871v5.5A1.877,1.877,0,0,1,42.85,234.3H38.291Z" transform="translate(-27.25 -205.745)" fill="#b7cc31" fill-rule="evenodd"/>
    <path id="Path_931" data-name="Path 931" d="M176.708,214.51h11.971c7.006.408,10.8,4.086,10.7,11.717v28.249a4.19,4.19,0,0,1-4.1,3.851H179.584a9.063,9.063,0,0,1-8.69-7.348c-.751-3.495-.192-7.721-.192-11.29,0-5.507,3.65-10.968,9.731-10.968h6.39c1.858-.1,1.773-4.16,0-4.017h-9.985a1.65,1.65,0,0,1-1.816-1.568v-7.4c0-.945.781-1.227,1.688-1.227Zm6.6,24.426h3.652a1.574,1.574,0,0,1,1.568,1.57v6.364a1.574,1.574,0,0,1-1.568,1.57h-3.652a1.57,1.57,0,0,1-1.564-1.57V240.5a1.572,1.572,0,0,1,1.564-1.57Z" transform="translate(-139.94 -205.934)" fill="#b7cc31" fill-rule="evenodd"/>
    <path id="Path_932" data-name="Path 932" d="M323.07,216.178v17.847a10.928,10.928,0,0,0,10.919,9.784h5.067c2.089,0,1.961,3.512,0,3.512H328.109c-1.184,0-1.615.619-1.615,1.664v7.858a1.4,1.4,0,0,0,1.476,1.385H338.1c8.449,0,13.262-4.054,13.257-13.138v-29.6a1.187,1.187,0,0,0-1.2-1.342H341.67c-.783,0-1.242.853-1.242,1.476v16.214a.979.979,0,0,1-1.013,1.105H335.4a1.273,1.273,0,0,1-1.429-1.385V215.9c0-1.039-.427-1.8-1.566-1.8h-8.165C323.3,214.1,323.07,215.019,323.07,216.178Z" transform="translate(-259.958 -205.611)" fill="#b7cc31" fill-rule="evenodd"/>
    <path id="Path_933" data-name="Path 933" d="M475.68,192.214V184.5a1.51,1.51,0,0,1,1.5-1.508h1.858c4.785-1,5.923-3.8,8.85-6.957,1.8-1.948,3.375-2.46,4.538-.395v7.354h4.386a1.511,1.511,0,0,1,1.493,1.508v7.715a1.513,1.513,0,0,1-1.493,1.506h-4.389V225.34a1.508,1.508,0,0,1-1.493,1.508h-7.719a1.506,1.506,0,0,1-1.493-1.508V193.72h-4.538A1.513,1.513,0,0,1,475.68,192.214Z" transform="translate(-380.009 -174.312)" fill="#d4f50a" fill-rule="evenodd"/>
    <path id="Path_934" data-name="Path 934" d="M627.708,254.257a1.884,1.884,0,0,1-1.886,1.869H618.6a1.882,1.882,0,0,1-1.886-1.869V225.242c.055-3.138-6.264-3.627-6.264,0v29.015a1.882,1.882,0,0,1-1.884,1.869h-7.224a1.884,1.884,0,0,1-1.888-1.869V214.02a1.886,1.886,0,0,1,1.888-1.877h7.224a1.884,1.884,0,0,1,1.884,1.877v.555c4.226-4.043,11.546-3.414,15.444.8,7.333-8.412,19.9-.92,19.314,8.306,0,10.2-.09,20.3-.09,30.579a1.886,1.886,0,0,1-1.884,1.869H636a1.884,1.884,0,0,1-1.886-1.869v-28.83c-.412-4.026-6.492-3.083-6.484,0,0,9.584.075,19.163.075,28.832Z" transform="translate(-477.373 -203.732)" fill="#d4f50a" fill-rule="evenodd"/>
  </g>
</svg>
