<svg xmlns="http://www.w3.org/2000/svg" width="189.295" height="57.532" viewBox="0 0 189.295 57.532">
  <g id="phonepe-seeklogo.com" transform="translate(0)">
    <g id="Group_564" data-name="Group 564" transform="translate(0 0)">
      <g id="Group_561" data-name="Group 561">
        <g id="Group_558" data-name="Group 558">
          <path id="Path_920" data-name="Path 920" d="M28.769,3.941A28.766,28.766,0,1,0,57.535,32.707,28.767,28.767,0,0,0,28.769,3.941Z" transform="translate(-0.001 -3.941)" fill="#b7cc31"/>
        </g>
        <g id="Group_559" data-name="Group 559" transform="translate(16.777 7.193)">
          <path id="Path_921" data-name="Path 921" d="M36.844,22.736v.984a.77.77,0,0,1-.869.869H32.957a.486.486,0,0,0-.377.136.6.6,0,0,0-.125.412v23.4a.768.768,0,0,1-.869.869H29.164a.768.768,0,0,1-.869-.869V40.084h-.181a3.446,3.446,0,0,1-1.6,1.44A6.261,6.261,0,0,1,23.907,42H22.582a8.213,8.213,0,0,1-2.839-.463,6.125,6.125,0,0,1-2.213-1.388,5.932,5.932,0,0,1-1.423-2.187,8.129,8.129,0,0,1-.475-2.862V25.136a.639.639,0,0,0-.1-.389.415.415,0,0,0-.308-.159H12.569a.859.859,0,0,1-.651-.229.957.957,0,0,1-.218-.685v-1.92a.8.8,0,0,1,.218-.615.912.912,0,0,1,.651-.207H26.035q-1.461-1.521-2.829-3.221t-2.637-3.589l-1.281-1.9-1.278-1.9a1.43,1.43,0,0,1-.136-.33,1.388,1.388,0,0,1-.047-.354.606.606,0,0,1,.685-.685H21.3a1.414,1.414,0,0,1,.71.171,1.268,1.268,0,0,1,.48.515L25.758,14.9l3.268,5.256a1.914,1.914,0,0,0,.551.582,1.15,1.15,0,0,0,.64.194h5.759a.906.906,0,0,1,.651.207.806.806,0,0,1,.218.615v.982Z" transform="translate(-11.7 -8.957)" fill="#fff"/>
        </g>
        <g id="Group_560" data-name="Group 560" transform="translate(24.87 22.823)">
          <path id="Path_922" data-name="Path 922" d="M25.344,19.856h-7.5a.485.485,0,0,0-.379.136.6.6,0,0,0-.125.412v9.554a3.686,3.686,0,0,0,.869,2.673,3.482,3.482,0,0,0,2.606.892h1.233a5.146,5.146,0,0,0,1.674-.245,2.9,2.9,0,0,0,1.182-.737,3.2,3.2,0,0,0,.7-1.159,4.568,4.568,0,0,0,.235-1.514V20.405a.587.587,0,0,0-.126-.412A.476.476,0,0,0,25.344,19.856Z" transform="translate(-17.343 -19.856)" fill="#b7cc31"/>
        </g>
      </g>
      <g id="Group_563" data-name="Group 563" transform="translate(73.478 19.218)">
        <g id="Group_562" data-name="Group 562">
          <path id="Path_923" data-name="Path 923" d="M54.83,31.143v7.668H51.238V18.136h7.91a8,8,0,0,1,5.5,1.806,6.073,6.073,0,0,1,2.038,4.777,5.869,5.869,0,0,1-1.995,4.734,8.381,8.381,0,0,1-5.587,1.692H54.83Zm0-2.9h4.317a4.248,4.248,0,0,0,2.926-.9,3.317,3.317,0,0,0,1.008-2.606,3.58,3.58,0,0,0-1.022-2.677,3.936,3.936,0,0,0-2.812-1.03H54.829v7.215Z" transform="translate(-51.238 -16.997)" fill="#b7cc31"/>
          <path id="Path_924" data-name="Path 924" d="M67.585,25.467a5.4,5.4,0,0,1,4.275-1.96q4.913,0,4.985,5.61v10.04h-3.45V29.245a3.038,3.038,0,0,0-.688-2.251,2.816,2.816,0,0,0-2.023-.661,3.324,3.324,0,0,0-3.1,1.846V39.154h-3.45V17.342h3.45v8.125Z" transform="translate(-45.639 -17.342)" fill="#b7cc31"/>
          <path id="Path_925" data-name="Path 925" d="M75.181,29.466a9.058,9.058,0,0,1,.895-4.068,6.528,6.528,0,0,1,2.514-2.784,7.085,7.085,0,0,1,3.72-.974,6.714,6.714,0,0,1,5.048,2,7.878,7.878,0,0,1,2.1,5.31l.014.81a9.143,9.143,0,0,1-.873,4.061,6.449,6.449,0,0,1-2.5,2.769,7.128,7.128,0,0,1-3.756.979,6.661,6.661,0,0,1-5.2-2.165,8.289,8.289,0,0,1-1.953-5.772Zm3.45.3a6.2,6.2,0,0,0,.979,3.714,3.184,3.184,0,0,0,2.726,1.341,3.149,3.149,0,0,0,2.719-1.364,6.841,6.841,0,0,0,.972-3.991,6.107,6.107,0,0,0-1-3.693,3.374,3.374,0,0,0-5.4-.022A6.719,6.719,0,0,0,78.631,29.764Z" transform="translate(-40.845 -15.476)" fill="#b7cc31"/>
          <path id="Path_926" data-name="Path 926" d="M90.6,21.925l.1,1.775a5.525,5.525,0,0,1,4.473-2.059q4.8,0,4.886,5.5V37.29H96.6V27.336a3.163,3.163,0,0,0-.632-2.165,2.658,2.658,0,0,0-2.066-.7A3.327,3.327,0,0,0,90.8,26.356V37.291h-3.45V21.925Z" transform="translate(-35.565 -15.476)" fill="#b7cc31"/>
          <path id="Path_927" data-name="Path 927" d="M105.806,37.574a7.135,7.135,0,0,1-5.318-2.067A7.5,7.5,0,0,1,98.451,30v-.426a9.217,9.217,0,0,1,.888-4.111,6.751,6.751,0,0,1,2.492-2.819,6.585,6.585,0,0,1,3.578-1.008,6.036,6.036,0,0,1,4.85,2,8.461,8.461,0,0,1,1.711,5.666V30.7H101.93a4.616,4.616,0,0,0,1.271,3.01,3.814,3.814,0,0,0,2.805,1.107,4.669,4.669,0,0,0,3.862-1.917l1.86,1.775a6.2,6.2,0,0,1-2.464,2.137A7.66,7.66,0,0,1,105.806,37.574Zm-.412-13.163a2.906,2.906,0,0,0-2.293.994,5.15,5.15,0,0,0-1.114,2.769h6.575v-.255a4.2,4.2,0,0,0-.922-2.62A2.891,2.891,0,0,0,105.395,24.411Z" transform="translate(-30.744 -15.476)" fill="#b7cc31"/>
          <path id="Path_928" data-name="Path 928" d="M113.772,31.143v7.668H110.18V18.136h7.91a8,8,0,0,1,5.5,1.806,6.073,6.073,0,0,1,2.038,4.777,5.869,5.869,0,0,1-1.995,4.734,8.381,8.381,0,0,1-5.587,1.692h-4.276Zm0-2.9h4.317a4.248,4.248,0,0,0,2.926-.9,3.317,3.317,0,0,0,1.008-2.606A3.58,3.58,0,0,0,121,22.061a3.936,3.936,0,0,0-2.812-1.03h-4.417v7.215Z" transform="translate(-25.653 -16.997)" fill="#b7cc31"/>
          <path id="Path_929" data-name="Path 929" d="M129.927,37.574a7.135,7.135,0,0,1-5.318-2.067,7.5,7.5,0,0,1-2.038-5.5v-.426a9.217,9.217,0,0,1,.888-4.111,6.751,6.751,0,0,1,2.492-2.819,6.585,6.585,0,0,1,3.578-1.008,6.036,6.036,0,0,1,4.85,2,8.464,8.464,0,0,1,1.711,5.666V30.7h-10.04a4.616,4.616,0,0,0,1.271,3.01,3.814,3.814,0,0,0,2.805,1.107,4.669,4.669,0,0,0,3.862-1.917l1.86,1.775a6.2,6.2,0,0,1-2.464,2.137A7.66,7.66,0,0,1,129.927,37.574Zm-.412-13.163a2.906,2.906,0,0,0-2.293.994,5.15,5.15,0,0,0-1.114,2.769h6.575v-.255a4.2,4.2,0,0,0-.922-2.62A2.889,2.889,0,0,0,129.516,24.411Z" transform="translate(-20.274 -15.476)" fill="#b7cc31"/>
        </g>
      </g>
    </g>
  </g>
</svg>
