<svg xmlns="http://www.w3.org/2000/svg" width="305.314" height="305.314" viewBox="0 0 305.314 305.314">
  <g id="programming" transform="translate(0.25 0.25)">
    <path id="Path_1365" data-name="Path 1365" d="M88.725,7A53.725,53.725,0,1,0,142.45,60.725,53.789,53.789,0,0,0,88.725,7Zm0,97.682a43.957,43.957,0,1,1,43.957-43.957A44.011,44.011,0,0,1,88.725,104.682Z" transform="translate(132.059 23.305)" fill="#b7cc31" stroke="#fff" stroke-width="2.5"/>
    <path id="Path_1366" data-name="Path 1366" d="M290.461,61.534a72.953,72.953,0,0,0-4.488-10.887l6.408-12.45L266.622,12.439l-12.45,6.408a72.942,72.942,0,0,0-10.887-4.488L239,1h-36.43l-4.278,13.353A72.943,72.943,0,0,0,187.4,18.842l-12.45-6.408L149.193,38.192l5.988,11.649H15.652A14.67,14.67,0,0,0,1,64.493V269.625a14.67,14.67,0,0,0,14.652,14.652H189.941a34.163,34.163,0,1,0,35.727-48.45v-59H215.9v59a33.854,33.854,0,0,0-28.914,38.682H15.652a4.892,4.892,0,0,1-4.884-4.884V118.218H155.186l-5.993,11.644,25.759,25.759,12.45-6.408a72.94,72.94,0,0,0,10.887,4.488l4.283,13.358H239l4.278-13.353a72.945,72.945,0,0,0,10.887-4.488l12.45,6.408,25.759-25.759-6.408-12.445a73.033,73.033,0,0,0,4.488-10.887l13.358-4.293V65.812ZM220.784,245.2a24.421,24.421,0,1,1-24.42,24.421A24.448,24.448,0,0,1,220.784,245.2ZM10.768,64.493a4.892,4.892,0,0,1,4.884-4.884H151.816c-.23.645-.493,1.27-.7,1.924l-13.358,4.283v36.431l13.353,4.278c.21.654.479,1.28.7,1.924H10.768ZM294.046,95.121l-11.507,3.688-.713,2.525a62.876,62.876,0,0,1-5.631,13.651l-1.285,2.291L280.429,128l-15.683,15.683-10.721-5.514-2.286,1.28a63.075,63.075,0,0,1-13.656,5.631l-2.525.713-3.683,11.5H209.7l-3.688-11.507-2.525-.713a63.321,63.321,0,0,1-13.656-5.631l-2.286-1.28-10.721,5.514L161.14,127.991l5.519-10.721-1.285-2.291a62.979,62.979,0,0,1-5.631-13.651L159.03,98.8l-11.507-3.683V72.943l11.507-3.687.713-2.525a63.322,63.322,0,0,1,5.631-13.656l1.28-2.286L161.14,40.068l15.683-15.683L187.543,29.9l2.286-1.28a63.075,63.075,0,0,1,13.656-5.631l2.525-.713,3.683-11.507h22.179l3.687,11.507,2.525.713A63.322,63.322,0,0,1,251.74,28.62l2.286,1.28,10.721-5.514,15.683,15.683-5.514,10.721,1.28,2.286a63.075,63.075,0,0,1,5.631,13.656l.713,2.525,11.507,3.683Z" transform="translate(0 0)" fill="#b7cc31" stroke="#fff" stroke-width="2.5"/>
    <path id="Path_1367" data-name="Path 1367" d="M48.2,19.261,60.654,35.867,48.2,52.473l7.815,5.861,16.85-22.467L56.015,13.4Z" transform="translate(183.33 48.163)" fill="#b7cc31" stroke="#fff" stroke-width="2.5"/>
    <path id="Path_1368" data-name="Path 1368" d="M55.6,13.4,38.75,35.867,55.6,58.334l7.815-5.861L50.96,35.867,63.415,19.261Z" transform="translate(146.625 48.163)" fill="#b7cc31" stroke="#fff" stroke-width="2.5"/>
    <path id="Path_1369" data-name="Path 1369" d="M0,0H69.071V9.768H0Z" transform="translate(211.138 117.541) rotate(-81.837)" fill="#b7cc31" stroke="#fff" stroke-width="2.5"/>
    <path id="Path_1370" data-name="Path 1370" d="M63.609,15H14.768A9.778,9.778,0,0,0,5,24.768v9.768A9.778,9.778,0,0,0,14.768,44.3H63.609a9.778,9.778,0,0,0,9.768-9.768V24.768A9.778,9.778,0,0,0,63.609,15ZM44.073,24.768v9.768H34.3V24.768Zm-29.3,0h9.768v9.768H14.768Zm39.073,9.768V24.768h9.768l0,9.768Z" transform="translate(15.536 54.377)" fill="#b7cc31" stroke="#fff" stroke-width="2.5"/>
    <path id="Path_1371" data-name="Path 1371" d="M57.652,82.3A14.652,14.652,0,1,0,43,67.652,14.67,14.67,0,0,0,57.652,82.3Zm0-19.536a4.884,4.884,0,1,1-4.884,4.884A4.892,4.892,0,0,1,57.652,62.768Z" transform="translate(163.132 201.973)" fill="#b7cc31" stroke="#fff" stroke-width="2.5"/>
    <path id="Path_1372" data-name="Path 1372" d="M82.3,108.16V90.587L62.768,71.051V34H53V75.095L72.536,94.631V108.16a14.652,14.652,0,1,0,9.768,0ZM77.42,126.8a4.884,4.884,0,1,1,4.884-4.884A4.892,4.892,0,0,1,77.42,126.8Z" transform="translate(201.973 128.175)" fill="#b7cc31" stroke="#fff" stroke-width="2.5"/>
    <path id="Path_1373" data-name="Path 1373" d="M70.073,75.095V34H60.3V71.051L40.768,90.587V108.16a14.652,14.652,0,1,0,9.768,0V94.631ZM45.652,126.8a4.884,4.884,0,1,1,4.884-4.884A4.892,4.892,0,0,1,45.652,126.8Z" transform="translate(116.523 128.175)" fill="#b7cc31" stroke="#fff" stroke-width="2.5"/>
    <path id="Path_1374" data-name="Path 1374" d="M29.42,36.768H34.3V27H29.42A14.67,14.67,0,0,0,14.768,41.652a4.892,4.892,0,0,1-4.884,4.884H5V56.3H9.884a4.892,4.892,0,0,1,4.884,4.884A14.67,14.67,0,0,0,29.42,75.841H34.3V66.073H29.42a4.892,4.892,0,0,1-4.884-4.884,14.558,14.558,0,0,0-3.81-9.768,14.558,14.558,0,0,0,3.81-9.768A4.892,4.892,0,0,1,29.42,36.768Z" transform="translate(15.536 100.987)" fill="#b7cc31" stroke="#fff" stroke-width="2.5"/>
    <path id="Path_1375" data-name="Path 1375" d="M13,27H71.609v9.768H13Z" transform="translate(46.609 100.987)" fill="#b7cc31" stroke="#fff" stroke-width="2.5"/>
    <path id="Path_1376" data-name="Path 1376" d="M13,31H71.609v9.768H13Z" transform="translate(46.609 116.523)" fill="#b7cc31" stroke="#fff" stroke-width="2.5"/>
    <path id="Path_1377" data-name="Path 1377" d="M23,35h9.768v9.768H23Z" transform="translate(85.45 132.059)" fill="#b7cc31" stroke="#fff" stroke-width="2.5"/>
    <path id="Path_1378" data-name="Path 1378" d="M13,35H52.073v9.768H13Z" transform="translate(46.609 132.059)" fill="#b7cc31" stroke="#fff" stroke-width="2.5"/>
    <path id="Path_1379" data-name="Path 1379" d="M42.536,77.189A4.892,4.892,0,0,1,47.421,72.3H52.3V62.536H47.421a4.892,4.892,0,0,1-4.884-4.884A14.67,14.67,0,0,0,27.884,43H23v9.768h4.884a4.892,4.892,0,0,1,4.884,4.884,14.558,14.558,0,0,0,3.81,9.768,14.534,14.534,0,0,0-3.81,9.768,4.892,4.892,0,0,1-4.884,4.884H23v9.768h4.884A14.67,14.67,0,0,0,42.536,77.189Z" transform="translate(85.45 163.132)" fill="#b7cc31" stroke="#fff" stroke-width="2.5"/>
    <path id="Path_1380" data-name="Path 1380" d="M9,51H67.609v9.768H9Z" transform="translate(31.073 194.205)" fill="#b7cc31" stroke="#fff" stroke-width="2.5"/>
    <path id="Path_1381" data-name="Path 1381" d="M13,47H52.073v9.768H13Z" transform="translate(46.609 178.669)" fill="#b7cc31" stroke="#fff" stroke-width="2.5"/>
    <path id="Path_1382" data-name="Path 1382" d="M9,47h9.768v9.768H9Z" transform="translate(31.073 178.669)" fill="#b7cc31" stroke="#fff" stroke-width="2.5"/>
    <path id="Path_1383" data-name="Path 1383" d="M9,43H67.609v9.768H9Z" transform="translate(31.073 163.132)" fill="#b7cc31" stroke="#fff" stroke-width="2.5"/>
    <path id="Path_1384" data-name="Path 1384" d="M5,39h97.682v9.768H5Z" transform="translate(15.536 147.596)" fill="#b7cc31" stroke="#fff" stroke-width="2.5"/>
  </g>
</svg>
