<svg xmlns="http://www.w3.org/2000/svg" width="177.412" height="175.635" viewBox="0 0 177.412 175.635">
  <g id="Group_1282" data-name="Group 1282" transform="translate(-871.295 -14606.02)">
    <path id="Path_2578" data-name="Path 2578" d="M48.128,29.412l-2.006-5.36c-1.794.672-3.614,1.288-5.411,1.831l1.654,5.477C44.279,30.782,46.219,30.127,48.128,29.412Z" transform="translate(944.216 14647.931)" fill="#b7cc31"/>
    <path id="Path_2579" data-name="Path 2579" d="M40.723,39.721V32.03c2.123-.341,4.255-.758,6.37-1.245L45.8,25.208c-2.758.641-5.554,1.145-8.31,1.508L35,27.045V39.724c0,.767.017,1.531.057,2.292l5.717-.292c-.034-.667-.052-1.331-.052-2Z" transform="translate(933.585 14650.082)" fill="#b7cc31"/>
    <path id="Path_2580" data-name="Path 2580" d="M30.169,13A17.169,17.169,0,1,0,47.338,30.169,17.186,17.186,0,0,0,30.169,13Zm0,28.615A11.446,11.446,0,1,1,41.615,30.169,11.457,11.457,0,0,1,30.169,41.615Z" transform="translate(892.632 14627.357)" fill="#b7cc31"/>
    <path id="Path_2581" data-name="Path 2581" d="M72.429,19.27l-1.365-.741L69.7,19.27a76.477,76.477,0,0,1-35.854,9.188L31,28.476V52.154a59.388,59.388,0,0,0,39.085,55.664l.976.352.976-.352a59.388,59.388,0,0,0,39.085-55.664V28.476l-2.844-.017A76.5,76.5,0,0,1,72.429,19.27ZM105.4,52.154a53.648,53.648,0,0,1-34.338,49.919A53.653,53.653,0,0,1,36.723,52.154V34.113a82.267,82.267,0,0,0,34.341-9.091A82.276,82.276,0,0,0,105.4,34.113Z" transform="translate(926.139 14637.649)" fill="#b7cc31"/>
    <path id="Path_2582" data-name="Path 2582" d="M49.217,42.755,36.586,55.385,54.94,73.739,90.462,38.217,77.831,25.586,54.94,48.478ZM82.37,38.217,54.94,65.647,44.678,55.385l4.538-4.538L54.94,56.57,77.831,33.678Z" transform="translate(936.537 14650.786)" fill="#b7cc31"/>
    <path id="Path_2583" data-name="Path 2583" d="M178.412,49.645H164.594a64.794,64.794,0,0,1-36.118-10.977l-1.68-.976-1.577,1.05a64.682,64.682,0,0,1-21.206,9.182v-6.27l-7.54-1.774a45.484,45.484,0,0,0-3.952-9.534l4.08-6.59L81.256,8.411l-6.59,4.08A45.484,45.484,0,0,0,65.132,8.54L63.357,1h-21.7L39.882,8.54a45.484,45.484,0,0,0-9.534,3.952l-6.59-4.08L8.411,23.757l4.08,6.59A45.484,45.484,0,0,0,8.54,39.882L1,41.656v21.7l7.54,1.774a45.484,45.484,0,0,0,3.952,9.534l-4.08,6.59L23.757,96.6l6.59-4.08a45.484,45.484,0,0,0,9.534,3.952l1.774,7.54h21.7l1.774-7.54a45.484,45.484,0,0,0,9.534-3.952l1.319.816a70.809,70.809,0,0,0,13.578,33.708l-9.626,35.3,14.13-3.534,10.693,17.824,9.595-28.784a69.663,69.663,0,0,0,11.744,4.69l.807.24.807-.238a69.663,69.663,0,0,0,11.744-4.69l9.595,28.784,10.693-17.824,14.13,3.534-9.626-35.3a70.575,70.575,0,0,0,14.164-42.264ZM74.729,85.831l-1.5.91a39.715,39.715,0,0,1-11.168,4.627l-1.705.418-1.534,6.5H46.188l-1.531-6.5-1.705-.418a39.715,39.715,0,0,1-11.168-4.627l-1.5-.91L24.6,89.348l-8.936-8.936,3.517-5.683-.91-1.5a39.715,39.715,0,0,1-4.627-11.168l-.418-1.705L6.723,58.825V46.189l6.5-1.531.418-1.705a39.715,39.715,0,0,1,4.627-11.168l.91-1.5L15.665,24.6,24.6,15.665l5.683,3.517,1.5-.91a39.715,39.715,0,0,1,11.168-4.627l1.705-.418,1.534-6.5H58.825l1.531,6.5,1.705.418a39.715,39.715,0,0,1,11.168,4.627l1.5.91,5.683-3.517L89.345,24.6l-3.517,5.683.91,1.5a39.715,39.715,0,0,1,4.627,11.168l.418,1.705,6.507,1.534V49a65.536,65.536,0,0,1-9.074.647H86.7a34.356,34.356,0,1,0-11.3,28.42v6.722c0,.5.052,1,.063,1.5Zm.67-36.186v19.97a28.576,28.576,0,1,1,5.577-19.97ZM103.266,163.02l-6.476-10.791-8.762,2.189,6.006-22.028a70.9,70.9,0,0,0,15.235,12.616Zm62.515-8.6-8.762-2.189-6.476,10.791-6-18.013a70.9,70.9,0,0,0,15.235-12.616Zm6.908-69.634a65.276,65.276,0,0,1-45.784,62.025A65.276,65.276,0,0,1,81.121,84.784V55.368h8.1a70.43,70.43,0,0,0,37.686-10.9,70.364,70.364,0,0,0,37.691,10.9h8.1Z" transform="translate(870.295 14605.02)" fill="#b7cc31"/>
  </g>
</svg>
