<svg xmlns="http://www.w3.org/2000/svg" width="83.831" height="82.991" viewBox="0 0 83.831 82.991">
  <g id="quality-assurance" transform="translate(-1 -1)">
    <path id="Path_1706" data-name="Path 1706" d="M44.216,26.585l-.948-2.533c-.848.318-1.708.608-2.557.865l.782,2.588C42.4,27.232,43.314,26.923,44.216,26.585Z" transform="translate(13.983 8.117)" fill="#b7cc31"/>
    <path id="Path_1707" data-name="Path 1707" d="M37.7,32.066V28.431c1-.161,2.011-.358,3.01-.588l-.61-2.635c-1.3.3-2.624.541-3.927.713L35,26.076v5.991c0,.362.008.723.027,1.083l2.7-.138c-.016-.315-.024-.629-.024-.946Z" transform="translate(11.972 8.524)" fill="#b7cc31"/>
    <path id="Path_1708" data-name="Path 1708" d="M21.113,13a8.113,8.113,0,1,0,8.113,8.113A8.121,8.121,0,0,0,21.113,13Zm0,13.521a5.408,5.408,0,1,1,5.408-5.408A5.414,5.414,0,0,1,21.113,26.521Z" transform="translate(4.225 4.225)" fill="#b7cc31"/>
    <path id="Path_1709" data-name="Path 1709" d="M50.576,18.879l-.645-.35-.645.35a36.137,36.137,0,0,1-16.942,4.342L31,23.229V34.418a28.062,28.062,0,0,0,18.469,26.3l.461.166.461-.166a28.062,28.062,0,0,0,18.469-26.3V23.229l-1.344-.008a36.147,36.147,0,0,1-16.939-4.342ZM66.155,34.418A25.35,25.35,0,0,1,49.93,58.005,25.352,25.352,0,0,1,33.7,34.418V25.893a38.873,38.873,0,0,0,16.227-4.3,38.877,38.877,0,0,0,16.224,4.3Z" transform="translate(10.563 6.172)" fill="#b7cc31"/>
    <path id="Path_1710" data-name="Path 1710" d="M42.554,33.7l-5.968,5.968,8.672,8.672L62.044,31.554l-5.968-5.968L45.258,36.4ZM58.22,31.554,45.258,44.516,40.41,39.667l2.144-2.144,2.7,2.7L56.075,29.41Z" transform="translate(12.53 8.657)" fill="#b7cc31"/>
    <path id="Path_1711" data-name="Path 1711" d="M84.831,23.986H78.3A30.617,30.617,0,0,1,61.235,18.8l-.794-.461-.745.5a30.564,30.564,0,0,1-10.021,4.339V20.211l-3.563-.838a21.492,21.492,0,0,0-1.867-4.505l1.928-3.114L38.923,4.5,35.809,6.43A21.492,21.492,0,0,0,31.3,4.563L30.465,1H20.211l-.838,3.563A21.492,21.492,0,0,0,14.867,6.43L11.753,4.5,4.5,11.753,6.43,14.867a21.492,21.492,0,0,0-1.867,4.505L1,20.211V30.465l3.563.838A21.492,21.492,0,0,0,6.43,35.809L4.5,38.923l7.251,7.251,3.114-1.928a21.492,21.492,0,0,0,4.505,1.867l.838,3.563H30.465l.838-3.563a21.492,21.492,0,0,0,4.505-1.867l.623.385a33.459,33.459,0,0,0,6.416,15.928L38.3,77.238l6.677-1.67,5.053,8.422,4.534-13.6a32.917,32.917,0,0,0,5.549,2.216l.381.114.381-.112a32.917,32.917,0,0,0,5.549-2.216l4.534,13.6,5.053-8.422,6.677,1.67L78.138,60.561A33.348,33.348,0,0,0,84.831,40.59Zm-48.992,17.1-.707.43A18.766,18.766,0,0,1,29.854,43.7l-.806.2-.725,3.073H22.353L21.629,43.9l-.806-.2a18.766,18.766,0,0,1-5.277-2.186l-.707-.43-2.685,1.662L7.931,38.524l1.662-2.685-.43-.707a18.766,18.766,0,0,1-2.186-5.277l-.2-.806L3.7,28.324V22.353l3.073-.723.2-.806a18.766,18.766,0,0,1,2.186-5.277l.43-.707L7.93,12.152,12.152,7.93l2.685,1.662.707-.43a18.766,18.766,0,0,1,5.277-2.186l.806-.2L22.353,3.7h5.971l.723,3.073.806.2A18.766,18.766,0,0,1,35.13,9.161l.707.43L38.522,7.93l4.223,4.223-1.662,2.685.43.707A18.766,18.766,0,0,1,43.7,20.822l.2.806,3.075.725V23.68a30.967,30.967,0,0,1-4.288.306h-1.19a16.234,16.234,0,1,0-5.34,13.429v3.176c0,.238.024.472.03.709Zm.316-17.1v9.436a13.5,13.5,0,1,1,2.635-9.436ZM49.323,77.558l-3.06-5.1-4.14,1.034,2.838-10.409a33.5,33.5,0,0,0,7.2,5.961Zm29.54-4.064-4.14-1.034-3.06,5.1-2.837-8.512a33.5,33.5,0,0,0,7.2-5.961Zm3.264-32.9A30.845,30.845,0,0,1,60.493,69.9,30.845,30.845,0,0,1,38.859,40.59V26.69h3.825a33.28,33.28,0,0,0,17.807-5.149A33.249,33.249,0,0,0,78.3,26.69h3.825Z" fill="#b7cc31"/>
  </g>
</svg>
