<svg xmlns="http://www.w3.org/2000/svg" width="243.797" height="243.789" viewBox="0 0 243.797 243.789">
  <g id="rocket" transform="translate(0 -0.001)">
    <path id="Path_2035" data-name="Path 2035" d="M75.307,193.668a5.1,5.1,0,0,1-3.6-1.483L6.424,126.9a5.086,5.086,0,0,1-.2-6.979L55.153,65.1C89.356,25.091,145.054-.8,193.621.02a5.072,5.072,0,0,1,4.957,4.957c1.128,48.6-25.061,104.265-65.176,138.539L78.68,192.378A5.03,5.03,0,0,1,75.307,193.668ZM17,123.109l58.5,58.5,51.228-45.733c36.631-31.308,60.96-81.206,61.712-125.709-44.5.742-94.391,25.071-125.638,61.62Z" transform="translate(45.183 0)" fill="#b7cc31"/>
    <path id="Path_2036" data-name="Path 2036" d="M24.657,110.243a4.714,4.714,0,0,1-1.453-.223,5.024,5.024,0,0,1-3.6-3.921L12.639,57.47A5.08,5.08,0,1,1,22.7,56.028L28.141,94.02A118.6,118.6,0,0,0,55.833,18.249a5.079,5.079,0,0,1,10.158,0,128.641,128.641,0,0,1-37.4,90.358,5.71,5.71,0,0,1-3.931,1.635Z" transform="translate(115.286 120.605)" fill="#b7cc31"/>
    <path id="Path_2037" data-name="Path 2037" d="M54.96,59.557a4.383,4.383,0,0,1-.721-.051L5.61,52.538a5.08,5.08,0,0,1-2.844-8.645A128.932,128.932,0,0,1,93.46,6.155a5.079,5.079,0,0,1,0,10.158A118.567,118.567,0,0,0,17.638,43.995L55.681,49.45a5.079,5.079,0,0,1-.721,10.108Z" transform="translate(11.488 56.359)" fill="#b7cc31"/>
    <path id="Path_2038" data-name="Path 2038" d="M40.015,55.142a25.386,25.386,0,1,1,17.96-7.426A25.317,25.317,0,0,1,40.015,55.142Zm0-40.613a15.227,15.227,0,1,0,10.778,4.449,15.2,15.2,0,0,0-10.778-4.449Zm14.364,29.6h0Z" transform="translate(134.03 39.991)" fill="#b7cc31"/>
    <path id="Path_2039" data-name="Path 2039" d="M5.081,97.249A5.068,5.068,0,0,1,.215,90.718C1.881,85.161,16.8,36.056,27.673,25.186a31.4,31.4,0,1,1,44.4,44.4C61.206,80.458,12.1,95.38,6.544,97.046a5.582,5.582,0,0,1-1.463.2Zm44.8-71.1a21.2,21.2,0,0,0-15.024,6.207C28.994,38.23,19.242,64.448,12.8,84.45,32.793,78.01,59.022,68.258,64.883,62.4a21.226,21.226,0,0,0-15-36.245Z" transform="translate(0 146.54)" fill="#b7cc31"/>
  </g>
</svg>
