<svg xmlns="http://www.w3.org/2000/svg" width="195.112" height="195.112" viewBox="0 0 195.112 195.112">
  <g id="Group_1284" data-name="Group 1284" transform="translate(-882.443 -13698.885)">
    <g id="data" transform="translate(881.443 13697.885)">
      <path id="Path_2563" data-name="Path 2563" d="M5,11h6.294v6.294H5Z" transform="translate(8.588 21.47)" fill="#b7cc31"/>
      <path id="Path_2564" data-name="Path 2564" d="M9,11H90.821v6.294H9Z" transform="translate(17.176 21.47)" fill="#b7cc31"/>
      <path id="Path_2565" data-name="Path 2565" d="M11,46.176h6.294V52.47H11V77.646h6.294v6.294H11v25.176H86.527V83.939H80.233V77.646h6.294V52.47H80.233V46.176h6.294V21H11Zm69.233,56.646H17.294V90.233H80.233ZM73.939,83.939H23.588V77.646H73.939Zm6.294-12.588H17.294V58.764H80.233ZM73.939,52.47H23.588V46.176H73.939ZM17.294,27.294H80.233V39.882H17.294Z" transform="translate(21.47 42.939)" fill="#b7cc31"/>
      <path id="Path_2566" data-name="Path 2566" d="M196.112,38.764V1h-31.47V16.735H155.2A15.753,15.753,0,0,0,139.467,32.47V95.409H120.585V35.617A15.753,15.753,0,0,0,104.85,19.882H16.735A15.753,15.753,0,0,0,1,35.617V155.2a15.753,15.753,0,0,0,15.735,15.735H104.85A15.753,15.753,0,0,0,120.585,155.2V101.7h18.882v62.939A15.753,15.753,0,0,0,155.2,180.377h9.441v15.735h31.47V158.349h-31.47v15.735H155.2a9.452,9.452,0,0,1-9.441-9.441V130.026h18.882v15.735h31.47V108h-31.47v15.735H145.761v-53.5h18.882V89.115h31.47V51.352h-31.47V63.939H145.761V32.47a9.452,9.452,0,0,1,9.441-9.441h9.441V38.764ZM7.294,155.2V48.2a15.672,15.672,0,0,0,9.441,3.153h3.147V164.643H16.735A9.452,9.452,0,0,1,7.294,155.2Zm107,0a9.452,9.452,0,0,1-9.441,9.441H26.176V51.352H104.85a9.452,9.452,0,0,1,9.441,9.441Zm0-106.991a15.672,15.672,0,0,0-9.441-3.153H16.735a9.441,9.441,0,0,1,0-18.882H104.85a9.452,9.452,0,0,1,9.441,9.441Zm56.646,116.432h18.882v25.176H170.937Zm0-50.352h18.882v25.176H170.937Zm0-56.646h18.882V82.821H170.937Zm0-50.352h18.882V32.47H170.937Z" fill="#b7cc31"/>
    </g>
  </g>
</svg>
