<svg xmlns="http://www.w3.org/2000/svg" width="63.949" height="66.154" viewBox="0 0 63.949 66.154">
  <g id="seo" transform="translate(-8)">
    <g id="Group_1033" data-name="Group 1033" transform="translate(36.556 10.079)">
      <g id="Group_1032" data-name="Group 1032" transform="translate(0 0)">
        <rect id="Rectangle_504" data-name="Rectangle 504" width="29.676" height="2.24" fill="#b7cc31"/>
      </g>
    </g>
    <g id="Group_1035" data-name="Group 1035" transform="translate(36.556 14.558)">
      <g id="Group_1034" data-name="Group 1034" transform="translate(0 0)">
        <rect id="Rectangle_505" data-name="Rectangle 505" width="19.037" height="2.24" fill="#b7cc31"/>
      </g>
    </g>
    <g id="Group_1037" data-name="Group 1037" transform="translate(36.556 18.477)">
      <g id="Group_1036" data-name="Group 1036" transform="translate(0 0)">
        <rect id="Rectangle_506" data-name="Rectangle 506" width="19.037" height="2.24" fill="#b7cc31"/>
      </g>
    </g>
    <g id="Group_1039" data-name="Group 1039" transform="translate(45.515 5.599)">
      <g id="Group_1038" data-name="Group 1038" transform="translate(0 0)">
        <rect id="Rectangle_507" data-name="Rectangle 507" width="20.717" height="2.24" fill="#b7cc31"/>
      </g>
    </g>
    <g id="Group_1041" data-name="Group 1041" transform="translate(41.035 5.599)">
      <g id="Group_1040" data-name="Group 1040" transform="translate(0 0)">
        <rect id="Rectangle_508" data-name="Rectangle 508" width="2.24" height="2.24" fill="#b7cc31"/>
      </g>
    </g>
    <g id="Group_1043" data-name="Group 1043" transform="translate(38.795 44.234)">
      <g id="Group_1042" data-name="Group 1042" transform="translate(0 0)">
        <rect id="Rectangle_509" data-name="Rectangle 509" width="2.24" height="2.24" fill="#b7cc31"/>
      </g>
    </g>
    <g id="Group_1045" data-name="Group 1045" transform="translate(21.231 5.836)">
      <g id="Group_1044" data-name="Group 1044">
        <path id="Path_1689" data-name="Path 1689" d="M108.089,43.9l-1.559-1.559-2.205,2.205a1.1,1.1,0,0,0,0,1.559l2.205,2.205,1.559-1.559-1.426-1.426Z" transform="translate(-104.002 -42.344)" fill="#b7cc31"/>
      </g>
    </g>
    <g id="Group_1047" data-name="Group 1047" transform="translate(30.375 5.836)">
      <g id="Group_1046" data-name="Group 1046">
        <path id="Path_1690" data-name="Path 1690" d="M174.108,44.549,171.9,42.344,170.344,43.9l1.426,1.426-1.426,1.426,1.559,1.559,2.205-2.205A1.1,1.1,0,0,0,174.108,44.549Z" transform="translate(-170.344 -42.344)" fill="#b7cc31"/>
      </g>
    </g>
    <g id="Group_1049" data-name="Group 1049" transform="translate(25.696 5.163)">
      <g id="Group_1048" data-name="Group 1048" transform="translate(0)">
        <rect id="Rectangle_510" data-name="Rectangle 510" width="6.974" height="2.204" transform="translate(0 6.615) rotate(-71.549)" fill="#b7cc31"/>
      </g>
    </g>
    <g id="Group_1051" data-name="Group 1051" transform="translate(42.18 23.154)">
      <g id="Group_1050" data-name="Group 1050" transform="translate(0)">
        <path id="Path_1691" data-name="Path 1691" d="M278.051,179.026v-8.821h-2.205v8.821h-2.205V168h-2.205v11.026h-2.205v-5.513h-2.205v5.513h-2.205V172.41h-2.205v6.615H260.41v-4.41h-2.205v4.41H256v2.205h24.257v-2.205Z" transform="translate(-256 -168)" fill="#b7cc31"/>
      </g>
    </g>
    <g id="Group_1053" data-name="Group 1053" transform="translate(8)">
      <g id="Group_1052" data-name="Group 1052" transform="translate(0)">
        <path id="Path_1692" data-name="Path 1692" d="M65.334,0H14.615A6.622,6.622,0,0,0,8,6.615V44.1a6.622,6.622,0,0,0,6.615,6.615H28.267l-4.41,8.821H17.923a3.308,3.308,0,0,0,0,6.615h44.1a3.308,3.308,0,1,0,0-6.615H56.092l-4.41-8.821H65.334A6.622,6.622,0,0,0,71.949,44.1V6.615A6.622,6.622,0,0,0,65.334,0ZM10.205,15.513,12.711,18.5a1.1,1.1,0,0,0,.845.394h3.375a1.1,1.1,0,0,0,.845-.394l2.507-2.984,2.474.8L23.03,20.2a1.1,1.1,0,0,0,.451.815L26.212,23a1.109,1.109,0,0,0,.915.178l3.785-.94,1.53,2.1L30.38,27.65a1.1,1.1,0,0,0-.108.925l1.044,3.21a1.1,1.1,0,0,0,.634.681l3.614,1.465v2.6L31.948,38a1.1,1.1,0,0,0-.634.682l-.331,1.011H24.631A10.381,10.381,0,0,0,10.205,26.154Zm0,13.264A8.19,8.19,0,0,1,22.113,39.693H10.205ZM62.026,61.744a1.1,1.1,0,1,1,0,2.205h-44.1a1.1,1.1,0,0,1,0-2.205Zm-8.4-2.205h-27.3l4.41-8.821H49.216ZM69.744,44.1a4.41,4.41,0,0,1-4.41,4.41H14.615a4.41,4.41,0,0,1-4.41-4.41V41.9H69.744Zm0-4.41H33.64L37.081,38.3a1.1,1.1,0,0,0,.688-1.021V33.187a1.1,1.1,0,0,0-.688-1.022l-3.833-1.55-.725-2.233,2.185-3.506a1.1,1.1,0,0,0-.044-1.23l-2.4-3.308a1.1,1.1,0,0,0-1.158-.422l-4.009.992L25.2,19.532l-.29-4.113a1.1,1.1,0,0,0-.76-.971l-3.887-1.264a1.111,1.111,0,0,0-1.185.341l-2.654,3.159H14.073l-2.655-3.159a1.111,1.111,0,0,0-1.186-.341l-.026.01V6.615a4.41,4.41,0,0,1,4.41-4.41H65.334a4.41,4.41,0,0,1,4.41,4.41Z" transform="translate(-8)" fill="#b7cc31"/>
      </g>
    </g>
  </g>
</svg>
