<svg id="strategy" xmlns="http://www.w3.org/2000/svg" width="250" height="250" viewBox="0 0 250 250">
  <path id="Path_2008" data-name="Path 2008" d="M245.117,29.3a4.883,4.883,0,0,0,0-9.766H139.648V14.648a14.648,14.648,0,0,0-29.3,0v4.883H4.883a4.883,4.883,0,0,0,0,9.766H9.766V166.016H4.883a4.883,4.883,0,0,0,0,9.766H120.117v37.6L83.008,241.211a4.883,4.883,0,1,0,5.859,7.813l31.25-23.438v19.531a4.883,4.883,0,0,0,9.766,0V225.586l31.25,23.438a4.883,4.883,0,0,0,5.859-7.812l-37.109-27.832v-37.6h31.738a4.883,4.883,0,0,0,0-9.766H19.531V29.3H230.469V166.016h-24.9a4.883,4.883,0,0,0,0,9.766h39.551a4.883,4.883,0,0,0,0-9.766h-4.883V29.3ZM129.883,19.531h-9.766V14.648a4.883,4.883,0,1,1,9.766,0Z" fill="#b7cc31"/>
  <path id="Path_2009" data-name="Path 2009" d="M267.43,107.866a4.884,4.884,0,0,0,6.906,0l6.313-6.313,6.313,6.313a4.883,4.883,0,0,0,6.906-6.906l-6.313-6.313,6.313-6.313a4.883,4.883,0,0,0-6.906-6.906l-6.313,6.313-6.313-6.313a4.883,4.883,0,0,0-6.906,6.906l6.313,6.313-6.313,6.313a4.883,4.883,0,0,0,0,6.905Z" transform="translate(-136.117 -40.937)" fill="#b7cc31"/>
  <path id="Path_2010" data-name="Path 2010" d="M233.867,261.43a4.884,4.884,0,0,0-6.906,0l-6.313,6.312-6.313-6.313a4.883,4.883,0,1,0-6.906,6.906l6.313,6.313-6.313,6.313a4.883,4.883,0,1,0,6.906,6.906l6.313-6.313,6.313,6.313a4.883,4.883,0,0,0,6.906-6.906l-6.313-6.313,6.313-6.313a4.883,4.883,0,0,0,0-6.905Z" transform="translate(-105.413 -133.046)" fill="#b7cc31"/>
  <path id="Path_2011" data-name="Path 2011" d="M133.867,181.43a4.884,4.884,0,0,0-6.906,0l-6.313,6.313-6.313-6.313a4.883,4.883,0,0,0-6.906,6.906l6.313,6.313-6.313,6.313a4.883,4.883,0,0,0,6.906,6.906l6.313-6.313,6.313,6.313a4.883,4.883,0,0,0,6.906-6.906l-6.313-6.313,6.313-6.313A4.883,4.883,0,0,0,133.867,181.43Z" transform="translate(-54.242 -92.109)" fill="#b7cc31"/>
  <path id="Path_2012" data-name="Path 2012" d="M115.3,94.648A14.648,14.648,0,1,0,100.648,109.3,14.665,14.665,0,0,0,115.3,94.648Zm-19.531,0a4.883,4.883,0,1,1,4.883,4.883A4.888,4.888,0,0,1,95.766,94.648Z" transform="translate(-44.008 -40.937)" fill="#b7cc31"/>
  <path id="Path_2013" data-name="Path 2013" d="M253.891,178.126a19.553,19.553,0,0,0,19.531,19.531h15.556l-1.43,1.43a4.883,4.883,0,1,0,6.906,6.906l9.766-9.766a4.884,4.884,0,0,0,0-6.906l-9.766-9.766a4.883,4.883,0,0,0-6.906,6.906l1.43,1.43H273.422a9.777,9.777,0,0,1-9.766-9.766,19.486,19.486,0,0,0-6.633-14.648,19.486,19.486,0,0,0,6.633-14.648,9.777,9.777,0,0,1,9.766-9.766h15.556l-1.43,1.43a4.883,4.883,0,0,0,6.906,6.906l9.766-9.766a4.884,4.884,0,0,0,0-6.906l-9.766-9.766a4.883,4.883,0,0,0-6.906,6.906l1.43,1.43H273.422a19.553,19.553,0,0,0-19.531,19.531,9.777,9.777,0,0,1-9.766,9.766h-29.3a9.777,9.777,0,0,1-9.766-9.766v-29.3A19.553,19.553,0,0,0,185.531,100H170.883a4.883,4.883,0,0,0,0,9.766h14.648a9.777,9.777,0,0,1,9.766,9.766v29.3a19.553,19.553,0,0,0,19.531,19.531h29.3A9.775,9.775,0,0,1,253.891,178.126Z" transform="translate(-84.945 -51.173)" fill="#b7cc31"/>
  <circle id="Ellipse_6017" data-name="Ellipse 6017" cx="4.883" cy="4.883" r="4.883" transform="translate(178.711 166.016)" fill="#b7cc31"/>
</svg>
