<svg xmlns="http://www.w3.org/2000/svg" width="255.292" height="280.481" viewBox="0 0 255.292 280.481">
  <path id="target" d="M255.293,127.6A127.65,127.65,0,0,0,40.344,34.519l-1.6-1.6V17.045a4.109,4.109,0,1,0-8.217,0V24.7l-4.789-4.785V5.921a4.109,4.109,0,1,0-8.217,0V11.7L9.1,3.289A4.11,4.11,0,0,0,3.291,9.1l8.072,8.067H6.26a4.11,4.11,0,0,0,0,8.219H19.585l4.785,4.783h-6.98a4.109,4.109,0,1,0,0,8.217h15.2l1.941,1.941a127.553,127.553,0,0,0,2.857,177.5A128.876,128.876,0,0,0,53.772,231.69L38.086,270.582a7.2,7.2,0,0,0,10.456,8.827L94.8,250.949a129.043,129.043,0,0,0,65.28.111l46.072,28.349a7.2,7.2,0,0,0,10.456-8.827l-15.549-38.555a129.056,129.056,0,0,0,16.852-14.2A126.733,126.733,0,0,0,255.293,127.6ZM46.862,270.792l13.9-34.465a126.115,126.115,0,0,0,23.61,11.386Zm160.965,0L170.54,247.85a125.988,125.988,0,0,0,23.507-11.224Zm-12.692-44.67a4.075,4.075,0,0,0-.989.308l-35.36,16.342a4.105,4.105,0,0,0-.437.24,120.81,120.81,0,0,1-62.624-.321L60.739,226.522A120.6,120.6,0,0,1,43.2,212.015a119.333,119.333,0,0,1-2.853-165.87l6.649,6.644A110.013,110.013,0,1,0,228.971,84.518a4.11,4.11,0,1,0-7.562,3.221A101.9,101.9,0,1,1,52.809,58.6L69.587,75.375A79.507,79.507,0,0,0,110.8,204.909a4.109,4.109,0,0,0,1.928-7.988,71.676,71.676,0,0,1-39-24.9A71.218,71.218,0,0,1,75.412,81.2L90.041,95.819a49.1,49.1,0,1,0,18.433-13.584,4.109,4.109,0,1,0,3.2,7.569,41.044,41.044,0,1,1-15.807,11.84l17.089,17.081a17.182,17.182,0,1,0,5.812-5.81L81.119,75.278a71.307,71.307,0,1,1,48.413,123.631,4.109,4.109,0,1,0,0,8.217A79.526,79.526,0,1,0,75.305,69.468L58.623,52.79A101.822,101.822,0,0,1,213.616,72.954a4.109,4.109,0,1,0,6.929-4.419A110.032,110.032,0,0,0,52.809,46.978L46.16,40.334A119.4,119.4,0,0,1,212.1,212.016a120.692,120.692,0,0,1-16.961,14.108Zm-70.394-95.617a4.109,4.109,0,1,0,5.81-5.812l-5.617-5.617a8.953,8.953,0,1,1-5.814,5.81Zm0,0" transform="translate(0 0)" fill="#b7cc31"/>
</svg>
