<svg xmlns="http://www.w3.org/2000/svg" width="279.879" height="183" viewBox="0 0 279.879 183">
  <g id="teamwork" transform="translate(0 0)">
    <path id="Path_1385" data-name="Path 1385" d="M355.823,169.168h9.859a4.1,4.1,0,0,0,4-5l-6.566-29.219,16.922,32.034a4.1,4.1,0,0,0,3.626,2.184h9.859a4.1,4.1,0,0,0,3.942-5.229L385.3,121.47a2.064,2.064,0,0,1,.092-1.377l15.015-34.4.019-.053c.023-.051.041-.107.062-.16.026-.07.053-.139.075-.211,0-.017.013-.034.017-.051a.537.537,0,0,0,.015-.062c.009-.028.015-.058.023-.088.015-.06.032-.122.045-.184.009-.038.015-.079.023-.117s.013-.1.021-.147.013-.083.017-.128c.006-.062.011-.124.015-.188s.006-.1.006-.154c0-.015,0-.028,0-.043v-.021c0-.023,0-.047,0-.07l-.32-38.6c0-.051,0-.1,0-.154A17.491,17.491,0,0,0,394.6,32.954a18.162,18.162,0,0,0-2.054-1.591,12.057,12.057,0,0,0,3.4-5.142l3.03-8.943a12.146,12.146,0,0,0-7.6-15.385l-3.538-1.2a12.133,12.133,0,0,0-15.387,7.6l-3.03,8.94a12.139,12.139,0,0,0,2.383,11.9l-57.089,3.739A4.1,4.1,0,0,0,310.89,37a16.725,16.725,0,0,0,16.875,16.587l4.089-.028v8.661a3.026,3.026,0,0,1-3.024,3.024H277.844a3.026,3.026,0,0,1-3.024-3.024V11.23A3.029,3.029,0,0,1,277.844,8.2H328.83a3.029,3.029,0,0,1,3.024,3.028v8.1a4.1,4.1,0,0,0,8.2,0v-8.1A11.241,11.241,0,0,0,328.83,0H277.844A11.238,11.238,0,0,0,266.621,11.23V62.218a11.235,11.235,0,0,0,11.223,11.225H328.83a11.237,11.237,0,0,0,11.225-11.225V53.5l23.091-.162L364.4,82.1,337,110.6a12.327,12.327,0,0,0-1.945,14.742l16.973,41.288a4.1,4.1,0,0,0,3.79,2.541Zm22.057-52.353a10.255,10.255,0,0,0-.459,6.912l10.664,37.242h-1.949l-21.611-40.916a.574.574,0,0,0-.034-.062l-.412-.784a4.178,4.178,0,0,0-.448-.677,2.356,2.356,0,0,1-.453-2.11l8.451-28.6,18.8.254Zm-.685-96.948,3.03-8.943a3.919,3.919,0,0,1,4.986-2.462l3.538,1.2a3.936,3.936,0,0,1,2.462,4.986l-3.03,8.943a3.928,3.928,0,0,1-4.986,2.462l-3.538-1.2a3.936,3.936,0,0,1-2.462-4.986ZM335.986,45.329l-.032,0-.043,0-8.217.058a8.549,8.549,0,0,1-7.674-4.642l62.227-4.076a9.414,9.414,0,0,1,9.987,8.9l.284,34.329L372.5,79.623,371.351,53.28l3.214-.021a4.1,4.1,0,0,0-.03-8.2h-.028Zm6.267,76.067a4.148,4.148,0,0,1,.626-5.078l17-17.682-4.578,15.5a10.579,10.579,0,0,0,.551,7.288l-1.046,1.115a3.813,3.813,0,0,0-.337.406,7.155,7.155,0,0,0-.991,6.511l7.081,31.517h-1.988l-16.036-39.01a3.86,3.86,0,0,0-.282-.564Zm0,0" transform="translate(-120.877)" fill="#b7cc31"/>
    <path id="Path_1386" data-name="Path 1386" d="M487.55,319.777H471.215a4.1,4.1,0,1,0,0,8.2H487.55a4.1,4.1,0,1,0,0-8.2Zm0,0" transform="translate(-211.774 -144.976)" fill="#b7cc31"/>
    <path id="Path_1387" data-name="Path 1387" d="M433.6,319.777H417.268a4.1,4.1,0,1,0,0,8.2H433.6a4.1,4.1,0,0,0,0-8.2Zm0,0" transform="translate(-187.317 -144.976)" fill="#b7cc31"/>
    <path id="Path_1388" data-name="Path 1388" d="M49.74,86.712l.218-16.232,8.074,4.491a9.6,9.6,0,0,0,1.234.57v2.434A10.984,10.984,0,0,0,70.237,88.945h49.176a10.984,10.984,0,0,0,10.971-10.971V28.794a10.984,10.984,0,0,0-10.971-10.973H70.237A10.984,10.984,0,0,0,59.266,28.794V50.247L44.552,40.816a12.048,12.048,0,0,0,3.57-7.5l.886-9.4A12.143,12.143,0,0,0,38.071,10.7l-3.72-.352a12.133,12.133,0,0,0-13.22,10.939l-.888,9.4a12.077,12.077,0,0,0,2.246,8.232A14.715,14.715,0,0,0,20.961,40.4l-1.868,2.118a21.57,21.57,0,0,0-5.385,14.076l-.263,31.844-2.308,17.889a4.1,4.1,0,0,0,8.133,1.048l1.883-14.605,18.686-.252-5.708,16.544c-.017.053-.036.1-.053.156L14.619,165.634H11.76L17,124.965a4.1,4.1,0,0,0-8.131-1.051l-5.84,45.294A4.1,4.1,0,0,0,7.1,173.833H17.542a4.1,4.1,0,0,0,3.876-2.763L39.655,118.2l13.1,13.922-8.244,36.714a4.1,4.1,0,0,0,4,5h9.859a4.1,4.1,0,0,0,3.792-2.541L79.133,130a12.316,12.316,0,0,0-1.924-14.721Zm20.5-60.689h49.176a2.774,2.774,0,0,1,2.772,2.772v49.18a2.774,2.774,0,0,1-2.772,2.769H70.237a2.773,2.773,0,0,1-2.769-2.769v-2.33L84.4,73.558A19.335,19.335,0,0,0,101.359,54.39a4.1,4.1,0,0,0-4.535-4.078L67.467,53.44V28.794a2.774,2.774,0,0,1,2.769-2.772ZM28.409,31.457l.888-9.4A3.927,3.927,0,0,1,33.2,18.494a3.73,3.73,0,0,1,.378.017l3.718.35a3.94,3.94,0,0,1,3.547,4.286l-.888,9.4A3.918,3.918,0,0,1,36.235,36.1a14.51,14.51,0,0,0-5.366-.624,3.935,3.935,0,0,1-2.46-4.019Zm-6.5,25.2a13.347,13.347,0,0,1,3.335-8.72l1.866-2.118a6.4,6.4,0,0,1,3.359-2.009c.235.036.474.068.713.092l3.363.316a6.615,6.615,0,0,1,.816.446L59.975,60.441c.017.011.036.023.056.034a9.462,9.462,0,0,0,1.943.907c.062.021.12.047.182.066a9.532,9.532,0,0,0,3.873.391l26.1-2.78A11.132,11.132,0,0,1,83.4,65.421L62.8,67.955a1.275,1.275,0,0,1-.786-.152l-14-7.785c-.051-.03-.1-.06-.158-.088l-9.5-5.281a4.1,4.1,0,0,0-3.984,7.166l7.439,4.136L41.571,84.29l-19.894.269Zm50.032,69.4a4.1,4.1,0,0,0-.284.564l-16.03,39.01H53.639l7.074-31.513a7.137,7.137,0,0,0-.989-6.515,3.817,3.817,0,0,0-.337-.406L42.675,109.444l4.634-13.431,24,24.97.038.038a4.127,4.127,0,0,1,.589,5.039Zm0,0" transform="translate(-1.359 -4.665)" fill="#b7cc31"/>
    <path id="Path_1389" data-name="Path 1389" d="M20.435,319.777H4.1a4.1,4.1,0,1,0,0,8.2H20.435a4.1,4.1,0,1,0,0-8.2Zm0,0" transform="translate(0 -144.976)" fill="#b7cc31"/>
    <path id="Path_1390" data-name="Path 1390" d="M96.486,319.777H80.151a4.1,4.1,0,1,0,0,8.2H96.486a4.1,4.1,0,1,0,0-8.2Zm0,0" transform="translate(-34.479 -144.976)" fill="#b7cc31"/>
    <path id="Path_1391" data-name="Path 1391" d="M272.185,248.427h-9.207a13.4,13.4,0,0,0,1.085-5.3V175.9a13.512,13.512,0,0,0-13.5-13.5H212.427a4.1,4.1,0,0,0,0,8.2h38.138a5.3,5.3,0,0,1,5.3,5.3v67.234a5.3,5.3,0,0,1-5.3,5.3H183.341a5.3,5.3,0,0,1-5.3-5.3V175.9a5.3,5.3,0,0,1,5.3-5.3h9.026a4.1,4.1,0,1,0,0-8.2h-9.026a13.514,13.514,0,0,0-13.5,13.5v67.234a13.4,13.4,0,0,0,1.085,5.3H160.147a4.1,4.1,0,0,0,0,8.2H272.186a4.1,4.1,0,1,0,0-8.2Zm0,0" transform="translate(-70.747 -73.626)" fill="#b7cc31"/>
  </g>
</svg>
