<svg xmlns="http://www.w3.org/2000/svg" width="236.512" height="236.417" viewBox="0 0 236.512 236.417">
  <g id="user-experience" transform="translate(0.008 -0.086)">
    <path id="Path_2014" data-name="Path 2014" d="M43.381,390.773A43.312,43.312,0,0,0,76.67,319.715l8.9-8.9L80,305.241l-8.9,8.9a43.343,43.343,0,1,0-27.717,76.63Zm0-78.806A35.463,35.463,0,1,1,7.919,347.43,35.463,35.463,0,0,1,43.381,311.967Zm0,0" transform="translate(0 -154.27)" fill="#b7cc31"/>
    <path id="Path_2015" data-name="Path 2015" d="M43.424,86.818A43.157,43.157,0,0,0,71.141,76.763l8.9,8.9,5.572-5.572-8.9-8.9A43.321,43.321,0,1,0,43.424,86.818Zm0-78.806A35.463,35.463,0,1,1,7.962,43.475,35.463,35.463,0,0,1,43.424,8.012Zm0,0" transform="translate(-0.043 -0.046)" fill="#b7cc31"/>
    <path id="Path_2016" data-name="Path 2016" d="M238.772,195.4a43.343,43.343,0,1,0-47.137,43.151c1.256.123,2.522.192,3.794.192s2.538-.069,3.8-.192A43.381,43.381,0,0,0,238.772,195.4ZM215.13,223.9a31.431,31.431,0,0,1-16.758,6.817c-.974.083-1.949.148-2.944.148s-1.97-.065-2.942-.148a31.443,31.443,0,0,1-16.76-6.817v-.262a49.1,49.1,0,0,1,11.6-18.5l2.534-2.534a3.942,3.942,0,0,0,0-5.572,7.88,7.88,0,1,1,11.142,0,3.942,3.942,0,0,0,0,5.572l2.534,2.534a49.114,49.114,0,0,1,11.6,18.5Zm-6.024-24.332-.094-.1a15.761,15.761,0,1,0-27.165,0l-.094.1a56.935,56.935,0,0,0-12.644,19.517,35.462,35.462,0,1,1,52.642,0A56.963,56.963,0,0,0,209.106,199.567Zm0,0" transform="translate(-77.182 -77.107)" fill="#b7cc31"/>
    <path id="Path_2017" data-name="Path 2017" d="M67.787,87.489a19.7,19.7,0,1,0-19.7-19.7A19.7,19.7,0,0,0,67.787,87.489Zm0-31.522A11.821,11.821,0,1,1,55.967,67.787,11.82,11.82,0,0,1,67.787,55.967Zm0,0" transform="translate(-24.406 -24.358)" fill="#b7cc31"/>
    <path id="Path_2018" data-name="Path 2018" d="M52.026,391.489H83.549a3.94,3.94,0,0,0,3.94-3.94V356.026a3.94,3.94,0,0,0-3.94-3.94H52.026a3.94,3.94,0,0,0-3.94,3.94v31.522A3.94,3.94,0,0,0,52.026,391.489Zm3.94-31.522H79.608v23.642H55.967Zm0,0" transform="translate(-24.406 -178.627)" fill="#b7cc31"/>
    <path id="Path_2019" data-name="Path 2019" d="M375.2,50.191a4.1,4.1,0,0,0-6.84,0L352.6,77.773a3.94,3.94,0,0,0,3.419,5.91h31.522a3.94,3.94,0,0,0,3.421-5.91ZM362.809,75.8l8.971-15.7,8.973,15.7Zm0,0" transform="translate(-178.668 -24.493)" fill="#b7cc31"/>
    <path id="Path_2020" data-name="Path 2020" d="M347.429,390.773a43.343,43.343,0,1,0-27.715-76.63l-8.9-8.9-5.572,5.572,8.9,8.9a43.31,43.31,0,0,0,33.287,71.058Zm0-78.806a35.463,35.463,0,1,1-35.463,35.463A35.463,35.463,0,0,1,347.429,311.967Zm0,0" transform="translate(-154.317 -154.27)" fill="#b7cc31"/>
    <path id="Path_2021" data-name="Path 2021" d="M369.425,390.583a3.939,3.939,0,0,0,4.727,0l15.761-11.821a3.94,3.94,0,0,0,1.576-3.153V359.848a3.939,3.939,0,0,0-1.576-3.151l-15.761-11.821a3.939,3.939,0,0,0-4.727,0L353.664,356.7a3.941,3.941,0,0,0-1.578,3.151v15.761a3.942,3.942,0,0,0,1.578,3.153Zm-9.458-28.765,11.821-8.866,11.821,8.866v11.821L371.787,382.5l-11.821-8.866Zm0,0" transform="translate(-178.675 -174.569)" fill="#b7cc31"/>
    <path id="Path_2022" data-name="Path 2022" d="M64.086,200.086h7.881v7.881H64.086Zm0,0" transform="translate(-32.525 -101.493)" fill="#b7cc31"/>
    <path id="Path_2023" data-name="Path 2023" d="M64.086,232.086h7.881v7.881H64.086Zm0,0" transform="translate(-32.525 -117.732)" fill="#b7cc31"/>
    <path id="Path_2024" data-name="Path 2024" d="M64.086,264.086h7.881v7.881H64.086Zm0,0" transform="translate(-32.525 -133.97)" fill="#b7cc31"/>
    <path id="Path_2025" data-name="Path 2025" d="M424.086,200.086h7.881v7.881h-7.881Zm0,0" transform="translate(-215.212 -101.493)" fill="#b7cc31"/>
    <path id="Path_2026" data-name="Path 2026" d="M424.086,232.086h7.881v7.881h-7.881Zm0,0" transform="translate(-215.212 -117.732)" fill="#b7cc31"/>
    <path id="Path_2027" data-name="Path 2027" d="M424.086,264.086h7.881v7.881h-7.881Zm0,0" transform="translate(-215.212 -133.97)" fill="#b7cc31"/>
    <path id="Path_2028" data-name="Path 2028" d="M200.086,40.086h7.881v7.881h-7.881Zm0,0" transform="translate(-101.54 -20.299)" fill="#b7cc31"/>
    <path id="Path_2029" data-name="Path 2029" d="M232.086,40.086h7.881v7.881h-7.881Zm0,0" transform="translate(-117.779 -20.299)" fill="#b7cc31"/>
    <path id="Path_2030" data-name="Path 2030" d="M264.086,40.086h7.881v7.881h-7.881Zm0,0" transform="translate(-134.018 -20.299)" fill="#b7cc31"/>
    <path id="Path_2031" data-name="Path 2031" d="M200.086,424.086h7.881v7.881h-7.881Zm0,0" transform="translate(-101.54 -215.165)" fill="#b7cc31"/>
    <path id="Path_2032" data-name="Path 2032" d="M232.086,424.086h7.881v7.881h-7.881Zm0,0" transform="translate(-117.779 -215.165)" fill="#b7cc31"/>
    <path id="Path_2033" data-name="Path 2033" d="M264.086,424.086h7.881v7.881h-7.881Zm0,0" transform="translate(-134.018 -215.165)" fill="#b7cc31"/>
    <path id="Path_2034" data-name="Path 2034" d="M347.434.086a43.344,43.344,0,0,0-36.873,66.119L308.079,82.23a3.94,3.94,0,0,0,3.892,4.542,3.7,3.7,0,0,0,.823-.087l17.091-3.663a42.8,42.8,0,0,0,17.549,3.75,43.343,43.343,0,0,0,0-86.686Zm0,78.806a35.128,35.128,0,0,1-15.367-3.546,3.914,3.914,0,0,0-1.714-.394,4.244,4.244,0,0,0-.823.087L316.753,77.8l1.835-11.844a3.941,3.941,0,0,0-.623-2.8,35.463,35.463,0,1,1,29.469,15.736Zm0,0" transform="translate(-154.322)" fill="#b7cc31"/>
  </g>
</svg>
