<svg xmlns="http://www.w3.org/2000/svg" width="86" height="86" viewBox="0 0 86 86">
  <g id="web-design" transform="translate(291 446)">
    <g id="Group_1055" data-name="Group 1055" transform="translate(-291 -446)">
      <g id="Group_1054" data-name="Group 1054">
        <path id="Path_1693" data-name="Path 1693" d="M82.774,11.1h22.194V8.323H82.774V6.935a4.166,4.166,0,0,1,4.161-4.161h29.129a2.777,2.777,0,0,1,2.774,2.774h2.774A5.554,5.554,0,0,0,116.065,0H86.935A6.943,6.943,0,0,0,80,6.935v6.935h2.774Z" transform="translate(-66.129)" fill="#b7cc31"/>
        <path id="Path_1694" data-name="Path 1694" d="M82.774,350.935v-4.161h5.548V344H80v6.935a6.943,6.943,0,0,0,6.935,6.935H91.1V355.1H86.935A4.166,4.166,0,0,1,82.774,350.935Z" transform="translate(-66.129 -284.355)" fill="#b7cc31"/>
        <path id="Path_1695" data-name="Path 1695" d="M52.052,154.8a6.138,6.138,0,0,0-4-10.8h-.218a6.1,6.1,0,0,0-4.34,1.8l-.4.4-.4-.4a6.091,6.091,0,0,0-4.339-1.8h-.218a6.138,6.138,0,0,0-3.995,10.8l8.954,7.673Zm-17.278-4.659a3.368,3.368,0,0,1,3.364-3.364h.218a3.336,3.336,0,0,1,2.377.985l2.364,2.364,2.364-2.364a3.336,3.336,0,0,1,2.377-.985h.218a3.363,3.363,0,0,1,2.189,5.917L43.1,158.818l-7.148-6.125A3.366,3.366,0,0,1,34.774,150.138Z" transform="translate(-26.452 -119.032)" fill="#b7cc31"/>
        <path id="Path_1696" data-name="Path 1696" d="M33.29,112.645A16.645,16.645,0,1,0,16.645,129.29,16.664,16.664,0,0,0,33.29,112.645Zm-30.516,0a13.871,13.871,0,1,1,13.871,13.871A13.887,13.887,0,0,1,2.774,112.645Z" transform="translate(0 -79.355)" fill="#b7cc31"/>
        <path id="Path_1697" data-name="Path 1697" d="M240,48V64.645h2.774V50.774h38.839V85.452h-6.935v2.774h9.71V48Z" transform="translate(-198.387 -39.677)" fill="#b7cc31"/>
        <path id="Path_1698" data-name="Path 1698" d="M326.194,91.1a11.1,11.1,0,1,0-18.032,8.655v1.054h-2.774v2.774h13.871v2.774h-1.387v2.774h4.161v-5.548h2.774v-2.774h-2.774V99.752A11.106,11.106,0,0,0,326.194,91.1Zm-11.1,1.387a1.387,1.387,0,1,1,1.387-1.387A1.388,1.388,0,0,1,315.1,92.484Zm4.754,5.437-.592.415v2.47h-2.774V95a4.161,4.161,0,1,0-2.774,0v5.8h-2.774v-2.47l-.592-.415a8.323,8.323,0,1,1,9.507,0Z" transform="translate(-251.29 -66.129)" fill="#b7cc31"/>
        <path id="Path_1699" data-name="Path 1699" d="M180.387,178.032a5.514,5.514,0,0,0-4.161,1.917,5.475,5.475,0,0,0-8.323,0,5.438,5.438,0,0,0-6.936-1.146V165.548a5.548,5.548,0,1,0-11.1,0v28.309a.774.774,0,0,1-.234.558.987.987,0,0,1-.56.225.778.778,0,0,1-.741-.569l-1.9-6.725a5.193,5.193,0,0,0-4.978-3.766h-.284A5.179,5.179,0,0,0,136,188.753a5.028,5.028,0,0,0,.1,1.014l1.788,8.941a14.658,14.658,0,0,0,4.982,8.354l4.225,3.523v7.672h33.29v-1.626a8.027,8.027,0,0,1,2.368-5.716,10.78,10.78,0,0,0,3.181-7.678V183.581A5.554,5.554,0,0,0,180.387,178.032Zm2.774,25.206a8.027,8.027,0,0,1-2.368,5.716,10.772,10.772,0,0,0-3.121,6.529h-27.8v-6.2l-5.224-4.353a11.884,11.884,0,0,1-4.039-6.768l-1.789-8.944a2.5,2.5,0,0,1-.044-.467,2.4,2.4,0,0,1,2.4-2.4h.284a2.409,2.409,0,0,1,2.31,1.746l1.9,6.726a3.557,3.557,0,0,0,6.98-.97V165.548a2.774,2.774,0,1,1,5.548,0v23.581h2.774v-5.548a2.774,2.774,0,1,1,5.548,0v5.548h2.774v-5.548a2.774,2.774,0,1,1,5.548,0v5.548h2.774v-5.548a2.774,2.774,0,1,1,5.548,0Z" transform="translate(-112.419 -132.258)" fill="#b7cc31"/>
        <rect id="Rectangle_511" data-name="Rectangle 511" width="2" height="4" transform="translate(14 53)" fill="#b7cc31"/>
      </g>
    </g>
  </g>
</svg>
